<svg xmlns="http://www.w3.org/2000/svg" fill="none" viewBox="0 0 14 14"><path stroke="currentColor" stroke-linecap="round" stroke-linejoin="round" d="M9.91347 6.99985C9.91339 7.56831 9.74536 8.12407 9.43046 8.59735C9.11557 9.07062 8.66786 9.44031 8.14356 9.65998C7.61926 9.87965 7.04175 9.93952 6.48354 9.83205C5.92533 9.72459 5.41131 9.45459 5.00604 9.05597C4.60077 8.65734 4.32231 8.14786 4.20564 7.5915C4.08897 7.03514 4.13928 6.45671 4.35025 5.92885C4.56123 5.40099 4.92347 4.94724 5.39147 4.62457C5.85948 4.3019 6.41239 4.1247 6.98077 4.11522C7.36361 4.10884 7.74389 4.17874 8.09944 4.32085C8.45499 4.46295 8.77868 4.67442 9.05166 4.94292C9.32463 5.21142 9.54142 5.53158 9.68939 5.88473C9.83735 6.23788 9.91352 6.61695 9.91347 6.99985V6.99985Z" /><path stroke="currentColor" stroke-linecap="round" stroke-linejoin="round" d="M9.91341 7.00001V8.25002C9.91341 11.6058 15.173 8.44233 12.4134 3.88462C11.8577 2.93563 11.0646 2.14759 10.1121 1.59798C9.15958 1.04838 8.08041 0.756144 6.98071 0.75C6.05683 0.752853 5.14507 0.960495 4.31106 1.35798C3.47706 1.75546 2.74154 2.3329 2.15746 3.04874C1.57338 3.76457 1.15527 4.60099 0.933212 5.49779C0.711156 6.39459 0.690682 7.32947 0.873264 8.23514C1.05585 9.1408 1.43694 9.99473 1.98912 10.7354C2.5413 11.4762 3.25083 12.0852 4.06664 12.5189C4.88245 12.9525 5.78424 13.1998 6.70711 13.2431C7.62998 13.2864 8.55097 13.1246 9.4038 12.7693" /></svg>