<svg xmlns="http://www.w3.org/2000/svg" fill="none" viewBox="0 0 14 14">
    <desc>Bill Dollar 1 Streamline Icon: https://streamlinehq.com</desc>
    <g id="bill-dollar-1--billing-bills-payment-finance-cash-currency-money-accounting-dollar">
        <path id="Intersect" stroke="currentColor" stroke-linecap="round" stroke-linejoin="round" d="M1.05616 7.32536c0.11809 0.4842 0.5406 0.85183 1.03898 0.85183h9.80976c0.4983 0 0.9206 -0.36781 1.043 -0.85093 0.1487 -0.58666 0.3021 -1.1424 0.3021 -2.86267 0 -1.72026 -0.1534 -2.276 -0.3021 -2.86266C12.8255 1.11781 12.4032 0.75 11.9049 0.75l-9.80976 0c-0.49838 0 -0.92089 0.36763 -1.03898 0.85183C0.906223 2.21665 0.75 2.79491 0.75 4.46359c0 1.66869 0.156223 2.24695 0.30616 2.86177Z" stroke-width="1"></path>
        <path id="Vector 5" stroke="currentColor" stroke-linecap="round" stroke-linejoin="round" d="M2.36572 10.7544h9.26848" stroke-width="1"></path>
        <path id="Vector 8" stroke="currentColor" stroke-linecap="round" stroke-linejoin="round" d="M3.68579 13.25h6.62851" stroke-width="1"></path>
        <path id="Vector 6" stroke="currentColor" stroke-linecap="round" stroke-linejoin="round" d="m2.93018 4.48108 0.60858 -0.00782" stroke-width="1"></path>
        <path id="Vector 7" stroke="currentColor" stroke-linecap="round" stroke-linejoin="round" d="m10.4614 4.48108 0.6086 -0.00782" stroke-width="1"></path>
        <path id="Vector" stroke="currentColor" stroke-linecap="round" stroke-linejoin="round" d="M8.19665 3.18597s-0.44985 -0.50146 -1.17948 -0.43879c-0.72962 0.06267 -1.08132 0.51092 -1.08132 0.96041 0 1.311 2.2608 0.40246 2.2608 1.74684 0 0.69309 -1.49968 1.18232 -2.39318 0.36693m1.30311 -3.73701v0.65741m0 3.49768v0.65741" stroke-width="1"></path>
    </g>
</svg>