<svg xmlns="http://www.w3.org/2000/svg" fill="none" viewBox="0 0 14 14"><path stroke="currentColor" stroke-linejoin="round" d="M11.5607 2.70123L12.0522 1.58544C12.1573 1.34679 12.1893 1.06022 11.95 0.956426C11.3156 0.681192 9.70067 0.681191 9.06626 0.956425C8.82702 1.06022 8.859 1.34679 8.96412 1.58544L9.45847 2.70772C8.39446 3.04025 7.8125 3.9233 7.8125 5.25732C7.8125 6.98379 8.78724 7.07883 10.5201 7.07883C12.253 7.07883 13.2277 6.98379 13.2277 5.25732C13.2277 3.91453 12.6381 3.02865 11.5607 2.70123Z"></path><path stroke="currentColor" stroke-linecap="round" stroke-linejoin="round" d="M1.04645 6.44198L1.7594 6.39787C2.58219 6.34696 3.4079 6.42353 4.2073 6.62486L5.39108 6.92301C6.03407 7.08495 6.46069 7.69435 6.39284 8.35393V8.35393C6.31342 9.12606 5.59442 9.66782 4.83032 9.5313L3.71354 9.33176L7.65114 10.0379L11.7297 9.06987C12.3894 8.91329 13.0538 9.31082 13.2276 9.9662V9.9662C13.3892 10.575 13.0729 11.2089 12.4894 11.4459L9.22704 12.7714C7.64008 13.4162 5.87175 13.4566 4.25702 12.8849L0.874634 11.6874"></path></svg>