<svg xmlns="http://www.w3.org/2000/svg" fill="none" viewBox="0 0 14 14"><path stroke="currentColor" stroke-linecap="round" stroke-linejoin="round" d="M10.872 9.56281C11.4576 9.33713 11.9722 9.0467 12.3776 8.68954C12.8565 8.2677 13.1609 7.68836 13.2333 7.06123C13.3057 6.4341 13.141 5.80271 12.7705 5.28662C12.3999 4.77053 11.8492 4.40557 11.2226 4.26084C11.1793 4.24817 11.1406 4.22364 11.1111 4.19013C11.0816 4.15662 11.0625 4.11553 11.056 4.0717C10.9785 3.23943 10.6124 2.45835 10.0186 1.85871C9.42483 1.25907 8.63932 0.877119 7.79307 0.776555C6.94682 0.67599 6.09098 0.86289 5.36827 1.30608C4.64557 1.74928 4.09968 2.42198 3.82164 3.21201C3.80325 3.24885 3.77448 3.27975 3.73874 3.30108C3.703 3.32241 3.66179 3.33326 3.61996 3.33237C3.21692 3.3589 2.82315 3.463 2.46115 3.63872C2.09914 3.81444 1.77598 4.05835 1.51013 4.35652C0.973201 4.95869 0.702263 5.74531 0.756916 6.54333C0.811569 7.34135 1.18734 8.0854 1.80155 8.61179C2.12683 8.89057 2.52411 9.13308 2.97317 9.33828"></path><path stroke="currentColor" stroke-linecap="round" stroke-linejoin="round" d="M3.47656 3.33496C4.66577 3.33496 5.72932 4.11881 6.06482 4.83493"></path><path stroke="currentColor" stroke-linecap="round" stroke-linejoin="round" d="M7 7.84415L7 13.2217"></path><path stroke="currentColor" stroke-linecap="round" stroke-linejoin="round" d="M4.94751 11.4404C5.57121 12.2372 5.99601 12.608 6.62909 13.0929C6.8531 13.2645 7.14697 13.2645 7.37098 13.0929C8.00406 12.608 8.42886 12.2372 9.05256 11.4404"></path></svg>