<svg xmlns="http://www.w3.org/2000/svg" fill="none" viewBox="0 0 14 14"><path stroke="currentColor" stroke-linecap="round" stroke-linejoin="round" d="M9.9051 7.93781C9.86726 7.92674 9.83345 7.9053 9.80764 7.876C9.78183 7.8467 9.76511 7.81078 9.75945 7.77247C9.69173 7.0449 9.37165 6.36208 8.85257 5.83788C8.3335 5.31368 7.64681 4.97978 6.90702 4.89187C6.16723 4.80395 5.41906 4.96734 4.78728 5.35478C4.15549 5.74222 3.67828 6.33029 3.43522 7.02093C3.41914 7.05313 3.39399 7.08015 3.36275 7.0988C3.3315 7.11744 3.29547 7.12693 3.25891 7.12615C2.90657 7.14934 2.56234 7.24034 2.24588 7.39396C1.92941 7.54758 1.64691 7.7608 1.4145 8.02146C0.945121 8.54787 0.708269 9.23553 0.756046 9.93316C0.803823 10.6308 1.13232 11.2812 1.66926 11.7414C3.68776 13.4713 8.87776 13.604 10.9148 11.8094C11.3334 11.4406 11.5996 10.9341 11.6629 10.3859C11.7261 9.83767 11.5822 9.28572 11.2583 8.83455C10.9343 8.38339 10.4529 8.06434 9.9051 7.93781Z"></path><path stroke="currentColor" stroke-linecap="round" stroke-linejoin="round" d="M3.13354 7.12744C4.17314 7.12744 5.1029 7.81268 5.39619 8.43871"></path><path stroke="currentColor" stroke-linecap="round" stroke-linejoin="round" d="M9.42224 0.75C10.4304 0.75 11.3973 1.15049 12.1101 1.86336C12.823 2.57623 13.2235 3.54309 13.2235 4.55125"></path><path stroke="currentColor" stroke-linecap="round" stroke-linejoin="round" d="M9.42249 3.20898C9.77841 3.20898 10.1198 3.35037 10.3714 3.60205C10.6231 3.85372 10.7645 4.19507 10.7645 4.55099"></path></svg>