<svg xmlns="http://www.w3.org/2000/svg" fill="none" viewBox="0 0 14 14"><path stroke="currentColor" d="M1.10135 8.69052C1.17748 9.19966 1.61869 9.57955 2.13327 9.56416C3.71012 9.51698 5.31651 9.45627 7 9.45627C8.67691 9.45627 10.2836 9.49433 11.8513 9.55265C12.3724 9.57204 12.8238 9.19057 12.901 8.67492C13.0624 7.59715 13.25 6.47424 13.25 5.32049C13.25 4.17078 13.0637 3.05169 12.9027 1.97737C12.8247 1.45706 12.3659 1.07448 11.8403 1.09656C10.2904 1.16165 8.66902 1.18472 7 1.18472C5.32421 1.18472 3.70266 1.13931 2.14393 1.08479C1.62486 1.06663 1.17661 1.44762 1.09973 1.96128C0.938201 3.04052 0.75 4.16504 0.75 5.32049C0.75 6.47981 0.93946 7.60798 1.10135 8.69052Z"></path><path stroke="currentColor" stroke-linecap="round" d="M4.5083 12.5126H9.49161"></path><path stroke="currentColor" stroke-linecap="round" d="M7 9.45898L7 12.5126"></path></svg>