<svg xmlns="http://www.w3.org/2000/svg" fill="none" viewBox="0 0 14 14"><path stroke="currentColor" d="M1.2762 10.701C1.38712 11.6604 2.15575 12.4236 3.11554 12.5315C4.37009 12.6726 5.66925 12.8187 7 12.8187C8.33076 12.8187 9.62991 12.6726 10.8845 12.5315C11.8443 12.4236 12.6129 11.6604 12.7238 10.701C12.8621 9.50498 13 8.26731 13 7C13 5.73269 12.8621 4.49502 12.7238 3.29902C12.6129 2.33957 11.8443 1.57639 10.8845 1.46847C9.62991 1.32741 8.33076 1.18129 7 1.18129C5.66925 1.18129 4.37009 1.32741 3.11554 1.46847C2.15575 1.57639 1.38712 2.33957 1.2762 3.29902C1.13794 4.49502 1 5.73269 1 7C1 8.26731 1.13794 9.50498 1.2762 10.701Z"></path><path stroke="currentColor" stroke-linecap="round" stroke-linejoin="round" d="M1 7.18129H13"></path><path stroke="currentColor" stroke-linecap="round" stroke-linejoin="round" d="M7.92529 9.83499L10.0853 9.83499"></path><path stroke="currentColor" stroke-linecap="round" stroke-linejoin="round" d="M7.92529 4.28523L10.0853 4.28523"></path><circle cx="4.798" cy="4.285" r=".956" stroke="currentColor"></circle><circle cx="4.798" cy="9.835" r=".956" stroke="currentColor"></circle></svg>