<svg xmlns="http://www.w3.org/2000/svg" fill="none" viewBox="0 0 14 14"><path stroke="currentColor" stroke-linecap="round" d="M0.75 3.74524H13.25"></path><path stroke="currentColor" stroke-linecap="round" stroke-linejoin="round" d="M11.4907 3.74518C11.6357 6.36772 11.6335 8.97003 11.2426 11.5761C11.0982 12.5382 10.2718 13.25 9.29887 13.25H4.69687C3.72398 13.25 2.8975 12.5382 2.75318 11.5761C2.36227 8.97003 2.36001 6.36772 2.50506 3.74518"></path><path stroke="currentColor" stroke-linecap="round" stroke-linejoin="round" d="M4.50195 3.74521V3.24601C4.50195 2.58402 4.76492 1.94916 5.23302 1.48106C5.70111 1.01297 6.33598 0.75 6.99796 0.75C7.65994 0.75 8.29481 1.01297 8.7629 1.48106C9.231 1.94916 9.49397 2.58402 9.49397 3.24601V3.74521"></path><path stroke="currentColor" stroke-linecap="round" d="M6.09454 6.07788C5.45345 6.62419 5.09824 6.96189 4.57811 7.57752C4.52684 7.6382 4.52505 7.72681 4.57408 7.78933C5.05258 8.39945 5.4102 8.7439 6.09454 9.3041"></path><path stroke="currentColor" stroke-linecap="round" stroke-linejoin="round" d="M6.91681 10.9172H7.46829C8.35918 10.9172 9.0814 10.195 9.0814 9.30409C9.0814 8.41319 8.35918 7.69098 7.46829 7.69098H4.57592"></path></svg>