<svg xmlns="http://www.w3.org/2000/svg" fill="none" viewBox="0 0 14 14"><path stroke="currentColor" d="M4.68046 10.8885C4.45438 11.1861 4.06787 11.3015 3.71163 11.1654C2.91474 10.8609 2.29863 10.4774 1.6846 9.9555C1.04081 9.40829 0.708637 8.55993 0.781183 7.7233C0.947171 5.80909 1.45519 3.87795 2.15444 2.45756C2.26602 2.2309 2.46894 2.07342 2.70472 2.00008C2.82376 1.96305 2.93554 1.92672 3.0429 1.89184C3.67325 1.68701 4.15132 1.53166 5.05124 1.57332C5.32095 1.5858 5.56719 1.72805 5.73292 1.94451C6.16347 1.91586 6.59939 1.89737 7.03988 1.89737C7.4545 1.89737 7.86507 1.91375 8.27092 1.93957C8.4366 1.72588 8.68115 1.58571 8.9488 1.57332C9.84872 1.53166 10.3268 1.68701 10.9571 1.89184C11.0645 1.92672 11.1763 1.96305 11.2953 2.00008C11.5311 2.07342 11.734 2.2309 11.8456 2.45756C12.5449 3.87795 13.0529 5.80909 13.2189 7.7233C13.2914 8.55993 12.9592 9.40829 12.3154 9.9555C11.7014 10.4774 11.0853 10.8609 10.2884 11.1654C9.93217 11.3015 9.54566 11.1861 9.31958 10.8885C8.98948 10.4541 8.70487 10.0213 8.4652 9.5847C7.99624 9.61793 7.52078 9.63997 7.03988 9.63997C6.53274 9.63997 6.03166 9.61545 5.53788 9.57916C5.29757 10.0177 5.01195 10.4522 4.68046 10.8885Z"></path><path stroke="currentColor" stroke-linecap="round" d="M4.22656 9.38037C4.97924 9.70586 8.72221 9.74655 9.49536 9.38037"></path><path stroke="currentColor" stroke-linecap="round" d="M4.7157 5.44812L4.7157 6.39428"></path><path stroke="currentColor" stroke-linecap="round" d="M9.28442 5.44812L9.28442 6.39428"></path></svg>