<svg xmlns="http://www.w3.org/2000/svg" fill="none" viewBox="0 0 14 14" id="Browser-Error-404--Streamline-Flex" height="14" width="14">
    <desc>Browser Error 404 Streamline Icon: https://streamlinehq.com</desc>
    <g id="browser-error-404--browser-error-404-window-apps-code">
        <path id="Intersect" stroke="currentColor" stroke-linecap="round" stroke-linejoin="round" d="M0.823242 4.89137c0.027123 -0.39179 0.06178 -0.78466 0.103972 -1.17921C1.08218 2.263 2.24715 1.09745 3.69489 0.935995c2.22376 -0.247993 4.38648 -0.247993 6.61021 0 1.4478 0.161455 2.6127 1.327005 2.7677 2.776165 0.0422 0.39455 0.0769 0.78742 0.104 1.17921M1.48268 11.7512c0.50606 0.7144 1.30342 1.2115 2.21221 1.3128 2.22376 0.248 4.38648 0.248 6.61021 0 0.9088 -0.1013 1.7062 -0.5983 2.2122 -1.3128" stroke-width="1"></path>
        <path id="Intersect_2" stroke="currentColor" stroke-linecap="round" stroke-linejoin="round" d="m13.1013 3.98228 -12.202374 0c0.009309 -0.09024 0.018791 -0.18028 0.028398 -0.27012C1.08229 2.263 2.24726 1.09745 3.695 0.935995c2.22376 -0.247993 4.38648 -0.247993 6.6102 0C11.753 1.09745 12.918 2.263 13.0729 3.71216c0.0096 0.08984 0.0191 0.17988 0.0284 0.27012Z" stroke-width="1"></path>
        <path id="Vector_2" stroke="currentColor" stroke-linecap="round" stroke-linejoin="round" d="M8.35537 8.1559c0 -1.26666 -0.52733 -1.97916 -1.46479 -1.97916 -0.93747 0 -1.4648 0.7125 -1.4648 1.97916 0 1.26667 0.52733 1.9792 1.4648 1.9792 0.93747 0 1.46479 -0.71253 1.46479 -1.9792Z" stroke-width="1"></path>
        <path id="Vector 2599" stroke="currentColor" stroke-linecap="round" stroke-linejoin="round" d="M4.36112 9.14552H1.0625c0 -1.12187 1.45184 -2.96876 2.6389 -2.96876v3.95834" stroke-width="1"></path>
        <path id="Vector 2600" stroke="currentColor" stroke-linecap="round" stroke-linejoin="round" d="M12.9378 9.14552H9.63916c0 -1.12187 1.45184 -2.96876 2.63894 -2.96876v3.95834" stroke-width="1"></path>
    </g>
</svg>