<svg xmlns="http://www.w3.org/2000/svg" fill="none" viewBox="0 0 14 14" strokeWidth="1.5"><path stroke="currentColor" stroke-linecap="round" d="M6.58333 3.25754C5.32518 3.2348 4.07723 3.2635 2.79332 3.34365C1.82935 3.40383 1.06367 4.17231 0.960635 5.13264C0.852307 6.14225 0.75 7.18436 0.75 8.25C0.75 9.31563 0.852307 10.3578 0.960635 11.3674C1.06367 12.3277 1.82945 13.0962 2.79341 13.1564C4.79356 13.2812 6.70644 13.2812 8.70659 13.1564C9.67055 13.0962 10.4363 12.3277 10.5394 11.3674C10.6477 10.3578 10.75 9.31563 10.75 8.25C10.75 7.97055 10.743 7.69272 10.7306 7.41667" /><path stroke="currentColor" stroke-linecap="round" stroke-linejoin="round" d="M7.25011 6.68397L13.0036 0.930377" /><path stroke="currentColor" stroke-linecap="round" stroke-linejoin="round" d="M13.0283 4.98438C13.1893 3.36376 13.1894 2.47364 13.0283 0.923794C11.4785 0.762746 10.5884 0.762837 8.96774 0.923793" /></svg>