<svg xmlns="http://www.w3.org/2000/svg" fill="none" viewBox="0 0 14 14"><path stroke="currentColor" stroke-linejoin="round" d="M3.84415 12.7994C2.4618 12.6453 1.34944 11.5329 1.20147 10.1499C1.09224 9.12893 1 8.08074 1 7.01211C1 5.94348 1.09224 4.8953 1.20147 3.87433C1.34944 2.4913 2.4618 1.37894 3.84415 1.22486C4.87092 1.11041 5.92515 1.01212 7 1.01212C8.07485 1.01212 9.12908 1.11041 10.1558 1.22486C11.5382 1.37894 12.6506 2.4913 12.7985 3.87433C12.9078 4.8953 13 5.94348 13 7.01211C13 8.08074 12.9078 9.12893 12.7985 10.1499C12.6506 11.5329 11.5382 12.6453 10.1558 12.7994C9.59181 12.8622 9.01948 12.9202 8.44 12.9597V9.89212H10.36V7.49212H8.44V6.53212C8.44 6.00192 8.86981 5.57212 9.4 5.57212H10.36V4.13212C10.36 3.60192 9.93019 3.17212 9.4 3.17212H8.92C7.32942 3.17212 6.04 4.46154 6.04 6.05212V7.49212H4.12V9.89212H6.04V12.9879C5.29614 12.9518 4.56341 12.8795 3.84415 12.7994Z"></path></svg>