<svg xmlns="http://www.w3.org/2000/svg" fill="none" viewBox="0 0 14 14"><path stroke="currentColor" stroke-linejoin="round" d="M5.82724 1.97248C6.27838 0.880431 7.79025 0.845028 8.24358 1.93617C8.55746 2.69167 8.79696 3.46965 9.03817 4.48616C10.1041 4.47529 10.9374 4.49834 11.7785 4.57392C12.9609 4.68018 13.4381 6.11796 12.5176 6.86764C11.9973 7.29138 11.4386 7.68331 10.7383 8.12284C10.5411 8.24655 10.4525 8.4886 10.5239 8.71008C10.8508 9.72346 11.0715 10.546 11.2432 11.409C11.4716 12.5566 10.2627 13.4322 9.28006 12.7967C8.52669 12.3096 7.84233 11.7488 7.00007 10.9488C6.16542 11.7172 5.48443 12.2624 4.73972 12.7465C3.75143 13.3891 2.51644 12.5229 2.74589 11.3666C2.91172 10.5309 3.13283 9.71801 3.46932 8.71483C3.54429 8.49132 3.45559 8.24503 3.25556 8.12025C2.53398 7.67015 1.96091 7.2692 1.42325 6.82733C0.517577 6.08302 0.979928 4.66432 2.14723 4.55646C3.00155 4.47751 3.85458 4.46077 4.96197 4.48616C5.25355 3.49433 5.51533 2.72751 5.82724 1.97248Z"></path></svg>