<svg xmlns="http://www.w3.org/2000/svg" fill="none" viewBox="0 0 14 14"><path stroke="currentColor" stroke-linecap="round" stroke-linejoin="round" d="M3.02647 7.00077C3.11545 5.2674 3.44668 3.00652 4.28529 1.34614C4.41361 1.09209 4.65928 0.922206 4.94184 0.887989C5.48308 0.822448 6.40028 0.75 7.61293 0.75C8.49073 0.75 9.26561 0.815361 9.86588 0.89426C10.4709 0.973787 10.7877 1.60391 10.5463 2.16437L9.59436 4.37402C10.4282 4.40494 11.0787 4.47079 11.6836 4.59406C12.2391 4.70728 12.5148 5.30019 12.2307 5.79077C11.1711 7.62062 8.67008 10.6347 5.05508 13.25C5.05508 11.295 5.3984 9.94948 6 8H4C3.44772 8 2.99816 7.55233 3.02647 7.00077Z"></path></svg>