<svg xmlns="http://www.w3.org/2000/svg" fill="none" viewBox="0 0 14 14"><path stroke="currentColor" stroke-linecap="round" stroke-linejoin="round" d="M13.1009 7.46365C12.8673 5.71368 11.6529 3.15893 11.1246 2.76758C9.87352 1.84082 4.15755 1.84082 2.90645 2.76758C2.37814 3.15893 1.19088 5.90457 0.930188 7.46365C0.556812 9.69663 0.795494 11.5531 3.02152 11.5531C4.0077 10.7548 4.48024 9.95775 4.72618 9.34208H9.30489C9.55083 9.95775 10.0234 10.7548 11.0095 11.5531C13.2356 11.5531 13.4004 9.70773 13.1009 7.46365Z"></path><path stroke="currentColor" stroke-linecap="round" stroke-linejoin="round" d="M4.29785 7.22925L4.29785 5.4997"></path><path stroke="currentColor" stroke-linecap="round" stroke-linejoin="round" d="M3.43311 6.3645L5.16265 6.3645"></path><path stroke="currentColor" stroke-linecap="round" stroke-linejoin="round" d="M8.90552 7.09595L8.90552 6.91826"></path><path stroke="currentColor" stroke-linecap="round" stroke-linejoin="round" d="M10.2478 5.81079L10.2478 5.63311"></path><path stroke="currentColor" stroke-linecap="round" stroke-linejoin="round" d="M6.40527 3.94385H7.59541"></path></svg>