<svg xmlns="http://www.w3.org/2000/svg" fill="none" viewBox="0 0 14 14"><path stroke="currentColor" stroke-linecap="round" stroke-linejoin="round" d="M3.5 9.25L3.5 4.75"></path><path stroke="currentColor" stroke-linecap="round" stroke-linejoin="round" d="M3.5 4.75C4.78 4.75 5.5 4.03 5.5 2.75C5.5 1.47 4.78 0.75 3.5 0.75C2.22 0.75 1.5 1.47 1.5 2.75C1.5 4.03 2.22 4.75 3.5 4.75Z"></path><path stroke="currentColor" stroke-linecap="round" stroke-linejoin="round" d="M3.5 13.25C4.78 13.25 5.5 12.53 5.5 11.25C5.5 9.97 4.78 9.25 3.5 9.25C2.22 9.25 1.5 9.97 1.5 11.25C1.5 12.53 2.22 13.25 3.5 13.25Z"></path><path stroke="currentColor" stroke-linecap="round" stroke-linejoin="round" d="M10.5 5.5C11.78 5.5 12.5 4.78 12.5 3.5C12.5 2.22 11.78 1.5 10.5 1.5C9.22 1.5 8.5 2.22 8.5 3.5C8.5 4.78 9.22 5.5 10.5 5.5Z"></path><path stroke="currentColor" d="M3.5 8.5C3.5 8.16667 3.8 7.5 5 7.5C6.2 7.5 7.66667 7.5 9 7.5C9.5 7.5 10.5 7.3 10.5 6.5C10.5 5.7 10.5 5.16667 10.5 5"></path></svg>