<svg xmlns="http://www.w3.org/2000/svg" fill="none" viewBox="0 0 14 14"><path stroke="currentColor" stroke-linecap="round" stroke-linejoin="round" d="M0.75 0.75V11.25C0.75 12.3546 1.64543 13.25 2.75 13.25H13.25"></path><path stroke="currentColor" stroke-linecap="round" stroke-linejoin="round" d="M4.5 7.25C5.62 7.25 6.25 6.62 6.25 5.5C6.25 4.38 5.62 3.75 4.5 3.75C3.38 3.75 2.75 4.38 2.75 5.5C2.75 6.62 3.38 7.25 4.5 7.25Z"></path><path stroke="currentColor" stroke-linecap="round" stroke-linejoin="round" d="M11.5 4.25C12.62 4.25 13.25 3.62 13.25 2.5C13.25 1.38 12.62 0.75 11.5 0.75C10.38 0.75 9.75 1.38 9.75 2.5C9.75 3.62 10.38 4.25 11.5 4.25Z"></path><path stroke="currentColor" stroke-linecap="round" stroke-linejoin="round" d="M9 10.75C10.12 10.75 10.75 10.12 10.75 9C10.75 7.88 10.12 7.25 9 7.25C7.88 7.25 7.25 7.88 7.25 9C7.25 10.12 7.88 10.75 9 10.75Z"></path><path stroke="currentColor" stroke-linecap="round" stroke-linejoin="round" d="M3.3125 6.90625L0.75 9.76563"></path><path stroke="currentColor" stroke-linecap="round" stroke-linejoin="round" d="M11.1867 4.22778L10.1875 7.59375"></path><path stroke="currentColor" stroke-linecap="round" stroke-linejoin="round" d="M6.11328 6.29236L7.55864 7.88308"></path></svg>