<svg xmlns="http://www.w3.org/2000/svg" fill="none" viewBox="0 0 14 14"><path stroke="currentColor" stroke-linecap="round" stroke-linejoin="round" d="M0.75 8.47021L6.24259 2.09881C6.64151 1.63606 7.35849 1.63606 7.75741 2.09881L13.25 8.47021"></path><path stroke="currentColor" stroke-linejoin="round" d="M2.67315 6.24467L6.24127 2.08766C6.64032 1.62274 7.35983 1.62274 7.75888 2.08766L11.327 6.24467L11.5308 7.69861C11.7145 9.0088 11.7055 10.3388 11.5041 11.6464V11.6464C11.4022 12.3081 10.8328 12.7965 10.1634 12.7965H3.83679C3.16731 12.7965 2.59794 12.3081 2.49605 11.6464V11.6464C2.29469 10.3388 2.28569 9.0088 2.46935 7.69861L2.67315 6.24467Z"></path><path stroke="currentColor" stroke-linecap="round" stroke-linejoin="round" d="M6.99989 8.08887C7.92088 8.08887 8.66749 8.83548 8.66749 9.75648V12.7964H5.33228V9.75648C5.33228 8.83548 6.07889 8.08887 6.99989 8.08887Z"></path></svg>