<svg xmlns="http://www.w3.org/2000/svg" fill="none" viewBox="0 0 14 14"><path stroke="currentColor" stroke-linecap="round" stroke-linejoin="round" d="M2.58057 2.58057L2.94885 2.94885"></path><path stroke="currentColor" stroke-linecap="round" stroke-linejoin="round" d="M7 0.75L7 1.27083"></path><path stroke="currentColor" stroke-linecap="round" stroke-linejoin="round" d="M13.25 7L12.7292 7"></path><path stroke="currentColor" stroke-linecap="round" stroke-linejoin="round" d="M1.27075 7L0.749919 7"></path><path stroke="currentColor" stroke-linecap="round" stroke-linejoin="round" d="M11.4194 2.58057L11.0511 2.94885"></path><path stroke="currentColor" stroke-linecap="round" stroke-linejoin="round" d="M9.89563 5.5277C10.1953 6.0446 10.3512 6.6323 10.3471 7.22978C10.3445 7.8496 10.1691 8.45641 9.84058 8.98202C9.73088 9.15753 9.62812 9.31139 9.53359 9.45292C9.19304 9.96279 8.95944 10.3125 8.89416 10.9375H5.10643C5.04237 10.2921 4.80545 9.94143 4.43616 9.39492C4.36145 9.28435 4.28132 9.16577 4.19611 9.0351C3.86973 8.53463 3.68326 7.95591 3.65606 7.35903C3.62886 6.76216 3.76192 6.16888 4.04143 5.64079C4.32094 5.11271 4.73671 4.66906 5.24557 4.35592C5.75443 4.04277 6.33784 3.87154 6.93522 3.86C7.53261 3.84846 8.12219 3.99703 8.64277 4.29029C9.16335 4.58355 9.59594 5.01081 9.89563 5.5277Z"></path><path stroke="currentColor" stroke-linecap="round" stroke-linejoin="round" d="M8.15625 13.25H5.84379"></path></svg>