<svg xmlns="http://www.w3.org/2000/svg" fill="none" viewBox="0 0 14 14"><path stroke="currentColor" stroke-linecap="round" stroke-linejoin="round" d="M7 4.12878C5.74024 5.16092 5.11076 5.79027 4.12874 7.00005C5.11076 8.20983 5.74024 8.83918 7 9.87131"></path><path stroke="currentColor" stroke-linecap="round" d="M10.4819 4.13496C10.4654 3.61546 10.4445 3.1021 10.4193 2.59563C10.3736 1.67654 9.59918 0.921715 8.58695 0.849664C7.66706 0.784187 6.71957 0.75 5.75183 0.75C4.78409 0.75 3.83659 0.784187 2.9167 0.849665C1.90446 0.921717 1.13009 1.67654 1.08437 2.59563C1.01375 4.01513 0.976562 5.48869 0.976562 7C0.976562 8.5113 1.01375 9.98487 1.08437 11.4044C1.13009 12.3235 1.90446 13.0783 2.9167 13.1503C3.83659 13.2158 4.78409 13.25 5.75183 13.25C6.71957 13.25 7.66706 13.2158 8.58695 13.1503C9.59918 13.0783 10.3736 12.3235 10.4193 11.4044C10.4445 10.8979 10.4654 10.3846 10.4819 9.86507"></path><path stroke="currentColor" stroke-linecap="round" stroke-linejoin="round" d="M13.0234 7L4.16064 7"></path></svg>