<svg xmlns="http://www.w3.org/2000/svg" fill="none" viewBox="0 0 14 14"><path stroke="currentColor" stroke-linecap="round" stroke-linejoin="round" d="M5.88062 12.7911C7.12056 12.7911 8.3682 12.7439 9.58741 12.6689C10.1347 12.6352 10.6763 12.5959 11.2089 12.5526C11.2864 12.5464 11.3637 12.54 11.4408 12.5335V12.5335C12.3701 12.4558 13.1025 11.7122 13.1535 10.781C13.247 9.07773 13.2828 7.25164 13.2918 5.46615C13.2946 4.91387 12.8465 4.46616 12.2942 4.46616H11.6798"></path><path stroke="currentColor" d="M0.924315 10.6774C1.01269 11.6368 1.76162 12.4191 2.71583 12.552C3.60739 12.6761 4.52601 12.7911 5.46444 12.7911C6.69343 12.7911 7.88843 12.7672 9.03317 12.6783C9.51344 12.641 9.8866 12.2529 9.92743 11.7729C10.0557 10.2653 10.2231 8.56034 10.2231 7C10.2231 5.44611 10.057 3.93699 9.92902 2.49502C9.88642 2.0152 9.51332 1.62864 9.03606 1.56329C7.89044 1.40642 6.69446 1.20889 5.46444 1.20889C4.23442 1.20889 3.03844 1.40642 1.89282 1.56329C1.41557 1.62864 1.04246 2.0152 0.999867 2.49502C0.871853 3.93699 0.705811 5.44611 0.705811 7C0.705811 8.25917 0.81484 9.48894 0.924315 10.6774Z"></path><path stroke="currentColor" d="M3.44183 6.46026C3.47617 6.69818 3.67083 6.88328 3.91029 6.90441C4.42264 6.94962 4.95678 7.00461 5.50577 7.00461C6.05475 7.00461 6.5889 6.94962 7.10125 6.90441C7.34071 6.88328 7.53537 6.69818 7.56971 6.46026C7.62299 6.09113 7.67999 5.70793 7.67999 5.31491C7.67999 4.9219 7.62299 4.5387 7.56971 4.16957C7.53537 3.93165 7.34071 3.74655 7.10125 3.72542C6.5889 3.68021 6.05475 3.62521 5.50577 3.62521C4.95678 3.62521 4.42264 3.68021 3.91029 3.72542C3.67083 3.74655 3.47617 3.93165 3.44183 4.16957C3.38855 4.5387 3.33154 4.9219 3.33154 5.31491C3.33154 5.70793 3.38855 6.09113 3.44183 6.46026Z"></path><path stroke="currentColor" stroke-linecap="round" stroke-linejoin="round" d="M7.31348 9.4697H3.64808"></path></svg>