<svg xmlns="http://www.w3.org/2000/svg" fill="none" viewBox="0 0 14 14"><path stroke="currentColor" stroke-linecap="round" stroke-linejoin="round" d="M13.0647 8.27159C13.0644 7.94419 12.9779 7.62264 12.814 7.33923C12.6501 7.05582 12.4145 6.82052 12.1308 6.65697C11.8472 6.49341 11.5256 6.40736 11.1982 6.40744C10.8708 6.40752 10.7186 6.49423 10.4351 6.65793L10.2656 4.4854C10.2656 4.23794 10.1673 4.00062 9.99233 3.82565C9.81735 3.65067 9.58003 3.55237 9.33257 3.55237L7.42075 3.3468C7.58527 3.06318 7.67503 2.94681 7.67553 2.61893C7.67603 2.29104 7.59013 1.96881 7.42648 1.68468C7.26283 1.40056 7.0272 1.16457 6.74333 1.00048C6.45946 0.836394 6.13736 0.75 5.80947 0.75C5.48159 0.75 5.15949 0.836394 4.87561 1.00048C4.59174 1.16457 4.35611 1.40056 4.19246 1.68468C4.02881 1.96881 3.94291 2.29104 3.94341 2.61893C3.94392 2.94681 4.02794 3.06318 4.19246 3.3468L1.86833 3.55237C1.62088 3.55237 1.38356 3.65067 1.20858 3.82565C1.0336 4.00062 0.935303 4.23794 0.935303 4.4854L0.964417 5.54973C0.977239 6.01847 1.43706 6.35122 1.89283 6.46151C2.22301 6.5414 2.53145 6.70816 2.77538 6.95208C3.12533 7.30204 3.32193 7.77668 3.32193 8.27159C3.32193 8.7665 3.12533 9.24114 2.77538 9.59109C2.53145 9.83501 2.22301 10.0018 1.89283 10.0817C1.43679 10.192 0.976547 10.5244 0.962974 10.9934L0.935303 11.9496C0.935303 12.1971 1.0336 12.4344 1.20858 12.6094C2.56861 13.5085 8.81541 13.4173 9.99233 12.6094C10.1673 12.4344 10.2656 12.1971 10.2656 11.9496L10.4351 9.88621C10.7186 10.0499 10.8708 10.1356 11.1982 10.1357C11.5256 10.1358 11.8472 10.0498 12.1308 9.88621C12.4145 9.72265 12.6501 9.48736 12.814 9.20395C12.9779 8.92054 13.0644 8.59899 13.0647 8.27159Z"></path></svg>