<svg xmlns="http://www.w3.org/2000/svg" fill="none" viewBox="0 0 14 14"><path stroke="currentColor" stroke-linecap="round" stroke-linejoin="round" d="M3.69284 7.76826L0.853577 6.19842C1.9851 4.02852 4.21321 3.50341 5.93235 3.98056"></path><path stroke="currentColor" stroke-linecap="round" stroke-linejoin="round" d="M6.23532 10.3108L7.80515 13.15C9.96772 12.0169 10.4947 9.7945 10.0219 8.07658"></path><path stroke="currentColor" stroke-linecap="round" stroke-linejoin="round" d="M3.69287 7.75867L3.71673 7.7734C4.74535 8.40828 5.61019 9.27625 6.24135 10.3072V10.3072C8.28014 9.08581 10.5978 7.90293 11.6557 6.8066C13.9445 4.51777 12.6174 1.38265 12.6174 1.38265C12.6174 1.38265 9.48226 0.0555198 7.19343 2.34435C6.0971 3.40221 4.9046 5.7295 3.69287 7.75867Z"></path><path stroke="currentColor" stroke-linecap="round" stroke-linejoin="round" d="M3.10838 12.6305C2.88371 12.8474 2.2895 13.0534 1.72489 13.2103C1.14369 13.3719 0.627953 12.8562 0.789531 12.275C0.946497 11.7104 1.15245 11.1162 1.36938 10.8915C1.48202 10.7706 1.61786 10.6736 1.7688 10.6064C1.91973 10.5391 2.08266 10.503 2.24787 10.5001C2.41308 10.4972 2.57718 10.5275 2.73039 10.5894C2.8836 10.6513 3.02278 10.7434 3.13962 10.8603C3.25646 10.9771 3.34856 11.1163 3.41045 11.2695C3.47233 11.4227 3.50272 11.5868 3.49981 11.752C3.49689 11.9172 3.46073 12.0802 3.39348 12.2311C3.32623 12.382 3.22927 12.5179 3.10838 12.6305Z"></path><path stroke="currentColor" stroke-linecap="round" stroke-linejoin="round" d="M9.57324 4.42676L9.9268 4.0732"></path></svg>