<svg xmlns="http://www.w3.org/2000/svg" fill="none" viewBox="0 0 14 14" id="Sharing-Data--Streamline-Flex">
    <desc>Sharing Data Streamline Icon: https://streamlinehq.com</desc>
    <g id="sharing-data--sharing-data-signal-wave-device-connection">
        <path id="Vector" stroke="currentColor" stroke-linecap="round" stroke-linejoin="round" d="M6.95296 8.44598c-0.60774 0 -2.64528 1.79662 -4.10169 3.62662 -0.48086 0.6042 -0.02632 1.4274 0.74588 1.4274l6.71165 0c0.7722 0 1.2267 -0.8232 0.7458 -1.4274 -1.45636 -1.83 -3.4939 -3.62662 -4.10164 -3.62662Z" stroke-width="1"></path>
        <path id="Vector_2" stroke="currentColor" stroke-linecap="round" stroke-linejoin="round" d="M1.26114 10.5201C0.760138 9.55844 0.5 8.37547 0.5 6.99047 0.5 2.83657 2.84 0.5 6.99999 0.5 11.16 0.5 13.5 2.83657 13.5 6.99047c0 1.385 -0.2602 2.56797 -0.7612 3.52963" stroke-width="1"></path>
        <path id="Vector_3" stroke="currentColor" stroke-linecap="round" stroke-linejoin="round" d="M3.17935 8.76625c-0.21114 -0.53943 -0.31997 -1.16992 -0.31997 -1.88493 0 -2.64612 1.49062 -4.13455 4.14061 -4.13455 2.65 0 4.14061 1.48843 4.14061 4.13455 0 0.71501 -0.1088 1.3455 -0.32 1.88493" stroke-width="1"></path>
        <path id="Vector_4" stroke="currentColor" stroke-linecap="round" stroke-linejoin="round" d="M8.93749 6.92801C8.93749 5.68982 8.24 4.99335 7 4.99335c-1.24 0 -1.9375 0.69647 -1.9375 1.93466" stroke-width="1"></path>
    </g>
</svg>