<svg xmlns="http://www.w3.org/2000/svg" fill="none" viewBox="0 0 14 14"><path stroke="currentColor" stroke-linecap="round" stroke-linejoin="round" d="M11.7106 2.99474C11.4829 2.53601 11.2596 2.08648 11.0695 1.6207C10.9188 1.25146 10.5827 0.979191 10.1822 0.943794C9.13131 0.850895 8.25688 0.786926 7.00002 0.786926C5.73161 0.786926 4.85268 0.852076 3.78877 0.946364C3.40311 0.980542 3.07483 1.23421 2.9212 1.58633C2.75039 1.97786 2.55784 2.36938 2.36265 2.76627C1.96701 3.57075 1.5605 4.39733 1.302 5.29101C1.47206 5.02222 1.76291 4.83789 2.09673 4.81234C2.39145 4.78978 2.6888 4.76562 2.98862 4.74127C4.28416 4.63601 5.62575 4.52702 6.99996 4.52702C8.37417 4.52702 9.71576 4.63601 11.0113 4.74127C11.3111 4.76562 11.6085 4.78978 11.9032 4.81234C12.2361 4.83782 12.5263 5.02121 12.6965 5.2888C12.4278 4.43887 12.0637 3.70576 11.7106 2.99474Z"></path><path stroke="currentColor" stroke-linecap="round" stroke-linejoin="round" d="M7 4.52704L7 0.786946"></path><path stroke="currentColor" stroke-linejoin="round" d="M1.15587 12.0612C1.22983 12.5299 1.61937 12.8912 2.09681 12.9278C3.66505 13.0478 5.30781 13.2131 7.00004 13.2131C8.69227 13.2131 10.335 13.0478 11.9033 12.9278C12.3807 12.8912 12.7703 12.5299 12.8442 12.0612C13.0059 11.0367 13.198 9.96827 13.198 8.87006C13.198 7.77185 13.0059 6.70347 12.8442 5.67894C12.7703 5.21023 12.3807 4.84891 11.9033 4.81236C10.335 4.69232 8.69227 4.52704 7.00004 4.52704C5.30781 4.52704 3.66505 4.69232 2.09681 4.81236C1.61937 4.84891 1.22983 5.21023 1.15586 5.67894C0.99419 6.70347 0.802124 7.77185 0.802124 8.87006C0.802124 9.96827 0.99419 11.0367 1.15587 12.0612Z"></path><path stroke="currentColor" stroke-linecap="round" stroke-linejoin="round" d="M8.69263 10.5746H10.7134"></path></svg>