<svg xmlns="http://www.w3.org/2000/svg" fill="none" viewBox="0 0 14 14"><path stroke="currentColor" stroke-linecap="round" stroke-linejoin="round" d="M4.82872 10.0856C4.51879 10.0806 4.21446 10.0023 3.94069 9.85691C2.99289 9.36602 2.20032 8.62117 1.65159 7.70564C1.10286 6.79011 0.8196 5.74 0.833488 4.67271L0.863159 2.07249C2.11535 1.41748 3.51057 1.08361 4.92362 1.10083C6.33667 1.11805 7.72334 1.48583 8.95919 2.17116L8.93484 4.16376"></path><path stroke="currentColor" stroke-linecap="round" stroke-linejoin="round" d="M8.24858 13.0206C7.94624 13.089 7.63201 13.0846 7.33165 13.0081C7.0313 12.9315 6.75337 12.7848 6.52067 12.58C5.71222 11.8831 5.11357 10.975 4.79164 9.95734C4.4697 8.93967 4.43719 7.85251 4.69772 6.81742L5.32841 4.29466C6.6982 3.94726 8.13281 3.94538 9.50351 4.28918C10.8742 4.63299 12.1381 5.31173 13.1818 6.26448L12.5511 8.7786C12.2968 9.81463 11.76 10.7597 11.0004 11.5087C10.2407 12.2577 9.28811 12.7811 8.24858 13.0206Z"></path><path stroke="currentColor" stroke-linecap="round" stroke-linejoin="round" d="M9.64184 8.17147C9.96075 8.02893 10.3991 8.09821 10.6309 8.21423"></path><path stroke="currentColor" stroke-linecap="round" stroke-linejoin="round" d="M7.61284 7.63825C7.40669 7.33219 6.99638 7.22809 6.74137 7.26779"></path></svg>