<svg xmlns="http://www.w3.org/2000/svg" fill="none" viewBox="0 0 14 14"><path stroke="currentColor" stroke-linecap="round" stroke-linejoin="round" d="M4.11253 2.30241H3.5V8.02382L6.51906 12.3209C6.7631 12.6683 7.16102 12.875 7.58554 12.875C8.37719 12.875 8.98604 12.1751 8.87637 11.391L8.64883 9.76429H10.6393C11.5095 9.76429 13.25 8.89406 13.25 7.15359C13.25 5.41312 11.5 1.43218 9.64883 1.43218C7.21217 1.43218 5.12781 2.01233 4.11253 2.30241Z"></path><path stroke="currentColor" stroke-linejoin="round" d="M0.75 8.25C0.75 9.00939 1.36561 9.625 2.125 9.625V9.625C2.88439 9.625 3.5 9.00939 3.5 8.25V2.5C3.5 1.74061 2.88439 1.125 2.125 1.125V1.125C1.36561 1.125 0.75 1.74061 0.75 2.5V8.25Z"></path></svg>