<svg xmlns="http://www.w3.org/2000/svg" fill="none" viewBox="0 0 14 14"><path stroke="currentColor" stroke-linecap="round" stroke-linejoin="round" d="M4.13069 9.48463C3.4725 9.99879 2.71704 10.376 1.90926 10.5939C1.82028 10.626 1.74341 10.6846 1.68909 10.7616C1.63476 10.8387 1.60562 10.9306 1.60562 11.0247C1.60562 11.1188 1.63476 11.2107 1.68909 11.2878C1.74341 11.3649 1.82028 11.4234 1.90926 11.4556C8.2878 14.059 12.3435 10.0347 11.726 5.57027L13 3.86212L11.0344 3.41592C10.7797 2.46558 9.99788 1.91119 9.12274 1.7524C8.2476 1.59362 7.07065 1.75241 6.37294 2.80363C5.94717 3.44513 5.81362 4.36738 6.23208 5.57019C6.23208 5.57019 4.63765 5.97363 1.92769 3.32433C1.86501 3.26278 1.78589 3.22038 1.69973 3.20217C1.61356 3.18395 1.52396 3.19067 1.44151 3.22154C1.35907 3.25241 1.28725 3.30612 1.23456 3.37633C1.18187 3.44654 1.15051 3.53029 1.1442 3.61768C0.857656 4.7891 1.00105 6.02377 1.54858 7.09938C2.0961 8.17499 3.01176 9.02084 4.13069 9.48463Z"></path></svg>