<svg xmlns="http://www.w3.org/2000/svg" fill="none" viewBox="0 0 14 14"><path fill="transparent" d="M3.71266 13.0284C4.78221 13.1476 5.88037 13.25 7 13.25C8.11963 13.25 9.21779 13.1476 10.2873 13.0284C11.7273 12.8679 12.886 11.7092 13.0401 10.2685C13.1539 9.20502 13.25 8.11315 13.25 7C13.25 5.98032 13.1694 4.97852 13.0684 4H0.931622C0.830623 4.97852 0.75 5.98032 0.75 7C0.75 8.11315 0.846084 9.20502 0.959867 10.2685C1.114 11.7092 2.2727 12.8679 3.71266 13.0284Z"></path><path class="fill-purple-200" d="M13.0684 4L0.931641 4C0.9409 3.91029 0.95033 3.82078 0.959886 3.73147C1.11402 2.29082 2.27272 1.13211 3.71267 0.971609C4.78222 0.852392 5.88039 0.75 7.00002 0.75C8.11965 0.75 9.21781 0.852392 10.2874 0.971609C11.7273 1.13211 12.886 2.29082 13.0402 3.73147C13.0497 3.82078 13.0591 3.91029 13.0684 4Z"></path><path class="fill-purple-200" d="M7.00004 6.84152C5.61083 5.13811 4.14406 6.34846 4.12476 7.65318C4.12476 9.59556 6.45032 11.1899 7.00004 11.1899C7.54976 11.1899 9.87534 9.59556 9.87534 7.65318C9.85604 6.34846 8.38925 5.13811 7.00004 6.84152Z"></path><path class="stroke-purple-600" stroke-linecap="round" stroke-linejoin="round" d="M7.00004 6.84152C5.61083 5.13811 4.14406 6.34846 4.12476 7.65318C4.12476 9.59556 6.45032 11.1899 7.00004 11.1899C7.54976 11.1899 9.87534 9.59556 9.87534 7.65318C9.85604 6.34846 8.38925 5.13811 7.00004 6.84152Z"></path><path class="stroke-purple-600" d="M0.959867 10.2685C1.114 11.7092 2.2727 12.8679 3.71266 13.0284C4.78221 13.1476 5.88037 13.25 7 13.25C8.11963 13.25 9.21779 13.1476 10.2873 13.0284C11.7273 12.8679 12.886 11.7092 13.0401 10.2685C13.1539 9.20502 13.25 8.11315 13.25 7C13.25 5.88684 13.1539 4.79498 13.0401 3.73147C12.886 2.29082 11.7273 1.13211 10.2873 0.971609C9.21779 0.852392 8.11963 0.75 7 0.75C5.88037 0.75 4.78221 0.852392 3.71266 0.971609C2.2727 1.13211 1.114 2.29082 0.959867 3.73147C0.846083 4.79498 0.75 5.88684 0.75 7C0.75 8.11315 0.846084 9.20502 0.959867 10.2685Z"></path><path class="stroke-purple-600" stroke-linecap="round" stroke-linejoin="round" stroke-width="1" d="M13.0684 4L0.931641 4C0.9409 3.91029 0.95033 3.82078 0.959886 3.73147C1.11402 2.29082 2.27272 1.13211 3.71267 0.971609C4.78222 0.852392 5.88039 0.75 7.00002 0.75C8.11965 0.75 9.21781 0.852392 10.2874 0.971609C11.7273 1.13211 12.886 2.29082 13.0402 3.73147C13.0497 3.82078 13.0591 3.91029 13.0684 4Z"></path></svg>