<svg xmlns="http://www.w3.org/2000/svg" fill="none" viewBox="0 0 14 14"><path class="fill-purple-200" fill-rule="evenodd" d="M8.93481 4.16698C7.73951 3.95243 6.50982 3.99503 5.32836 4.29466L4.69767 6.81742C4.43713 7.85251 4.46965 8.93967 4.79158 9.95734C4.80518 10.0003 4.81928 10.0431 4.83386 10.0857C4.83215 10.0857 4.83044 10.0857 4.82873 10.0856C4.5188 10.0806 4.21447 10.0023 3.9407 9.85691C2.9929 9.36602 2.20032 8.62117 1.65159 7.70564C1.10286 6.79011 0.819607 5.74 0.833495 4.67271L0.863166 2.07249C2.11535 1.41748 3.51058 1.08361 4.92363 1.10083C6.33668 1.11805 7.72335 1.48583 8.9592 2.17116L8.93481 4.16698Z" clip-rule="evenodd"></path><path fill="transparent" d="M8.24858 13.0206C7.94624 13.089 7.63201 13.0846 7.33165 13.0081C7.0313 12.9315 6.75337 12.7848 6.52067 12.58C5.71222 11.8831 5.11357 10.975 4.79164 9.95734C4.4697 8.93967 4.43719 7.85251 4.69772 6.81742L5.32841 4.29466C6.6982 3.94726 8.13281 3.94538 9.50351 4.28918C10.8742 4.63299 12.1381 5.31173 13.1818 6.26448L12.5511 8.7786C12.2968 9.81463 11.76 10.7597 11.0004 11.5087C10.2407 12.2577 9.28811 12.7811 8.24858 13.0206Z"></path><path class="stroke-purple-600" stroke-linecap="round" stroke-linejoin="round" d="M8.24858 13.0206C7.94624 13.089 7.63201 13.0846 7.33165 13.0081C7.0313 12.9315 6.75337 12.7848 6.52067 12.58C5.71222 11.8831 5.11357 10.975 4.79164 9.95734C4.4697 8.93967 4.43719 7.85251 4.69772 6.81742L5.32841 4.29466C6.6982 3.94726 8.13281 3.94538 9.50351 4.28918C10.8742 4.63299 12.1381 5.31173 13.1818 6.26448L12.5511 8.7786C12.2968 9.81463 11.76 10.7597 11.0004 11.5087C10.2407 12.2577 9.28811 12.7811 8.24858 13.0206Z"></path><path class="stroke-purple-600" stroke-linecap="round" stroke-linejoin="round" d="M9.64196 8.17147C9.96087 8.02893 10.3992 8.09821 10.631 8.21423"></path><path class="stroke-purple-600" stroke-linecap="round" stroke-linejoin="round" d="M7.61284 7.63825C7.40669 7.33219 6.99638 7.22809 6.74137 7.26779"></path><path class="stroke-purple-600" stroke-linecap="round" stroke-linejoin="round" d="M4.8286 10.0856C4.51867 10.0806 4.21434 10.0023 3.94057 9.85691C2.99277 9.36602 2.2002 8.62117 1.65146 7.70564C1.10273 6.79011 0.819478 5.74 0.833366 4.67271L0.863037 2.07249C2.11523 1.41748 3.51045 1.08361 4.9235 1.10083C6.33655 1.11805 7.72322 1.48583 8.95907 2.17116L8.93472 4.16376"></path></svg>