<svg xmlns="http://www.w3.org/2000/svg" fill="none" viewBox="0 0 14 14"><path class="fill-purple-200" d="M9.12049 5.03661C8.3015 4.21762 8.25689 3.34087 9.93937 1.65839C10.0057 1.59209 9.99275 1.48064 9.91074 1.43518C8.39861 0.597063 6.92276 0.790578 5.67846 2.03488C4.51052 3.20282 4.26835 4.57477 4.93613 5.98924C4.96074 6.04136 4.94723 6.10379 4.90422 6.14216C4.3198 6.66355 3.7227 7.20414 3.14207 7.78477C2.56144 8.3654 2.02085 8.9625 1.49946 9.54691C0.878206 10.2433 0.744803 11.3275 1.32704 12.0568C1.41819 12.171 1.51491 12.2813 1.61919 12.3856C1.72348 12.4899 1.83382 12.5866 1.948 12.6778C2.6773 13.26 3.76154 13.1266 4.45789 12.5053C5.04231 11.984 5.6394 11.4434 6.22003 10.8627C6.80066 10.2821 7.34125 9.68501 7.86264 9.10059C7.90102 9.05758 7.96345 9.04406 8.01557 9.06867C9.43004 9.73644 10.802 9.49427 11.9699 8.32633C13.1741 7.1221 13.3942 5.70099 12.6474 4.24C12.6186 4.1838 12.5433 4.1731 12.4987 4.21773C10.8162 5.90021 9.93948 5.85559 9.12049 5.03661Z"></path><path class="stroke-purple-600" stroke-linecap="round" stroke-linejoin="round" d="M9.12061 5.03661C8.30163 4.21762 8.25701 3.34087 9.93949 1.65839C10.0058 1.59209 9.99288 1.48064 9.91087 1.43518C8.39873 0.597063 6.92288 0.790578 5.67858 2.03488C4.51064 3.20282 4.26848 4.57477 4.93626 5.98924C4.96086 6.04136 4.94735 6.10379 4.90434 6.14216C4.31992 6.66355 3.72283 7.20414 3.1422 7.78477C2.56157 8.3654 2.02098 8.9625 1.49958 9.54691C0.878328 10.2433 0.744926 11.3275 1.32716 12.0568C1.41832 12.171 1.51503 12.2813 1.61932 12.3856C1.7236 12.4899 1.83394 12.5866 1.94812 12.6778C2.67742 13.26 3.76166 13.1266 4.45801 12.5053C5.04243 11.984 5.63952 11.4434 6.22015 10.8627C6.80078 10.2821 7.34137 9.68501 7.86277 9.10059C7.90114 9.05758 7.96357 9.04406 8.01569 9.06867C9.43016 9.73644 10.8021 9.49427 11.97 8.32633C13.1743 7.1221 13.3943 5.70099 12.6475 4.24C12.6188 4.1838 12.5435 4.1731 12.4988 4.21773C10.8163 5.90021 9.9396 5.85559 9.12061 5.03661Z"></path></svg>