<?xml version="1.0" encoding="UTF-8"?>
<svg width="100px" height="100px" viewBox="0 0 100 100" version="1.1" xmlns="http://www.w3.org/2000/svg" xmlns:xlink="http://www.w3.org/1999/xlink">
    <!-- Generator: Sketch 55.2 (78181) - https://sketchapp.com -->
    <title>squircle-mask</title>
    <desc>Created with Sketch.</desc>
    <g id="Page-2" stroke="none" stroke-width="1" fill="none" fill-rule="evenodd">
        <path d="M44.9693393,-1.28024685e-15 L55.0306607,1.28024685e-15 C67.4761414,-1.00595085e-15 74.3674758,1.76368661 80.5600684,5.07552137 C86.752661,8.38735613 91.6126439,13.247339 94.9244786,19.4399316 C98.2363134,25.6325242 100,32.5238586 100,44.9693393 L100,55.0306607 C100,67.4761414 98.2363134,74.3674758 94.9244786,80.5600684 C91.6126439,86.752661 86.752661,91.6126439 80.5600684,94.9244786 C74.3674758,98.2363134 67.4761414,100 55.0306607,100 L44.9693393,100 C32.5238586,100 25.6325242,98.2363134 19.4399316,94.9244786 C13.247339,91.6126439 8.38735613,86.752661 5.07552137,80.5600684 C1.76368661,74.3674758 6.70633898e-16,67.4761414 -8.53497903e-16,55.0306607 L8.53497903e-16,44.9693393 C-6.70633898e-16,32.5238586 1.76368661,25.6325242 5.07552137,19.4399316 C8.38735613,13.247339 13.247339,8.38735613 19.4399316,5.07552137 C25.6325242,1.76368661 32.5238586,1.00595085e-15 44.9693393,-1.28024685e-15 Z" id="squircle-mask" fill="#000000"></path>
    </g>
</svg>