<?xml version="1.0" encoding="UTF-8"?>
<svg width="100px" height="100px" viewBox="0 0 100 100" version="1.1" xmlns="http://www.w3.org/2000/svg" xmlns:xlink="http://www.w3.org/1999/xlink">
    <!-- Generator: Sketch 55.2 (78181) - https://sketchapp.com -->
    <title>squircle-mask</title>
    <desc>Created with Sketch.</desc>
    <g id="Page-2" stroke="none" stroke-width="1" fill="none" fill-rule="evenodd">
        <path d="M42.9448051,-1.45943701e-15 L57.0551949,1.45943701e-15 C70.3489498,-9.82586131e-16 76.3910961,1.6244482 82.0947998,4.67482232 C87.7985035,7.72519644 92.2748036,12.2014965 95.3251777,17.9052002 C98.3755518,23.6089039 100,29.6510502 100,42.9448051 L100,57.0551949 C100,70.3489498 98.3755518,76.3910961 95.3251777,82.0947998 C92.2748036,87.7985035 87.7985035,92.2748036 82.0947998,95.3251777 C76.3910961,98.3755518 70.3489498,100 57.0551949,100 L42.9448051,100 C29.6510502,100 23.6089039,98.3755518 17.9052002,95.3251777 C12.2014965,92.2748036 7.72519644,87.7985035 4.67482232,82.0947998 C1.6244482,76.3910961 6.5505742e-16,70.3489498 -9.7295801e-16,57.0551949 L9.7295801e-16,42.9448051 C-6.5505742e-16,29.6510502 1.6244482,23.6089039 4.67482232,17.9052002 C7.72519644,12.2014965 12.2014965,7.72519644 17.9052002,4.67482232 C23.6089039,1.6244482 29.6510502,9.82586131e-16 42.9448051,-1.45943701e-15 Z" id="squircle-mask" fill="#000000"></path>
    </g>
</svg>