<svg width="24" height="24" viewBox="0 0 24 24" fill="none" xmlns="http://www.w3.org/2000/svg">
<path d="M13.0004 2.00423C14.5981 2.00423 15.9041 3.25315 15.9944 4.82327L15.9994 4.999L18.2504 5C19.1176 5 19.8374 5.63072 19.9762 6.45858L19.9946 6.60663L20.0004 6.75018L19.9995 10.5012L18.0019 10.5013C17.2583 10.5013 16.6357 11.0445 16.5219 11.7403L16.5067 11.8725L16.5019 12.0013C16.5019 12.7449 17.0451 13.3675 17.7409 13.4813L17.8731 13.4965L18.0018 13.5013L19.9995 13.5012L20.0004 17.2526C20.0004 18.1708 19.2933 18.9238 18.3939 18.9968L18.2503 19.0026L15.9994 19.002L15.9953 19.1747C15.911 20.6305 14.7885 21.8078 13.3572 21.9774L13.1767 21.9933L13.0004 21.9984C11.4027 21.9984 10.0968 20.7495 10.0055 19.1779L10.0004 19.002L7.75042 19.0026C6.88326 19.0026 6.16341 18.3719 6.0246 17.5443L6.00623 17.3963L6.00042 17.2528L5.99942 15.001L5.83642 14.9962C4.3806 14.9119 3.20328 13.7894 3.03369 12.3581L3.01779 12.1776L3.0127 12.0013C3.0127 10.4036 4.26162 9.09765 5.83636 9.0064L5.99942 9.001L6.00042 6.75C6.00042 5.88283 6.63115 5.16298 7.45873 5.02418L7.60673 5.0058L7.75023 5L9.99942 4.999L10.0055 4.82796C10.0899 3.37214 11.2123 2.19482 12.6437 2.02523L12.8242 2.00933L13.0004 2.00423ZM13.0004 3.50423C12.2207 3.50423 11.58 4.09912 11.5073 4.86039L11.5004 5.00497L11.499 6.49904L7.75042 6.5C7.63208 6.5 7.53294 6.58223 7.50703 6.69279L7.50042 6.75018L7.49951 10.5012L6.0127 10.5013C5.18427 10.5013 4.5127 11.1729 4.5127 12.0013C4.5127 12.781 5.10758 13.4218 5.86817 13.4944L6.01262 13.5013L7.49951 13.5012L7.50042 17.2526C7.50042 17.371 7.58266 17.4701 7.69304 17.496L7.75033 17.5026L11.499 17.5021L11.5004 18.9984C11.5004 19.8268 12.172 20.4984 13.0004 20.4984C13.7801 20.4984 14.4209 19.9035 14.4936 19.1434L14.5004 18.9991L14.499 17.5021L18.2504 17.5026C18.3688 17.5026 18.4679 17.4204 18.4938 17.3101L18.5004 17.2528L18.4994 15L17.9766 15.0009L17.7972 14.9944C16.286 14.8922 15.0932 13.6769 15.0073 12.1532L15.0023 11.976L15.0088 11.7967C15.111 10.2854 16.3263 9.09259 17.8274 9.00631L18.0018 9.00131L18.4994 9.001L18.5004 6.75C18.5004 6.65532 18.4478 6.57294 18.3701 6.5305L18.3076 6.5066L18.2502 6.5L14.499 6.49904L14.5004 5.00423C14.5004 4.17581 13.8289 3.50423 13.0004 3.50423Z" fill="currentColor"/>
</svg>
