<svg width="24" height="24" viewBox="0 0 24 24" fill="none" xmlns="http://www.w3.org/2000/svg">
<path d="M7.24921 4.5H10.7486C11.1628 4.5 11.4986 4.83579 11.4986 5.25C11.4986 5.6297 11.2164 5.94349 10.8504 5.99315L10.7486 6H7.24885C6.06991 5.99944 5.10261 6.90639 5.00697 8.06095L4.9994 8.21986L5.00223 16.7505C5.00255 17.9414 5.92797 18.9159 7.09878 18.9948L7.25283 18.9999L15.7509 18.9882C16.9406 18.9866 17.9136 18.0618 17.9926 16.8921L17.9978 16.7382V13.2319C17.9978 12.8177 18.3336 12.4819 18.7478 12.4819C19.1275 12.4819 19.4413 12.7641 19.491 13.1302L19.4978 13.2319V16.7382C19.4978 18.7405 17.9284 20.3767 15.9519 20.4828L15.753 20.4882L7.25739 20.4999L7.05406 20.4948C5.1415 20.3952 3.60807 18.8626 3.50749 16.95L3.50223 16.7509L3.5 8.25253L3.50441 8.05003C3.6045 6.13732 5.13778 4.60432 7.05008 4.50511L7.24921 4.5H10.7486H7.24921ZM13.7472 3.0013L20.3009 3.0018L20.4005 3.01558L20.5013 3.04376L20.5581 3.06787C20.6114 3.09105 20.6625 3.12146 20.7102 3.15868L20.7795 3.22139L20.8633 3.31997L20.9174 3.41009L20.9561 3.5004L20.9753 3.56459L20.9889 3.62845L20.9983 3.72265L20.9988 10.2552C20.9988 10.6694 20.663 11.0052 20.2488 11.0052C19.8691 11.0052 19.5553 10.723 19.5056 10.357L19.4988 10.2552L19.498 5.5613L12.2788 12.7845C12.0126 13.0508 11.5959 13.0751 11.3022 12.8574L11.2181 12.7848C10.9518 12.5186 10.9275 12.1019 11.1453 11.8082L11.2179 11.7241L18.436 4.5013H13.7472C13.3675 4.5013 13.0537 4.21914 13.0041 3.85307L12.9972 3.7513C12.9972 3.3716 13.2794 3.05781 13.6455 3.00814L13.7472 3.0013Z" fill="currentColor"/>
</svg>
