<svg width="24" height="24" viewBox="0 0 24 24" fill="none" xmlns="http://www.w3.org/2000/svg">
<path d="M13.249 1.99865C14.4917 1.99865 15.499 3.00601 15.499 4.24865V7.25C15.499 8.49264 14.4917 9.5 13.249 9.5L12.498 9.49965V11.4996L15.7524 11.5C16.9432 11.5 17.918 12.4252 17.9972 13.596L18.0024 13.75L18.002 14.4996L18.7531 14.5C19.9957 14.5 21.0031 15.5074 21.0031 16.75V19.7514C21.0031 20.994 19.9957 22.0014 18.7531 22.0014H15.7517C14.5091 22.0014 13.5017 20.994 13.5017 19.7514V16.75C13.5017 15.5074 14.5091 14.5 15.7517 14.5L16.502 14.4996L16.5024 13.75C16.5024 13.3703 16.2202 13.0565 15.8542 13.0068L15.7524 13H7.74872C7.36903 13 7.05523 13.2822 7.00557 13.6482L6.99872 13.75L6.99805 14.4996L7.7494 14.5C8.99204 14.5 9.9994 15.5074 9.9994 16.75V19.7514C9.9994 20.994 8.99204 22.0014 7.7494 22.0014H4.74805C3.50541 22.0014 2.49805 20.994 2.49805 19.7514V16.75C2.49805 15.5074 3.50541 14.5 4.74805 14.5L5.49805 14.4996L5.49872 13.75C5.49872 12.5591 6.42388 11.5844 7.59467 11.5052L7.74872 11.5L10.998 11.4996V9.49965L10.2477 9.5C9.00502 9.5 7.99766 8.49264 7.99766 7.25V4.24865C7.99766 3.00601 9.00502 1.99865 10.2477 1.99865H13.249ZM7.7494 16H4.74805C4.33383 16 3.99805 16.3358 3.99805 16.75V19.7514C3.99805 20.1656 4.33383 20.5014 4.74805 20.5014H7.7494C8.16361 20.5014 8.4994 20.1656 8.4994 19.7514V16.75C8.4994 16.3358 8.16361 16 7.7494 16ZM18.7531 16H15.7517C15.3375 16 15.0017 16.3358 15.0017 16.75V19.7514C15.0017 20.1656 15.3375 20.5014 15.7517 20.5014H18.7531C19.1673 20.5014 19.5031 20.1656 19.5031 19.7514V16.75C19.5031 16.3358 19.1673 16 18.7531 16ZM13.249 3.49865H10.2477C9.83345 3.49865 9.49766 3.83443 9.49766 4.24865V7.25C9.49766 7.66421 9.83345 8 10.2477 8H13.249C13.6632 8 13.999 7.66421 13.999 7.25V4.24865C13.999 3.83443 13.6632 3.49865 13.249 3.49865Z" fill="currentColor"/>
</svg>
