<?xml version="1.0" standalone="no"?>
<!DOCTYPE svg PUBLIC "-//W3C//DTD SVG 20010904//EN"
 "http://www.w3.org/TR/2001/REC-SVG-20010904/DTD/svg10.dtd">
<svg version="1.0" xmlns="http://www.w3.org/2000/svg"
 width="2084.000000pt" height="2084.000000pt" viewBox="0 0 2084.000000 2084.000000"
 preserveAspectRatio="xMidYMid meet">
<metadata>
Created by potrace 1.11, written by Peter Selinger 2001-2013
</metadata>
<g transform="translate(0.000000,2084.000000) scale(0.100000,-0.100000)"
fill="#000000" stroke="none">
<path d="M8623 17691 c-5 -9 -21 -36 -35 -61 -14 -25 -64 -112 -112 -194 -47
-82 -86 -151 -86 -154 0 -2 -8 -16 -18 -30 -11 -15 -32 -52 -49 -82 -24 -45
-246 -431 -321 -560 -11 -19 -29 -51 -40 -70 -21 -38 -300 -525 -485 -847 -64
-111 -128 -222 -142 -247 -14 -26 -55 -97 -91 -158 -35 -61 -64 -113 -64 -115
0 -3 -8 -17 -19 -31 -10 -15 -35 -58 -56 -97 -21 -38 -44 -77 -51 -86 -8 -8
-14 -18 -14 -22 0 -3 -13 -28 -29 -55 -15 -26 -39 -68 -53 -93 -14 -25 -86
-151 -160 -280 -75 -128 -146 -252 -158 -274 -12 -22 -82 -143 -155 -270 -72
-126 -143 -250 -157 -275 -14 -25 -35 -61 -46 -80 -11 -19 -29 -51 -40 -70
-11 -19 -75 -132 -144 -250 -68 -118 -127 -222 -131 -230 -4 -8 -13 -24 -20
-35 -9 -16 -99 -171 -217 -375 -42 -73 -82 -142 -102 -180 -14 -25 -51 -90
-83 -145 -65 -113 -595 -1036 -734 -1280 -50 -88 -95 -167 -100 -175 -6 -8
-38 -64 -73 -125 -34 -60 -68 -119 -74 -130 -6 -11 -37 -65 -69 -120 -32 -55
-93 -161 -135 -235 -42 -74 -105 -184 -140 -245 -35 -60 -71 -123 -80 -140
-49 -86 -81 -142 -90 -155 -6 -8 -13 -22 -17 -30 -4 -8 -16 -31 -28 -50 -12
-19 -33 -55 -47 -80 -14 -25 -69 -121 -123 -215 -54 -93 -106 -186 -117 -205
-11 -19 -29 -51 -40 -70 -98 -168 -626 -1090 -675 -1179 -14 -25 -29 -50 -33
-56 -8 -10 -25 -39 -78 -135 -14 -25 -48 -85 -77 -135 -29 -49 -62 -106 -73
-125 -17 -30 -91 -160 -153 -268 -11 -18 -37 -63 -58 -100 -21 -37 -127 -222
-236 -412 -109 -190 -225 -392 -258 -450 -32 -58 -68 -119 -78 -135 l-18 -31
45 -79 c25 -44 61 -107 79 -140 18 -33 42 -76 54 -95 11 -19 24 -41 28 -49 3
-8 31 -58 61 -110 30 -53 66 -118 82 -146 24 -44 112 -200 180 -320 12 -22 36
-65 52 -95 17 -30 47 -84 68 -120 20 -36 52 -92 70 -125 52 -93 69 -125 110
-195 20 -36 72 -128 115 -205 112 -199 144 -257 205 -365 29 -52 63 -113 75
-135 13 -22 64 -114 115 -205 52 -91 106 -187 121 -215 15 -27 49 -88 76 -135
26 -47 60 -106 73 -132 14 -27 29 -48 35 -49 13 0 3321 0 3364 0 25 1 31 4 23
14 -5 6 -147 239 -314 517 -167 278 -412 683 -543 900 -276 458 -463 769 -486
808 -9 15 -60 98 -113 186 -53 87 -96 160 -96 161 0 2 -34 59 -76 127 -42 67
-87 141 -99 163 l-23 41 79 134 c92 156 73 125 234 400 70 118 131 222 136
230 5 8 46 78 90 155 45 77 90 154 100 170 10 17 22 37 26 45 4 7 46 81 95
163 48 81 88 150 88 152 0 2 23 41 51 87 28 45 60 99 70 118 11 19 30 52 42
72 30 51 86 147 107 183 64 110 440 752 471 804 22 34 39 65 39 67 0 3 11 21
24 42 12 20 48 80 78 132 31 52 100 172 155 265 55 94 137 233 182 310 44 77
85 147 90 155 5 8 102 173 214 365 250 427 504 859 528 900 10 17 39 66 64
110 25 44 58 100 73 125 15 25 45 77 66 115 22 39 44 72 48 73 4 2 8 7 8 12 0
7 132 235 490 845 68 116 130 222 139 237 72 123 392 668 453 772 43 72 86
147 96 166 11 19 72 125 137 235 65 110 149 254 188 320 92 157 78 134 262
447 88 150 165 282 171 293 6 11 42 72 79 135 75 127 361 614 493 840 47 80
96 165 110 190 14 25 32 56 42 70 9 14 20 32 23 40 4 8 16 29 26 46 10 16 181
309 381 650 199 340 373 636 386 656 13 21 24 39 24 42 0 2 18 34 41 71 39 65
54 91 106 182 l24 41 -1709 0 c-1574 0 -1709 -1 -1719 -17z"/>
<path d="M12607 16798 c-36 -72 -87 -165 -151 -283 -18 -33 -57 -105 -86 -160
-29 -55 -60 -113 -70 -130 -9 -16 -39 -70 -65 -120 -68 -129 -114 -213 -145
-270 -15 -27 -46 -84 -68 -125 -22 -41 -51 -95 -64 -120 -61 -112 -101 -186
-178 -330 -124 -232 -151 -282 -170 -315 -9 -16 -43 -79 -75 -140 -32 -60 -69
-130 -83 -155 -14 -25 -43 -79 -65 -120 -22 -41 -63 -115 -90 -165 l-49 -90
24 -45 c12 -24 57 -108 99 -185 154 -286 362 -672 392 -725 16 -30 52 -98 80
-150 27 -52 53 -99 57 -105 4 -5 31 -55 60 -110 29 -55 76 -143 105 -195 58
-105 114 -211 183 -340 24 -47 50 -94 57 -106 7 -11 32 -56 55 -100 23 -43 55
-101 70 -129 15 -27 47 -86 70 -130 24 -44 116 -215 205 -380 89 -165 186
-345 215 -400 29 -55 56 -104 60 -110 4 -5 31 -55 60 -110 29 -55 79 -147 110
-205 77 -141 120 -221 165 -305 21 -38 51 -95 68 -125 16 -30 63 -118 105
-195 41 -77 86 -160 100 -185 13 -25 103 -191 200 -370 96 -179 189 -352 207
-385 216 -397 289 -533 327 -605 25 -47 54 -101 65 -120 11 -19 43 -80 73
-135 29 -55 56 -104 60 -110 4 -5 27 -48 51 -95 23 -47 53 -101 64 -120 12
-19 47 -82 77 -140 30 -58 68 -127 83 -155 39 -71 86 -158 135 -250 24 -44 55
-102 70 -130 15 -27 60 -111 100 -185 81 -152 99 -184 232 -430 96 -177 134
-247 216 -400 25 -47 59 -110 76 -140 17 -30 44 -80 59 -110 16 -30 39 -73 51
-95 12 -22 40 -74 62 -115 23 -41 57 -104 76 -140 20 -36 113 -209 208 -385
95 -176 185 -342 200 -370 15 -27 46 -86 70 -130 24 -44 54 -100 68 -125 33
-61 81 -149 132 -245 24 -44 55 -102 70 -130 15 -27 51 -95 81 -150 29 -55 63
-118 75 -140 13 -22 33 -60 46 -85 13 -25 41 -76 62 -115 21 -38 57 -104 79
-145 64 -121 108 -203 127 -235 10 -16 41 -74 70 -129 29 -54 64 -120 78 -147
14 -26 29 -46 33 -43 4 2 24 35 45 72 21 37 45 81 54 97 9 17 119 212 245 435
125 223 239 425 253 450 14 25 64 115 112 200 48 85 98 175 112 200 151 266
368 654 368 657 0 2 11 20 23 41 13 20 39 64 57 97 46 82 246 439 282 500 16
28 38 69 50 91 l21 42 -43 78 c-24 44 -51 90 -60 104 -10 14 -34 57 -55 95
-21 39 -43 77 -49 85 -6 8 -16 24 -22 35 -40 74 -175 309 -184 320 -4 6 -18
30 -32 55 -41 74 -306 536 -378 660 -37 63 -80 138 -96 165 -56 101 -63 114
-88 154 -15 22 -26 43 -26 46 0 2 -16 29 -35 59 -19 30 -35 58 -35 62 0 4 -13
28 -29 53 -16 25 -42 69 -58 97 -23 41 -551 960 -583 1014 -26 42 -269 468
-330 574 -37 66 -56 100 -249 433 -105 183 -199 347 -210 365 -10 18 -44 78
-76 133 -155 267 -210 363 -231 401 -12 22 -33 58 -46 80 -14 21 -38 64 -55
94 -17 30 -99 174 -183 320 -84 146 -194 337 -245 425 -51 88 -105 183 -122
210 -16 28 -32 57 -36 65 -4 8 -15 29 -25 45 -10 17 -30 50 -44 75 -14 25 -49
86 -78 135 -45 78 -453 786 -500 870 -10 17 -31 53 -47 81 -17 27 -41 70 -55
95 -14 24 -60 105 -103 179 -61 105 -294 510 -475 825 -9 17 -61 107 -115 200
-54 94 -107 186 -118 205 -10 19 -40 71 -66 115 -26 44 -50 87 -54 95 -4 8
-16 29 -26 47 -11 17 -116 200 -234 405 -118 205 -254 440 -301 522 -47 82
-86 151 -86 152 0 2 -19 34 -42 71 -22 38 -51 86 -63 108 -12 22 -46 81 -74
130 -29 50 -64 110 -78 135 -32 57 -105 180 -107 180 -1 0 -18 -33 -39 -72z"/>
<path d="M10500 12943 c-25 -50 -121 -229 -172 -323 -17 -30 -48 -89 -71 -130
-22 -41 -56 -104 -75 -140 -90 -166 -189 -349 -270 -500 -22 -41 -79 -147
-127 -235 -113 -210 -148 -273 -235 -435 -40 -74 -87 -162 -105 -195 -18 -33
-63 -116 -100 -185 -37 -69 -84 -156 -105 -195 -21 -38 -51 -95 -67 -125 -17
-30 -76 -140 -133 -245 -56 -104 -119 -221 -140 -260 -21 -38 -82 -151 -135
-250 -54 -99 -118 -218 -143 -265 -24 -47 -52 -98 -62 -115 -10 -16 -34 -59
-52 -95 -19 -36 -56 -105 -83 -155 -26 -49 -55 -103 -65 -120 -18 -31 -52 -94
-135 -250 -26 -49 -74 -137 -105 -195 -31 -58 -76 -141 -100 -185 -24 -44 -69
-127 -100 -185 -31 -58 -75 -139 -97 -180 -23 -41 -101 -187 -175 -325 -75
-137 -152 -281 -173 -320 -21 -38 -63 -117 -95 -175 -31 -58 -76 -140 -99
-182 -81 -154 -126 -236 -240 -448 -64 -118 -122 -226 -129 -240 -7 -14 -23
-43 -36 -65 -12 -22 -49 -89 -81 -149 l-58 -109 22 -41 c11 -23 29 -55 38 -71
55 -93 114 -195 135 -231 34 -60 148 -257 158 -274 5 -8 68 -116 139 -240 71
-124 137 -239 147 -257 11 -17 37 -62 58 -100 22 -37 89 -153 149 -258 61
-104 118 -203 127 -220 10 -16 59 -102 110 -190 51 -88 100 -173 110 -190 9
-16 88 -154 175 -305 86 -151 166 -287 176 -302 11 -15 19 -29 19 -32 0 -2 16
-32 36 -65 35 -59 38 -61 78 -62 265 -3 7378 0 7382 4 3 3 -21 54 -54 114 -57
103 -115 212 -190 353 -19 36 -42 79 -52 95 -9 17 -41 75 -70 130 -29 55 -66
125 -83 155 -16 30 -45 84 -65 120 -19 36 -49 92 -67 125 -93 173 -197 365
-288 535 -22 41 -47 89 -57 105 -10 17 -43 80 -75 140 -60 115 -74 141 -172
320 -34 61 -86 160 -118 220 -32 61 -61 115 -65 120 -4 6 -33 60 -65 120 -32
61 -61 115 -65 120 -4 6 -37 66 -73 135 -36 69 -76 143 -88 165 l-22 40 -1973
0 c-1086 0 -1974 1 -1974 3 0 1 14 31 32 65 18 34 32 64 33 67 0 3 3 10 7 15
8 14 71 133 168 320 46 88 109 210 140 270 32 61 86 164 120 230 123 236 193
372 245 470 29 55 85 163 125 240 40 77 94 181 120 230 26 50 78 149 115 220
89 172 187 359 245 470 26 50 80 153 120 230 40 77 96 185 125 240 29 55 82
156 117 225 36 69 105 200 153 293 l87 167 -43 78 c-50 92 -90 167 -154 287
-46 88 -84 159 -164 308 -21 39 -60 113 -86 162 -26 50 -60 113 -75 140 -15
28 -51 95 -80 150 -29 55 -67 127 -85 160 -18 33 -54 101 -80 150 -26 50 -60
113 -75 140 -15 28 -53 100 -85 160 -32 61 -70 133 -85 160 -15 28 -47 86 -70
130 -24 44 -60 113 -81 153 -22 39 -56 105 -78 145 -21 39 -59 110 -84 158
-25 47 -64 121 -88 165 -63 117 -141 264 -164 307 -11 20 -22 37 -25 37 -3 0
-16 -21 -30 -47z"/>
</g>
</svg>
