<svg xmlns="http://www.w3.org/2000/svg" fill="none" viewBox="0 0 14 14"><path fill="currentColor" fill-rule="evenodd" d="M7.88326 0.114571C6.89141 -0.0056539 5.88831 0.217784 5.04126 0.747625C4.25294 1.24073 3.64412 1.97147 3.3008 2.83175C2.87207 2.87905 2.45453 3.00115 2.06726 3.1929C1.63269 3.40806 1.24476 3.70672 0.925611 4.07181C0.281062 4.80914 -0.0441828 5.77232 0.0214249 6.74945C0.0870327 7.72659 0.538119 8.63764 1.27545 9.28219C1.96038 9.88093 2.8402 10.2041 3.74505 10.1945C4.09279 9.55789 4.76337 9.15381 5.5 9.15381V7.15381C5.5 6.04924 6.39543 5.15381 7.5 5.15381C8.60457 5.15381 9.5 6.04924 9.5 7.15381V9.15381C10.2203 9.15381 10.8774 9.54017 11.2313 10.1525C11.8551 10.0598 12.4416 9.78587 12.9156 9.35996C13.5036 8.83159 13.8774 8.10596 13.9663 7.32047C14.0552 6.53497 13.853 5.74414 13.398 5.09773C12.9805 4.50473 12.3769 4.07102 11.686 3.86345C11.5607 2.94016 11.1431 2.07922 10.4917 1.40829C9.79578 0.691417 8.87512 0.234796 7.88326 0.114571ZM7.53186 6.40381C7.94607 6.40381 8.28186 6.73959 8.28186 7.15381V10.4038H9.53186C9.83521 10.4038 10.1087 10.5865 10.2248 10.8668C10.3409 11.1471 10.2767 11.4696 10.0622 11.6841L8.06219 13.6841C7.7693 13.977 7.29442 13.977 7.00153 13.6841L5.00153 11.6841C4.78703 11.4696 4.72287 11.1471 4.83895 10.8668C4.95504 10.5865 5.22851 10.4038 5.53186 10.4038H6.78186V7.15381C6.78186 6.73959 7.11765 6.40381 7.53186 6.40381Z" clip-rule="evenodd"></path></svg>