<svg xmlns="http://www.w3.org/2000/svg" fill="none" viewBox="0 0 14 14"><path fill="currentColor" fill-rule="evenodd" d="M5.55693 0.689231L5.09385 1.88462L3.50001 2.78923L2.22924 2.59538C2.01764 2.56666 1.80228 2.6015 1.61053 2.69546C1.41877 2.78942 1.25928 2.93826 1.15232 3.12308L0.721546 3.87692C0.611163 4.06468 0.560306 4.2815 0.575687 4.49876C0.591069 4.71602 0.671965 4.92351 0.8077 5.09385L1.61539 6.09538V7.90462L0.829238 8.90615C0.693503 9.07649 0.612607 9.28398 0.597226 9.50124C0.581845 9.7185 0.632702 9.93532 0.743085 10.1231L1.17385 10.8769C1.28082 11.0617 1.44031 11.2106 1.63207 11.3045C1.82382 11.3985 2.03918 11.4333 2.25078 11.4046L3.52155 11.2108L5.09385 12.1154L5.55693 13.3108C5.63503 13.5132 5.77243 13.6873 5.95114 13.8102C6.12985 13.9332 6.34153 13.9994 6.55847 14H7.46308C7.68002 13.9994 7.89171 13.9332 8.07042 13.8102C8.24913 13.6873 8.38653 13.5132 8.46462 13.3108L8.9277 12.1154L10.5 11.2108L11.7708 11.4046C11.9824 11.4333 12.1977 11.3985 12.3895 11.3045C12.5812 11.2106 12.7407 11.0617 12.8477 10.8769L13.2785 10.1231C13.3889 9.93532 13.4397 9.7185 13.4243 9.50124C13.4089 9.28398 13.3281 9.07649 13.1923 8.90615L12.3846 7.90462V6.09538L13.1708 5.09385C13.3065 4.92351 13.3874 4.71602 13.4028 4.49876C13.4182 4.2815 13.3673 4.06468 13.2569 3.87692L12.8262 3.12308C12.7192 2.93826 12.5597 2.78942 12.368 2.69546C12.1762 2.6015 11.9608 2.56666 11.7492 2.59538L10.4785 2.78923L8.90616 1.88462L8.44309 0.689231C8.36499 0.486838 8.22759 0.31275 8.04888 0.189767C7.87017 0.0667842 7.65848 0.00064083 7.44155 0H6.55847C6.34153 0.00064083 6.12985 0.0667842 5.95114 0.189767C5.77243 0.31275 5.63503 0.486838 5.55693 0.689231ZM7 10.25C8.58114 10.25 9.89857 9.12089 10.19 7.625H7.25888L5.1865 9.69738C5.70449 10.0463 6.32846 10.25 7 10.25ZM4.30262 8.8135L6.375 6.74112V3.81004C4.87911 4.10143 3.75 5.41886 3.75 7C3.75 7.67154 3.95367 8.29551 4.30262 8.8135ZM7.625 6.375H10.19C9.93797 5.08136 8.91864 4.06203 7.625 3.81004V6.375Z" clip-rule="evenodd"></path></svg>