<svg xmlns="http://www.w3.org/2000/svg" fill="none" viewBox="0 0 14 14"><path fill="currentColor" fill-rule="evenodd" d="M6.31269 4.22291L8.69401 0.480839C8.88459 0.181358 9.21496 0 9.56994 0C9.8453 0 10.1094 0.109387 10.3041 0.304096L13.6959 3.6959C13.8906 3.89061 14 4.1547 14 4.43006C14 4.78504 13.8186 5.11541 13.5192 5.30599L9.7771 7.6873C9.66624 7.43743 9.50948 7.2069 9.31144 7.00886L6.99115 4.68857C6.79311 4.49052 6.56258 4.33377 6.31269 4.22291Z" clip-rule="evenodd"></path><path fill="currentColor" fill-rule="evenodd" d="M2.01163 5.6499L5.28972 5.28566C5.59165 5.25212 5.89245 5.35763 6.10726 5.57244L8.42755 7.89273C8.64236 8.10754 8.74788 8.40835 8.71433 8.71027L8.3501 11.9884C8.30108 12.4295 7.96712 12.7856 7.53 12.8627L1.17424 13.9843C1.07702 14.0015 0.981585 14.0042 0.889736 13.9941L3.50018 11.3837L3.55794 11.4415C3.80201 11.6855 4.19774 11.6855 4.44182 11.4415C4.6859 11.1974 4.6859 10.8016 4.44182 10.5576L3.44182 9.55757C3.19774 9.31349 2.80201 9.31349 2.55794 9.55757C2.31386 9.80165 2.31386 10.1974 2.55794 10.4415L2.6163 10.4998L0.00584671 13.1103C-0.00415925 13.0184 -0.00148712 12.923 0.0156697 12.8258L1.13727 6.46999C1.21441 6.03287 1.57047 5.69891 2.01163 5.6499Z" clip-rule="evenodd"></path></svg>