<svg viewBox="0 0 24 24" xmlns="http://www.w3.org/2000/svg"><title>ic_fluent_layer_24_regular</title><path d="M20.026 12.192a2 2 0 01-.577.598l-6.05 4.083a2.5 2.5 0 01-2.798 0l-6.05-4.083a2 2 0 01-.779-2.29l6.841 4.56a2.5 2.5 0 002.613.098l.16-.098 6.841-4.56a1.996 1.996 0 01-.201 1.692zm.201 1.557a1.996 1.996 0 01-.778 2.29l-6.05 4.084a2.5 2.5 0 01-2.798 0l-6.05-4.083a2 2 0 01-.779-2.29l6.841 4.56a2.5 2.5 0 002.613.098l.16-.098 6.841-4.56zm-6.84-10.324l6.365 4.243a1 1 0 010 1.664l-6.365 4.243a2.5 2.5 0 01-2.774 0L4.248 9.332a1 1 0 010-1.664l6.365-4.243a2.5 2.5 0 012.774 0zM11.56 4.606l-.116.067L5.705 8.5l5.74 3.827a1 1 0 00.994.067l.116-.067L18.294 8.5l-5.74-3.827a1 1 0 00-.993-.067z" fill="currentColor" fill-rule="nonzero"/></svg>
