<svg xmlns="http://www.w3.org/2000/svg" fill="none" viewBox="0 0 48 48" stroke-width="3"><path stroke="currentColor" stroke-linejoin="round" d="M9.1457 21.9537C9.21435 20.6934 9.92038 19.6188 11.1565 19.3639C12.1129 19.1667 13.5098 19 15.5 19C17.4902 19 18.8871 19.1667 19.8435 19.3639C21.0796 19.6188 21.7857 20.6934 21.8543 21.9537C21.9285 23.3167 22 25.5299 22 29C22 32.4701 21.9285 34.6833 21.8543 36.0463C21.7857 37.3066 21.0796 38.3812 19.8435 38.6361C18.8871 38.8333 17.4902 39 15.5 39C13.5098 39 12.1129 38.8333 11.1565 38.6361C9.92038 38.3812 9.21435 37.3066 9.1457 36.0463C9.07146 34.6833 9 32.4701 9 29C9 25.5299 9.07146 23.3167 9.1457 21.9537Z"></path><path stroke="currentColor" stroke-linejoin="round" d="M28.0281 21.1828C28.0833 20.0086 28.9231 19.193 30.0954 19.1058C30.8907 19.0466 31.9949 19 33.5 19C35.0051 19 36.1093 19.0466 36.9046 19.1058C38.0769 19.193 38.9167 20.0086 38.9719 21.1828C38.9892 21.5502 39 21.9856 39 22.5C39 23.0144 38.9892 23.4498 38.9719 23.8172C38.9167 24.9914 38.0769 25.807 36.9046 25.8942C36.1093 25.9534 35.0051 26 33.5 26C31.9949 26 30.8907 25.9534 30.0954 25.8942C28.9231 25.807 28.0833 24.9914 28.0281 23.8172C28.0108 23.4498 28 23.0144 28 22.5C28 21.9856 28.0108 21.5502 28.0281 21.1828Z"></path><path stroke="currentColor" stroke-linejoin="round" d="M28.0281 34.1828C28.0833 33.0086 28.9231 32.193 30.0954 32.1058C30.8907 32.0466 31.9949 32 33.5 32C35.0051 32 36.1093 32.0466 36.9046 32.1058C38.0769 32.193 38.9167 33.0086 38.9719 34.1828C38.9892 34.5502 39 34.9856 39 35.5C39 36.0144 38.9892 36.4498 38.9719 36.8172C38.9167 37.9914 38.0769 38.807 36.9046 38.8942C36.1093 38.9534 35.0051 39 33.5 39C31.9949 39 30.8907 38.9534 30.0954 38.8942C28.9231 38.807 28.0833 37.9914 28.0281 36.8172C28.0108 36.4498 28 36.0144 28 35.5C28 34.9856 28.0108 34.5502 28.0281 34.1828Z"></path><path stroke="currentColor" stroke-linejoin="round" d="M3.53896 39.7428C3.74658 42.2981 5.70187 44.2534 8.25717 44.461C11.4854 44.7233 16.636 45 24 45C31.364 45 36.5146 44.7233 39.7428 44.461C42.2981 44.2534 44.2534 42.2981 44.461 39.7428C44.7233 36.5146 45 31.364 45 24C45 16.636 44.7233 11.4854 44.461 8.25717C44.2534 5.70188 42.2981 3.74658 39.7428 3.53897C36.5146 3.27668 31.364 3 24 3C16.636 3 11.4854 3.27667 8.25718 3.53896C5.70188 3.74657 3.74658 5.70187 3.53897 8.25717C3.27668 11.4854 3 16.636 3 24C3 31.364 3.27667 36.5146 3.53896 39.7428Z"></path><path stroke="currentColor" stroke-linecap="round" d="M3.5 13.5L44.5 13.5"></path><path stroke="currentColor" stroke-linecap="round" stroke-linejoin="round" d="M10 8.5H12"></path><path stroke="currentColor" stroke-linecap="round" stroke-linejoin="round" d="M18 8.5H20"></path></svg>