<svg xmlns="http://www.w3.org/2000/svg" fill="none" viewBox="0 0 48 48"><path fill="currentColor" fill-rule="evenodd" d="M46.5 24C46.5 11.5736 36.4264 1.5 24 1.5C11.5736 1.5 1.5 11.5736 1.5 24C1.5 36.4264 11.5736 46.5 24 46.5C36.4264 46.5 46.5 36.4264 46.5 24ZM23.2342 15.5018C23.3626 13.6554 25.1146 12.8414 26.611 13.9307C27.7416 14.7538 29.2169 15.8951 31.0706 17.4544C33.6005 19.5825 35.073 21.1915 35.9178 22.2817C36.7275 23.3266 36.7276 24.6731 35.918 25.7181C35.0732 26.8084 33.6007 28.4175 31.0706 30.5453C29.2172 32.104 27.7422 33.2451 26.6117 34.0681C25.115 35.1577 23.3625 34.3437 23.2341 32.4969C23.1598 31.4289 23.0927 30.0621 23.0495 28.3262C18.7282 28.1217 15.7399 27.9297 13.8873 27.7946C12.4159 27.6873 11.1759 26.7235 11.0553 25.2532C11.0214 24.8401 11 24.371 11 23.845C11 23.3028 11.0227 22.8354 11.0584 22.4353C11.175 21.1298 12.2755 20.3256 13.5826 20.2281C15.4049 20.0922 18.4828 19.89 23.0495 19.6738C23.0927 17.9372 23.1599 16.57 23.2342 15.5018Z" clip-rule="evenodd"></path></svg>