<svg xmlns="http://www.w3.org/2000/svg" fill="none" viewBox="0 0 48 48"><path fill="currentColor" d="M11.0912 45.3457C9.93054 46.4027 8.36937 46.9249 7.00467 46.1491C6.1978 45.6905 5.21442 44.9807 4.11634 43.8826C3.01833 42.7846 2.3086 41.8012 1.84995 40.9944C1.07412 39.6296 1.59633 38.0683 2.65336 36.9076C6.49212 32.6924 16.4157 21.8388 25.3605 12.4193C23.3422 10.2206 21.8103 8.41165 20.6624 6.97269C18.9954 4.88278 20.2031 2.11862 22.8647 1.8685C29.0141 1.29061 36.0553 1.44794 41.6818 1.76387C44.144 1.90212 46.1017 3.85975 46.24 6.32192C46.5578 11.9783 46.7152 19.0643 46.1265 25.2366C45.8754 27.8684 43.1668 29.0647 41.0976 27.4191C39.6508 26.2684 37.8184 24.7164 35.5711 22.6466C26.1535 31.5894 15.305 41.5082 11.0912 45.3457Z"></path></svg>