<svg xmlns="http://www.w3.org/2000/svg" fill="none" viewBox="0 0 48 48"><path fill="currentColor" d="M10 38.5C8.89958 38.5 7.98495 38.3762 7.258 38.2129C5.35114 37.7844 4.5 36.0283 4.5 34.5057V20C4.5 12.202 4.59004 7.45952 4.64668 5.24782C4.68154 3.88646 5.4282 2.25792 7.19583 1.8164C7.91631 1.63644 8.84464 1.5 10 1.5C11.1554 1.5 12.0837 1.63644 12.8042 1.8164C14.5718 2.25792 15.3185 3.88646 15.3533 5.24781C15.41 7.45952 15.5 12.202 15.5 20V34.5057C15.5 36.0283 14.6489 37.7844 12.742 38.2129C12.0151 38.3762 11.1004 38.5 10 38.5Z"></path><path fill="currentColor" d="M24 38.5C23.2915 38.5 22.6679 38.4745 22.1293 38.4357C19.8766 38.2734 18.5 36.3435 18.5 34.3572V29C18.5 26.4316 18.5439 24.5592 18.5901 23.2998C18.6575 21.4621 19.9497 19.7442 22.0183 19.5753C22.5706 19.5303 23.2287 19.5 24 19.5C24.7713 19.5 25.4294 19.5303 25.9817 19.5753C28.0503 19.7442 29.3425 21.4621 29.4099 23.2998C29.4561 24.5592 29.5 26.4316 29.5 29V34.3572C29.5 36.3435 28.1234 38.2734 25.8707 38.4357C25.3321 38.4745 24.7085 38.5 24 38.5Z"></path><path fill="currentColor" d="M38 38.5C37.1163 38.5 36.3587 38.4419 35.7274 38.359C33.618 38.0817 32.5 36.2169 32.5 34.4528V25C32.5 20.2036 32.5683 17.0393 32.6235 15.2631C32.6737 13.6525 33.6953 11.9432 35.6549 11.6573C36.2868 11.5651 37.0645 11.5 38 11.5C38.9355 11.5 39.7132 11.5651 40.3451 11.6573C42.3047 11.9432 43.3263 13.6525 43.3765 15.2631C43.4317 17.0392 43.5 20.2036 43.5 25V34.4528C43.5 36.2169 42.382 38.0817 40.2726 38.359C39.6413 38.4419 38.8837 38.5 38 38.5Z"></path><path fill="currentColor" fill-rule="evenodd" d="M1.5 44C1.5 42.6193 2.61929 41.5 4 41.5H44C45.3807 41.5 46.5 42.6193 46.5 44C46.5 45.3807 45.3807 46.5 44 46.5H4C2.61929 46.5 1.5 45.3807 1.5 44Z" clip-rule="evenodd"></path></svg>