<svg xmlns="http://www.w3.org/2000/svg" fill="none" viewBox="0 0 48 48"><path fill="currentColor" d="M24.8404 3.50295C24.5659 3.501 24.2858 3.5 24 3.5C23.7142 3.5 23.4341 3.501 23.1596 3.50295C19.2221 3.5309 15.9298 4.92856 13.5617 7.3017C11.2663 9.60189 9.86569 12.7914 9.56239 16.4673C4.70958 18.1501 1.5 22.3686 1.5 28C1.5 31.5738 2.79353 34.5923 5.00194 36.7513C7.20751 38.9075 10.2977 40.1797 13.8505 40.3208C14.1894 40.3342 14.538 40.3471 14.8965 40.3594C14.0606 39.4044 13.3699 38.5746 12.8015 37.8627C11.6091 36.369 11.1955 34.3623 12.0141 32.5432C12.8307 30.7287 14.6004 29.7072 16.4993 29.5973C16.7111 29.5851 16.9331 29.5732 17.1656 29.5617L17.4119 23.1697C17.5076 20.6865 19.1604 17.7211 22.5927 17.4694C23.0193 17.4381 23.4879 17.4199 24.0008 17.4199C24.5138 17.4199 24.9824 17.4381 25.409 17.4694C28.8413 17.7211 30.494 20.6865 30.5897 23.1696L30.836 29.5617C31.0681 29.5731 31.2897 29.585 31.5011 29.5973C33.4004 29.7071 35.1701 30.7289 35.9867 32.5436C36.8053 34.3628 36.3916 36.3696 35.1991 37.8634C34.6309 38.5752 33.9405 39.4047 33.105 40.3593C33.463 40.3471 33.8111 40.3342 34.1495 40.3208C37.7023 40.1797 40.7925 38.9075 42.9981 36.7513C45.2065 34.5923 46.5 31.5738 46.5 28C46.5 22.3686 43.2904 18.1501 38.4376 16.4673C38.1343 12.7914 36.7337 9.60189 34.4383 7.3017C32.0702 4.92856 28.7779 3.5309 24.8404 3.50295Z"></path><path fill="currentColor" d="M27.9456 32.4619L27.5921 23.2851C27.5359 21.8264 26.6455 20.5681 25.1897 20.4613C24.8385 20.4356 24.4432 20.4199 24.001 20.4199C23.5588 20.4199 23.1635 20.4356 22.8124 20.4613C21.3565 20.5681 20.466 21.8265 20.4098 23.2852L20.0563 32.4619C18.6949 32.4933 17.5804 32.5398 16.6728 32.5923C14.7699 32.7024 13.9572 34.5015 15.1463 35.9911C15.8617 36.8872 16.795 37.9969 18.001 39.3376C19.9143 41.4645 21.3699 42.7195 22.368 43.4501C23.3688 44.1826 24.6332 44.1827 25.634 43.4502C26.6321 42.7197 28.0878 41.4647 30.001 39.3376C31.2064 37.9973 32.1394 36.8878 32.8547 35.9918C34.0441 34.5019 33.2312 32.7023 31.328 32.5922C30.4206 32.5398 29.3065 32.4933 27.9456 32.4619Z"></path></svg>