<svg xmlns="http://www.w3.org/2000/svg" fill="none" viewBox="0 0 48 48"><path fill="currentColor" fill-rule="evenodd" d="M10.5848 12.9619C11.1247 6.48328 16.5405 1.5 23.0416 1.5H24.9584C31.4595 1.5 36.8753 6.48328 37.4152 12.9619L37.9845 19.7931L38.0434 19.796C41.2107 19.9531 43.8813 22.2333 44.1883 25.5221C44.3606 27.3677 44.5 29.8379 44.5 33C44.5 36.1621 44.3606 38.6323 44.1883 40.478C43.8813 43.7667 41.2107 46.0469 38.0434 46.204C35.082 46.351 30.4807 46.5 24 46.5C17.5193 46.5 12.918 46.351 9.95657 46.204C6.7893 46.0469 4.11872 43.7667 3.81169 40.4779C3.63938 38.6323 3.5 36.1621 3.5 33C3.5 29.8379 3.63939 27.3677 3.81169 25.5221C4.11872 22.2333 6.7893 19.9531 9.95657 19.796L10.0155 19.7931L10.5848 12.9619ZM28.7945 14.0207L29.1187 19.5332C27.5634 19.5123 25.859 19.5 24 19.5C22.141 19.5 20.4366 19.5123 18.8813 19.5332L19.2055 14.0207C19.3549 11.4822 21.4571 9.5 24 9.5C26.5429 9.5 28.6451 11.4822 28.7945 14.0207ZM28 31C28 32.2715 27.4068 33.4044 26.482 34.137L27.1191 36.8676C27.3395 37.8119 26.8324 38.7496 25.8716 38.8805C25.3656 38.9495 24.7418 39 24 39C23.2582 39 22.6344 38.9495 22.1284 38.8805C21.1676 38.7496 20.6605 37.8119 20.8809 36.8676L21.518 34.137C20.5932 33.4044 20 32.2715 20 31C20 28.7909 21.7909 27 24 27C26.2091 27 28 28.7909 28 31Z" clip-rule="evenodd"></path></svg>