<svg xmlns="http://www.w3.org/2000/svg" fill="none" viewBox="0 0 48 48"><circle cx="12.285" cy="8" r="6" fill="currentColor"></circle><path fill="currentColor" d="M12.2857 16.5C9.07128 16.5 6.48623 16.5934 4.62657 16.6949C2.50918 16.8105 1.08306 18.8125 1.60992 20.8524C3.11704 26.6879 4.67922 31.3335 5.16278 32.7332L6.07647 42.3274C6.22235 43.8593 7.36458 45.146 8.93879 45.3146C9.12437 45.3345 9.31875 45.3538 9.52084 45.3719C10.372 45.4483 11.0866 44.7873 11.1213 43.9541L11.4953 34.9792C11.5064 34.7114 11.7268 34.5 11.9948 34.5H12.5764C12.8445 34.5 13.0648 34.7114 13.076 34.9792L13.4499 43.9541C13.4847 44.7872 14.1993 45.4483 15.0504 45.3719C15.248 45.3542 15.4381 45.3354 15.6199 45.316C17.2011 45.1471 18.346 43.851 18.4845 42.3116L19.3243 32.9759C19.6767 31.9679 21.3505 27.0897 22.9615 20.8524C23.4883 18.8125 22.0622 16.8105 19.9448 16.6949C18.0851 16.5934 15.5001 16.5 12.2857 16.5Z"></path><circle cx="35.539" cy="8" r="6" fill="currentColor"></circle><path fill="currentColor" d="M35.5386 16.5C36.9119 16.5 38.0536 16.5501 38.9637 16.6164C40.8207 16.7518 42.3213 17.9983 42.9406 19.7177C43.8321 22.1931 45.2108 26.3394 46.4056 31.295C46.8391 33.0933 45.7288 34.8798 43.8391 35.0987C43.2755 35.164 42.6201 35.2282 41.8661 35.2854L41.4264 42.342C41.3307 43.8784 40.2229 45.2041 38.6298 45.3571C38.5042 45.3692 38.3739 45.3809 38.2389 45.392C37.3936 45.4617 36.6883 44.8046 36.6508 43.9792L36.3325 36.9773C36.3204 36.7103 36.1004 36.5 35.833 36.5H35.2442C34.9769 36.5 34.7568 36.7103 34.7447 36.9773L34.4264 43.9792C34.3889 44.8045 33.6837 45.4617 32.8383 45.392C32.7034 45.3809 32.573 45.3692 32.4475 45.3571C30.8544 45.2041 29.7465 43.8783 29.6508 42.3419L29.2112 35.2854C28.4571 35.2282 27.8017 35.164 27.2381 35.0987C25.3484 34.8798 24.2381 33.0933 24.6717 31.295C25.8664 26.3394 27.2451 22.1931 28.1366 19.7177C28.7559 17.9983 30.2565 16.7518 32.1135 16.6164C33.0236 16.5501 34.1653 16.5 35.5386 16.5Z"></path></svg>