<svg xmlns="http://www.w3.org/2000/svg" fill="none" viewBox="0 0 48 48"><path fill="currentColor" d="M24.9776 3.73442C25.4713 2.36981 26.8304 1.41323 28.3929 1.6284C37.4862 2.88059 45.1191 10.5136 46.3714 19.6069C46.5866 21.1694 45.63 22.5285 44.2654 23.0222C42.8864 23.5211 40.4886 24.3142 37.7465 24.8855C37.4874 24.3367 37.2044 23.799 36.9113 23.2715C34.0926 18.1977 29.8022 13.9074 24.7285 11.0886C24.1206 10.7509 23.5755 10.4769 23.1131 10.2596C23.6844 7.51491 24.4784 5.1145 24.9776 3.73442Z"></path><path fill="currentColor" d="M34.2888 24.7284C34.5183 25.1414 34.7422 25.5616 34.9499 25.9897C34.6594 30.3643 34.1847 33.8234 33.7909 36.1549C33.3412 38.8169 31.3801 40.8814 28.856 41.6224C22.1284 43.5974 16.6926 44.7935 12.9296 45.4967C11.048 45.8484 9.58447 46.0769 8.58654 46.2179C8.08756 46.2884 7.70496 46.3371 7.44469 46.3684C7.33845 46.3811 7.25258 46.391 7.18751 46.3983C6.09895 46.7014 5.03565 46.4465 4.15891 45.9625L17.0599 33.0615C17.6474 33.3426 18.3053 33.5 19 33.5C21.4853 33.5 23.5 31.4853 23.5 29C23.5 26.5147 21.4853 24.5 19 24.5C16.5147 24.5 14.5 26.5147 14.5 29C14.5 29.6947 14.6574 30.3527 14.9386 30.9402L2.03703 43.8418C1.5522 42.9646 1.29646 41.9003 1.59993 40.8107C1.60721 40.7456 1.61708 40.6598 1.62984 40.5535C1.66112 40.2933 1.70979 39.9107 1.78031 39.4117C1.92135 38.4137 2.14982 36.9502 2.50147 35.0686C3.20473 31.3057 4.40082 25.8699 6.37582 19.1423C7.11685 16.6181 9.18127 14.657 11.8433 14.2074C14.172 13.814 17.6256 13.3395 21.9929 13.0487C22.3643 13.2269 22.7948 13.4462 23.2715 13.7111C27.8579 16.259 31.7409 20.142 34.2888 24.7284Z"></path></svg>