<svg width="24" height="24" viewBox="0 0 24 24" fill="none" xmlns="http://www.w3.org/2000/svg">
<path d="M3.83885 5.8575C6.77986 1.94189 12.8685 0.802505 17.2028 3.49738C21.4826 6.15839 23.0566 11.2745 21.3037 16.0747C19.6485 20.6073 15.2873 22.4032 12.144 20.1231C10.9666 19.269 10.5101 18.1984 10.2895 16.4593L10.1841 15.4714L10.1387 15.074C10.016 14.1399 9.82762 13.7214 9.43435 13.5022C8.89876 13.2037 8.54213 13.1967 7.83887 13.4693L7.48775 13.6149L7.30902 13.6928C6.29524 14.1331 5.62085 14.2878 4.76786 14.1091L4.56761 14.0619L4.40407 14.0153C1.61511 13.1511 1.20202 9.36813 3.83885 5.8575ZM16.7669 10.5796C16.9456 11.2464 17.631 11.6421 18.2978 11.4635C18.9646 11.2848 19.3604 10.5994 19.1817 9.93253C19.003 9.26569 18.3176 8.86997 17.6508 9.04864C16.9839 9.22732 16.5882 9.91274 16.7669 10.5796ZM17.2615 14.0682C17.4402 14.7351 18.1256 15.1308 18.7924 14.9521C19.4592 14.7734 19.855 14.088 19.6763 13.4212C19.4976 12.7544 18.8122 12.3586 18.1454 12.5373C17.4785 12.716 17.0828 13.4014 17.2615 14.0682ZM14.7884 7.57689C14.9671 8.24372 15.6525 8.63945 16.3193 8.46077C16.9861 8.2821 17.3819 7.59668 17.2032 6.92984C17.0245 6.26301 16.3391 5.86728 15.6723 6.04596C15.0054 6.22464 14.6097 6.91006 14.7884 7.57689ZM14.7599 16.5753C14.9386 17.2421 15.624 17.6378 16.2908 17.4592C16.9577 17.2805 17.3534 16.5951 17.1747 15.9282C16.996 15.2614 16.3106 14.8657 15.6438 15.0443C14.9769 15.223 14.5812 15.9084 14.7599 16.5753ZM11.263 6.6053C11.4416 7.27213 12.1271 7.66786 12.7939 7.48918C13.4607 7.3105 13.8565 6.62508 13.6778 5.95825C13.4991 5.29142 12.8137 4.89569 12.1469 5.07437C11.48 5.25304 11.0843 5.93846 11.263 6.6053Z" fill="currentColor"/>
</svg>
