<svg width="24" height="24" viewBox="0 0 24 24" fill="none" xmlns="http://www.w3.org/2000/svg">
<path fill-rule="evenodd" clip-rule="evenodd" d="M9.49827 19.5026C9.49827 18.1213 10.6181 17.0015 11.9994 17.0015C13.3807 17.0015 14.5005 18.1213 14.5005 19.5026C14.5005 20.8839 13.3807 22.0037 11.9994 22.0037C10.6181 22.0037 9.49827 20.8839 9.49827 19.5026Z" fill="currentColor"/>
<path fill-rule="evenodd" clip-rule="evenodd" d="M8.12305 5.87781C8.12305 3.7375 9.85811 2.00244 11.9984 2.00244C14.1387 2.00244 15.8738 3.7375 15.8738 5.87781C15.8738 8.71128 14.8838 12.4318 14.3383 14.2756C14.0288 15.322 13.0651 16.0039 12 16.0039C10.9326 16.0039 9.96785 15.3191 9.65934 14.2708C9.11445 12.4193 8.12305 8.68157 8.12305 5.87781Z" fill="currentColor"/>
</svg>
