<svg width="24" height="24" viewBox="0 0 24 24" fill="none" xmlns="http://www.w3.org/2000/svg">
<path d="M7.24921 4.5H10.7486C11.1628 4.5 11.4986 4.83579 11.4986 5.25C11.4986 5.6297 11.2164 5.94349 10.8504 5.99315L10.7486 6H7.24885C6.06991 5.99944 5.10261 6.90639 5.00697 8.06095L4.9994 8.21986L5.00223 16.7505C5.00255 17.9414 5.92797 18.9159 7.09878 18.9948L7.25283 18.9999L15.7509 18.9882C16.9406 18.9866 17.9136 18.0618 17.9926 16.8921L17.9978 16.7382V13.2319C17.9978 12.8177 18.3336 12.4819 18.7478 12.4819C19.1275 12.4819 19.4413 12.7641 19.491 13.1302L19.4978 13.2319V16.7382C19.4978 18.7405 17.9284 20.3767 15.9519 20.4828L15.753 20.4882L7.25739 20.4999L7.05406 20.4948C5.1415 20.3952 3.60807 18.8626 3.50749 16.95L3.50223 16.7509L3.5 8.25253L3.50441 8.05003C3.6045 6.13732 5.13778 4.60432 7.05008 4.50511L7.24921 4.5H10.7486H7.24921ZM14.0028 3L20.0534 3.00146L20.1529 3.01152L20.2346 3.02756L20.3422 3.05991L20.4607 3.11196L20.5136 3.14222C20.7732 3.29719 20.9561 3.56642 20.9936 3.88033L21.0007 4V10.007C21.0007 10.5593 20.5529 11.007 20.0007 11.007C19.4878 11.007 19.0652 10.621 19.0074 10.1236L19.0007 10.007L19 6.413L12.7062 12.7071C12.3458 13.0676 11.7785 13.0953 11.3862 12.7903L11.292 12.7071C10.9315 12.3466 10.9038 11.7794 11.2088 11.3871L11.292 11.2929L17.584 5H14.0028C13.4899 5 13.0672 4.61396 13.0095 4.11662L13.0028 4C13.0028 3.44772 13.4505 3 14.0028 3Z" fill="currentColor"/>
</svg>
