<svg width="24" height="24" viewBox="0 0 24 24" fill="none" xmlns="http://www.w3.org/2000/svg">
<path d="M12.0132 2.25005C12.7471 2.25851 13.4782 2.34331 14.1947 2.50309C14.5074 2.57283 14.7413 2.83356 14.7768 3.15201L14.947 4.67886C15.024 5.37991 15.6159 5.91089 16.3216 5.91163C16.5113 5.91193 16.6989 5.87243 16.8742 5.79488L18.2748 5.17961C18.5661 5.05164 18.9064 5.12141 19.1239 5.35367C20.1361 6.43469 20.8899 7.7312 21.3287 9.14563C21.4233 9.45063 21.3144 9.78208 21.0573 9.97155L19.8159 10.8866C19.4617 11.1468 19.2526 11.5601 19.2526 11.9995C19.2526 12.439 19.4617 12.8522 19.8166 13.1129L21.0592 14.0283C21.3163 14.2178 21.4253 14.5493 21.3307 14.8543C20.8921 16.2685 20.1387 17.5649 19.1271 18.6461C18.9098 18.8784 18.5697 18.9483 18.2785 18.8207L16.8721 18.2046C16.4698 18.0285 16.0077 18.0543 15.6275 18.274C15.2473 18.4938 14.9942 18.8812 14.9459 19.3178L14.7769 20.8445C14.742 21.1593 14.5131 21.4182 14.205 21.4915C12.7566 21.8362 11.2475 21.8362 9.79901 21.4915C9.49088 21.4182 9.26202 21.1593 9.22716 20.8445L9.05834 19.32C9.00875 18.8843 8.75532 18.498 8.3754 18.279C7.99549 18.06 7.53418 18.0343 7.13318 18.2094L5.72655 18.8257C5.4352 18.9533 5.09501 18.8833 4.87776 18.651C3.8656 17.5685 3.11217 16.2706 2.67418 14.8548C2.57984 14.5499 2.68884 14.2187 2.94582 14.0293L4.18915 13.1134C4.54329 12.8532 4.75245 12.44 4.75245 12.0005C4.75245 11.5611 4.54329 11.1478 4.18869 10.8873L2.94614 9.9729C2.68877 9.7835 2.57967 9.45183 2.67434 9.14663C3.1131 7.7322 3.86692 6.43569 4.8791 5.35467C5.09657 5.12241 5.43691 5.05264 5.72822 5.18061L7.1286 5.79577C7.53154 5.97261 7.99478 5.9459 8.37675 5.72274C8.75707 5.50214 9.01026 5.11427 9.05914 4.67769L9.22922 3.15201C9.26474 2.8334 9.49884 2.57259 9.81178 2.50299C10.5291 2.34347 11.2609 2.2587 12.0132 2.25005ZM12.0007 9C10.3438 9 9.00067 10.3431 9.00067 12C9.00067 13.6569 10.3438 15 12.0007 15C13.6575 15 15.0007 13.6569 15.0007 12C15.0007 10.3431 13.6575 9 12.0007 9Z" fill="currentColor"/>
</svg>
