<svg viewBox="0 0 24 24" xmlns="http://www.w3.org/2000/svg"><path d="M17.751 3l.185.005a3.25 3.25 0 013.06 3.06l.005.185v11.5l-.005.184A3.25 3.25 0 0117.751 21H6.25a3.25 3.25 0 01-3.245-3.066L3 17.75V6.25a3.25 3.25 0 013.066-3.245L6.25 3h11.501zM19.5 8H4.501L4.5 17.75a1.75 1.75 0 001.606 1.744l.144.006h11.501l.144-.006a1.75 1.75 0 001.6-1.593l.006-.151L19.5 8zm-9.25 1.5a.75.75 0 01.743.648l.007.102v7a.75.75 0 01-.648.743L10.25 18h-3.5a.75.75 0 01-.743-.648L6 17.25v-7a.75.75 0 01.648-.743L6.75 9.5h3.5zM9.5 11h-2v5.5h2V11zm6.75 1.503a.75.75 0 01.102 1.493l-.102.007h-3.496a.75.75 0 01-.101-1.493l.101-.007h3.496zm1-3.003a.75.75 0 01.102 1.493L17.25 11h-4.496a.75.75 0 01-.101-1.493l.101-.007h4.496z" fill="currentColor" fill-rule="nonzero"/></svg>