<svg viewBox="0 0 24 24" xmlns="http://www.w3.org/2000/svg"><path d="M19.75 7.397c.183 0 .35.065.48.174l.073.069A6.513 6.513 0 0122 12.035c0 3.525-2.785 6.397-6.267 6.52l-.233.004H8.564l1.9 1.906.066.077a.755.755 0 01-.067.988.748.748 0 01-.976.072l-.084-.072-3.182-3.194-.067-.077a.755.755 0 01-.006-.902l.073-.086 3.182-3.193.077-.067a.748.748 0 01.899-.006l.084.073.067.077a.755.755 0 01.007.902l-.074.085-1.905 1.912H15.5c2.761 0 5-2.247 5-5.019 0-1.31-.5-2.504-1.32-3.398a.751.751 0 01.57-1.24zm-5.217-4.994l.077.067 3.182 3.194c.269.27.291.692.067.987l-.067.078-3.182 3.193a.748.748 0 01-1.06 0 .755.755 0 01-.068-.987l.068-.077 1.831-1.84H8.5c-2.761 0-5 2.246-5 5.017 0 1.214.43 2.328 1.144 3.196l.2.23a.751.751 0 01-1.08 1.033l-.072-.069A6.513 6.513 0 012 12.035c0-3.524 2.785-6.396 6.267-6.52l.233-.003h7.021L13.55 3.535a.755.755 0 01-.068-.987l.068-.078a.748.748 0 01.983-.067z" fill="currentColor" fill-rule="nonzero"/></svg>