<svg viewBox="0 0 24 24" fill="none" xmlns="http://www.w3.org/2000/svg"><path d="M7.5 2.75a.75.75 0 00-1.5 0v3a1.75 1.75 0 001.435 1.722L6.34 10.44a2.75 2.75 0 00.108 2.155l4.158 8.534a1.55 1.55 0 002.786 0l4.11-8.437a2.75 2.75 0 00.014-2.381L16.184 7.5h.065A1.75 1.75 0 0018 5.75v-3a.75.75 0 00-1.5 0v3a.25.25 0 01-.25.25h-8.5a.25.25 0 01-.25-.25v-3zm7.025 4.75l1.636 3.453c.162.343.16.741-.006 1.082l-3.405 6.99v-6.726a1.5 1.5 0 10-1.5 0v6.725l-3.452-7.086a1.25 1.25 0 01-.05-.98L9.024 7.5h5.502z" fill="currentColor"/></svg>
