<svg viewBox="0 0 24 24" xmlns="http://www.w3.org/2000/svg"><path d="M11.99 8.002a.75.75 0 01.743.649l.007.101-.002 9.708 2.657-2.66.084-.072a.75.75 0 011.049 1.05l-.073.083-3.925 3.925-.084.073a.75.75 0 01-.882.007l-.094-.08-3.925-3.925-.073-.084a.75.75 0 01-.007-.882l.08-.094.084-.073a.75.75 0 01.882-.007l.094.08 2.636 2.636-.001-9.685a.75.75 0 01.75-.75zM11.75 2a6.005 6.005 0 015.689 4.086l.105-.004a3.96 3.96 0 010 7.92h-2.797a.75.75 0 010-1.5h2.797a2.46 2.46 0 10-.507-4.868.75.75 0 01-.86-.483l-.028-.104-.048-.203A4.504 4.504 0 007.4 6.842l-.045.187-.002.02a.749.749 0 01-.411.524l-.099.038-.041.012-.061.013a.64.64 0 01-.074.009h-.1l-.102-.015a2.462 2.462 0 10-.664 4.867l.162.005h2.79a.75.75 0 01.101 1.493l-.102.007h-2.79a3.962 3.962 0 010-7.923l.102.001A6.004 6.004 0 0111.75 2z" fill="currentColor" fill-rule="nonzero"/></svg>