<svg viewBox="0 0 24 24" fill="none" xmlns="http://www.w3.org/2000/svg"><path d="M5.009 5.009A3.25 3.25 0 018.25 2h9A4.75 4.75 0 0122 6.75v6a3.25 3.25 0 01-3.009 3.241A3.25 3.25 0 0115.75 19h-5.083L7 21.75c-.824.618-2 .03-2-1v-1.76a3.25 3.25 0 01-3-3.24v-7.5a3.25 3.25 0 013.009-3.241zM6.518 5h9.232A3.25 3.25 0 0119 8.25v6.232a1.75 1.75 0 001.5-1.732v-6a3.25 3.25 0 00-3.25-3.25h-9A1.75 1.75 0 006.518 5zM5.25 17.5H6.5v2.75l3.667-2.75h5.583a1.75 1.75 0 001.75-1.75v-7.5a1.75 1.75 0 00-1.75-1.75H5.25A1.75 1.75 0 003.5 8.25v7.5c0 .966.784 1.75 1.75 1.75z" fill="currentColor"/></svg>