<svg viewBox="0 0 24 24" fill="none" xmlns="http://www.w3.org/2000/svg"><path d="M21.03 2.97a3.578 3.578 0 010 5.06l-2.644 2.644a6.45 6.45 0 00-1.579-.542L17.94 9 15 6.06 5.062 16a.75.75 0 00-.193.333l-1.05 3.85 3.85-1.05A.75.75 0 008 18.937l1.13-1.13c.114.555.298 1.084.544 1.579l-.613.612a2.25 2.25 0 01-.999.58l-5.116 1.395a.75.75 0 01-.92-.921l1.395-5.116a2.25 2.25 0 01.58-.999L15.97 2.97a3.578 3.578 0 015.06 0zM15.5 11c.293 0 .58.024.86.072l.174.716a2 2 0 002.413 1.475l.098-.026.601-.179c.363.467.653.997.854 1.57l-.447.43a2 2 0 00-.17 2.7l.142.156.475.457c-.2.574-.49 1.103-.853 1.57l-.602-.178a2 2 0 00-2.485 1.351l-.026.098-.173.716a5.168 5.168 0 01-1.723 0l-.172-.716a2 2 0 00-2.413-1.475l-.098.026-.602.178a5.546 5.546 0 01-.853-1.57l.447-.43a2 2 0 00.055-2.828l-.055-.054-.447-.43c.2-.574.491-1.103.853-1.57l.602.178a2 2 0 002.485-1.351l.026-.098.172-.716c.28-.047.569-.072.862-.072zm0 4c-.8 0-1.45.672-1.45 1.5S14.7 18 15.5 18c.8 0 1.45-.672 1.45-1.5S16.3 15 15.5 15zm1.53-10.97l-.97.97L19 7.94l.97-.97a2.079 2.079 0 00-2.94-2.94z" fill="currentColor"/></svg>
