<svg viewBox="0 0 24 24" xmlns="http://www.w3.org/2000/svg"><path d="M18 12.5a4.5 4.5 0 014.5 4.5c0 1.863-1.42 3.815-4.2 5.9a.5.5 0 01-.6 0c-2.78-2.085-4.2-4.037-4.2-5.9a4.5 4.5 0 014.5-4.5zM12 1.999c5.524 0 10.002 4.478 10.002 10.002 0 .39-.023.777-.067 1.157a5.516 5.516 0 00-1.434-1.058V12c0-.689-.082-1.36-.236-2.001h-3.358c.05.519.08 1.05.09 1.592-.529.098-1.031.27-1.496.508v-.098c0-.691-.036-1.36-.104-2.001H8.603a18.967 18.967 0 00.135 5h4.137a5.469 5.469 0 00-.353 1.5h-3.46c.651 2.414 1.785 4.002 2.938 4.002.455 0 .907-.247 1.327-.694.361.616.832 1.221 1.399 1.818-.867.245-1.781.376-2.726.376-5.524 0-10.002-4.478-10.002-10.001C1.998 6.477 6.476 1.998 12 1.998zM7.508 16.501H4.786a8.532 8.532 0 004.094 3.41c-.522-.82-.953-1.846-1.27-3.015l-.102-.395zM18 15.5a1.5 1.5 0 100 3 1.5 1.5 0 000-3zM7.093 10H3.736l-.005.017a8.524 8.524 0 00-.233 1.984c0 1.056.193 2.067.545 3h3.173a20.301 20.301 0 01-.218-3c0-.684.033-1.354.095-2.001zm1.788-5.91l-.023.008A8.531 8.531 0 004.25 8.5h3.048c.314-1.752.86-3.278 1.583-4.41zM12 3.499l-.116.005C10.62 3.62 9.396 5.622 8.83 8.5h6.342c-.566-2.87-1.783-4.869-3.045-4.995L12 3.5zm3.12.59l.107.175c.67 1.112 1.177 2.572 1.475 4.237h3.048a8.534 8.534 0 00-4.339-4.29l-.291-.121z" fill="currentColor" fill-rule="nonzero"/></svg>
