<svg viewBox="0 0 24 24" xmlns="http://www.w3.org/2000/svg"><path d="M14.75 15c.966 0 1.75.784 1.75 1.75l-.001.962c.117 2.19-1.511 3.297-4.432 3.297-2.91 0-4.567-1.09-4.567-3.259v-1c0-.966.784-1.75 1.75-1.75h5.5zm0 1.5h-5.5a.25.25 0 00-.25.25v1c0 1.176.887 1.759 3.067 1.759 2.168 0 2.996-.563 2.933-1.757V16.75a.25.25 0 00-.25-.25zm-11-6.5h4.376a4.007 4.007 0 00-.095 1.5H3.75a.25.25 0 00-.25.25v1c0 1.176.887 1.759 3.067 1.759.462 0 .863-.026 1.207-.077a2.743 2.743 0 00-1.173 1.576l-.034.001C3.657 16.009 2 14.919 2 12.75v-1c0-.966.784-1.75 1.75-1.75zm16.5 0c.966 0 1.75.784 1.75 1.75l-.001.962c.117 2.19-1.511 3.297-4.432 3.297l-.168-.002a2.756 2.756 0 00-1.219-1.606c.387.072.847.108 1.387.108 2.168 0 2.996-.563 2.933-1.757V11.75a.25.25 0 00-.25-.25h-4.28a4.04 4.04 0 00-.096-1.5h4.376zM12 8a3 3 0 110 6 3 3 0 010-6zm0 1.5a1.5 1.5 0 100 3 1.5 1.5 0 000-3zM6.5 3a3 3 0 110 6 3 3 0 010-6zm11 0a3 3 0 110 6 3 3 0 010-6zm-11 1.5a1.5 1.5 0 100 3 1.5 1.5 0 000-3zm11 0a1.5 1.5 0 100 3 1.5 1.5 0 000-3z" fill="currentColor" fill-rule="nonzero"/></svg>