<svg viewBox="0 0 24 24" xmlns="http://www.w3.org/2000/svg"><path d="M8.255 9c.967 0 1.75.783 1.75 1.75v9.5A1.75 1.75 0 018.255 22H3.751A1.75 1.75 0 012 20.25v-9.5C2 9.783 2.784 9 3.75 9h4.504zm0 1.5H3.751a.25.25 0 00-.25.25v9.5c0 .138.112.25.25.25h4.504a.25.25 0 00.25-.25v-9.5a.25.25 0 00-.25-.25zM6.25 18a.75.75 0 01.102 1.493l-.102.007h-.5a.75.75 0 01-.102-1.493L5.75 18h.5zm13.5-16a2.25 2.25 0 012.245 2.096L22 4.25v9a2.25 2.25 0 01-2.096 2.245l-.154.005h-3.746v2h1.246a.75.75 0 01.102 1.493L17.25 19H11v-1.5h3.504v-2H11V14h8.75a.75.75 0 00.743-.648l.007-.102v-9a.75.75 0 00-.75-.75H6.25a.75.75 0 00-.743.648L5.5 4.25V8H4V4.25a2.25 2.25 0 012.096-2.245L6.25 2h13.5z" fill="currentColor" fill-rule="nonzero"/></svg>