<svg viewBox="0 0 24 24" xmlns="http://www.w3.org/2000/svg"><path d="M8.632 19.28a.75.75 0 01.073.977l-.073.084L7.574 21.4a.75.75 0 01-1.134-.977l.073-.084 1.059-1.058a.75.75 0 011.06 0zM6.69 17.334a.75.75 0 01.072.976l-.072.085-2.475 2.474a.75.75 0 01-1.133-.976l.072-.084 2.475-2.475a.75.75 0 011.06 0zM18.778 2.232l.258.075.662.205a2.75 2.75 0 011.747 1.628l.064.182.206.665a6.75 6.75 0 01-1.487 6.583l-.186.193-.998.998a3.498 3.498 0 01-.183 4.415l-.145.152-1.242 1.243a.75.75 0 01-.977.073l-.084-.073-1.59-1.59-.176.177a1.75 1.75 0 01-2.35.114l-.125-.114-.497-.497-.798 1.395a.75.75 0 01-1.093.233l-.088-.075-3.89-3.89a.75.75 0 01.076-1.126l.083-.055 1.396-.796-.496-.495a1.75 1.75 0 01-.113-2.35l.113-.125.18-.18-1.59-1.591a.75.75 0 01-.073-.977l.072-.084 1.243-1.242a3.498 3.498 0 014.402-.445l.167.118.996-.996a6.75 6.75 0 016.516-1.748zM4.745 15.39a.75.75 0 010 1.061l-1.06 1.06a.75.75 0 01-1.061-1.06l1.06-1.06a.75.75 0 011.061 0zm13.22-1.548l-2.08 2.08 1.059 1.06.712-.713c.658-.658.76-1.661.308-2.427zm-9.505-.394l-.898.512 2.5 2.5.514-.897-2.116-2.115zm5.038-8.574l-.175.168-5.397 5.396a.25.25 0 00-.04.3l.04.054 5.307 5.307a.25.25 0 00.3.04l.053-.04 5.395-5.396a5.25 5.25 0 001.368-5.036l-.066-.234-.207-.664a1.25 1.25 0 00-.695-.776l-.128-.047-.662-.206a5.25 5.25 0 00-5.093 1.134zm3.095 2.558a2.5 2.5 0 11-3.536 3.536 2.5 2.5 0 013.536-3.536zm-2.475 1.06a1 1 0 101.414 1.415 1 1 0 00-1.414-1.414zM7.885 6.248l-.128.117-.712.712 1.06 1.06 2.081-2.08a1.998 1.998 0 00-2.301.19z" fill="currentColor" fill-rule="nonzero"/></svg>