<svg viewBox="0 0 24 24" fill="none" xmlns="http://www.w3.org/2000/svg"><path d="M7.25 16a1.25 1.25 0 110 2.499 1.25 1.25 0 010-2.499zm3.5.5h10.5a.75.75 0 01.102 1.493L21.25 18h-10.5a.75.75 0 01-.102-1.493l.102-.007zM3.249 11a1.25 1.25 0 110 2.499 1.25 1.25 0 010-2.499zm3.5.5H21.25a.75.75 0 01.102 1.493L21.25 13H6.75a.75.75 0 01-.102-1.493l.102-.007zM3.25 6a1.25 1.25 0 110 2.499A1.25 1.25 0 013.25 6zm3.501.5h14.5a.75.75 0 01.102 1.493L21.25 8H6.75a.75.75 0 01-.102-1.493L6.75 6.5z" fill="currentColor"/></svg>
