<svg viewBox="0 0 24 24" xmlns="http://www.w3.org/2000/svg"><path d="M15.25 13c.966 0 1.75.784 1.75 1.75v4.5A1.75 1.75 0 0115.25 21H3.75A1.75 1.75 0 012 19.25v-4.5c0-.966.783-1.75 1.75-1.75h11.5zM21 14.899v5.351a.75.75 0 01-1.493.102l-.007-.102v-5.338a3.007 3.007 0 001.5-.013zm-5.75-.399H3.75a.25.25 0 00-.25.25v4.5c0 .138.112.25.25.25h11.5a.25.25 0 00.25-.25v-4.5a.25.25 0 00-.25-.25zm5-4.408a1.908 1.908 0 110 3.816 1.908 1.908 0 010-3.816zM15.244 3c.967 0 1.75.784 1.75 1.75v4.5a1.75 1.75 0 01-1.75 1.75h-11.5a1.75 1.75 0 01-1.75-1.75v-4.5a1.75 1.75 0 011.607-1.744L3.745 3h11.5zm0 1.5h-11.5l-.057.007a.25.25 0 00-.193.243v4.5c0 .138.112.25.25.25h11.5a.25.25 0 00.25-.25v-4.5a.25.25 0 00-.25-.25zM20.25 3a.75.75 0 01.743.648L21 3.75v5.351a3.004 3.004 0 00-1.5-.013V3.75a.75.75 0 01.75-.75z" fill="currentColor" fill-rule="nonzero"/></svg>
