<svg viewBox="0 0 24 24" xmlns="http://www.w3.org/2000/svg"><path d="M10.91 2.782a2.25 2.25 0 012.975.74l.083.138 7.759 14.008a2.25 2.25 0 01-1.814 3.335l-.154.006H4.243a2.25 2.25 0 01-2.041-3.197l.072-.143L10.031 3.66a2.25 2.25 0 01.878-.878zm9.505 15.613l-7.76-14.008a.75.75 0 00-1.254-.088l-.058.088-7.756 14.008a.75.75 0 00.561 1.108l.095.006h15.516a.75.75 0 00.696-1.028l-.04-.086-7.76-14.008 7.76 14.008zM12 16.002a.999.999 0 110 1.997.999.999 0 010-1.997zM11.996 8.5a.75.75 0 01.744.647l.007.102.003 4.502a.75.75 0 01-1.493.103l-.007-.102-.003-4.502a.75.75 0 01.75-.75z" fill="currentColor" fill-rule="nonzero"/></svg>