<svg viewBox="0 0 24 24" xmlns="http://www.w3.org/2000/svg"><g stroke-linecap="round" stroke="currentColor" fill="none" stroke-linejoin="round"><path d="M9.164 22.251l0 0c-1.38-2.4-4.44-3.22-6.83-1.84 -.77.43-1.4 1.07-1.84 1.83"/><path d="M2.255 13.73l0 0c1.43 1.48 3.63 1.92 5.53 1.11"/><path d="M4.83 12.24a3 3 0 1 0 0 6 3 3 0 1 0 0-6Z"/><path d="M23.5 22.251l0 0c-1.38-2.4-4.44-3.22-6.83-1.84 -.77.43-1.4 1.07-1.84 1.83"/><path d="M16.591 13.73l0 0c1.43 1.48 3.63 1.92 5.53 1.11"/><path d="M19.16 12.24a3 3 0 1 0 0 6 3 3 0 1 0 0-6Z"/><path d="M20 3.75l-3 3"/><path d="M17 3.75l3 3"/><path d="M7.283 3.585l-1.94 2.58 -.01 0c-.17.22-.48.26-.71.09 -.02-.02-.04-.03-.06-.05l-1-1"/><path d="M10.5 8.24v0c0 .55-.45 1-1 1h-2v2l-2.5-2H1.5l-.01-.001c-.56-.01-1-.45-1-1.01 0 0 0 0 0 0v-6l0 0c-.01-.56.44-1.01.99-1.01h8l-.01 0c.55-.01 1 .44 1 .99Z"/><path d="M13.5 8.24l0 0c0 .55.44.99 1 .99h2v2l2.5-2h3.5l-.01-.001c.55 0 1-.45 1-1v-6 0c0-.56-.45-1-1-1h-8l-.01 0c-.56 0-1 .44-1 1 0 0 0 0 0 0Z"/></g></svg>