<svg viewBox="0 0 24 24" xmlns="http://www.w3.org/2000/svg"><g stroke-linecap="round" stroke="currentColor" fill="none" stroke-linejoin="round"><path d="M9.5 23.5l0-9"/><path d="M4.5 23.5l5-9 5 9"/></g><g transform="translate(13.725 3.541)"><path fill="none" stroke="currentColor" stroke-linecap="round" stroke-linejoin="round" d="M2.823 9.613h3v3 0c0 .55-.45 1-1 1h-1l-.01-.001c-.56-.01-1-.45-1-1.01 0 0 0 0 0 0v-3Z" transform="matrix(.34582.9383-.93831.34582 0 0)"/></g><g transform="translate(15.027-1.439)"><path fill="none" stroke="currentColor" stroke-linecap="round" stroke-linejoin="round" d="M6.045 7.55h5v4 0c0 .55-.45 1-1 1h-3l-.01-.001c-.56-.01-1-.45-1-1.01 0 0 0 0 0 0v-4Z" transform="matrix(.34582.9383-.93831.34582 0 0)"/></g><g stroke-linecap="round" stroke="currentColor" fill="none" stroke-linejoin="round"><path d="M12.992 12.22l-.01 0c-.51.14-1.04-.13-1.22-.62L9.97 6.76l-.01-.01c-.19-.49.04-1.04.52-1.26l4.1-1.89 -.01 0c.5-.24 1.09-.01 1.32.49 .01.02.02.04.02.07l2.02 5.48 0 0c.19.51-.08 1.09-.6 1.28 -.03 0-.05.01-.08.02Z"/><path d="M20.875 18.8l2.54-.96 -.01 0c.06-.03.09-.1.07-.17 -.02-.04-.04-.07-.08-.08l-2.55-.96 0 0c-.04-.02-.07-.04-.08-.08l-.96-2.55 0 0c-.03-.07-.1-.1-.17-.08 -.04.01-.07.03-.08.07l-.96 2.54 0-.01c-.02.03-.04.06-.08.07l-2.55.95 0-.01c-.07.02-.1.09-.08.16 .01.03.03.06.07.07l2.54.95 -.01-.01c.03.01.06.03.07.07l.95 2.54 -.01-.01c.02.06.09.09.16.07 .03-.02.06-.04.07-.08l.95-2.55 -.01 0c.01-.04.03-.07.07-.08Z"/><path d="M3.5.5l-.79 2.1 0-.01c-.02.05-.06.09-.11.11l-2.11.79 2.1.78 -.01-.01c.05.01.09.05.11.1l.79 2.1 .78-2.1 -.01 0c.01-.06.05-.1.1-.12l2.1-.79 -2.1-.79 0 0c-.06-.02-.1-.06-.12-.11L3.44.44"/></g></svg>