<svg viewBox="0 0 24 24" xmlns="http://www.w3.org/2000/svg"><g stroke-linecap="round" stroke="currentColor" fill="none" stroke-linejoin="round"><rect width="23" height="23" x=".5" y=".5" rx="2"/><path d="M.5 5.5l23 0"/><rect width="7" height="5" x="13.5" y="8.5" rx=".5"/><rect width="7" height="5" x="13.5" y="15.5" rx=".5"/><rect width="7" height="8" x="3.5" y="8.5" rx=".5"/><path d="M7 10.5a1.5 1.5 0 1 0 0 3 1.5 1.5 0 1 0 0-3Z"/><path d="M4.5 16.5l-.01-.01c-.13-1.52.98-2.86 2.5-3l0 0c1.51.14 2.62 1.48 2.5 3"/><path d="M4 18.5l4 0"/><path d="M4 20.5l4 0"/><path d="M4 2.75l-.01 0c.13-.01.25.11.25.24s-.12.25-.25.25c-.14 0-.25-.12-.26-.25l0 0c-.01-.14.11-.26.24-.26 0-.001 0-.001 0-.001"/><path d="M7 2.75l-.01 0c.13-.01.25.11.25.24s-.12.25-.25.25c-.14 0-.25-.12-.26-.25l0 0c-.01-.14.11-.26.24-.26 0-.001 0-.001 0-.001"/><path d="M10 2.75l-.01 0c.13-.01.25.11.25.24s-.12.25-.25.25c-.14 0-.25-.12-.26-.25l0 0c-.01-.14.11-.26.24-.26 0-.001 0-.001 0-.001"/></g></svg>