<svg viewBox="0 0 24 24" xmlns="http://www.w3.org/2000/svg"><g stroke-linecap="round" stroke="currentColor" fill="none" stroke-linejoin="round"><path d="M12 22l0 1.5"/><path d="M15 17.28v2.71c0 1.42-1.2 2-3 2s-3-.58-3-2v-2.72"/><path d="M12 17.19l0-4.2 -2-2"/><path d="M14.5 17.5l-.01 0c2.45-.98 4.04-3.37 4-6l0 0c-.07-3.57-2.94-6.44-6.5-6.51l-.01 0c-3.57.06-6.44 2.93-6.5 6.5l-.01 0c-.05 2.63 1.54 5.02 4 5.99Z"/><path d="M9 19.5l6 0"/><path d="M12 .5l0 2"/><path d="M1 10.5l2.29 0"/><path d="M3.5 3l2 2"/><path d="M23 10.5l-2.29 0"/><path d="M20.5 3l-2 2"/><path d="M12 13l2-2"/></g></svg>