<svg viewBox="0 0 24 24" xmlns="http://www.w3.org/2000/svg"><g stroke-linecap="round" stroke="currentColor" fill="none" stroke-linejoin="round"><path d="M23 .5l-.01 0C16.07.51 9.78 4.52 6.84 10.78L.48 23.49"/><path d="M3 18.5l0-.001c4.76-.01 9.06-2.89 10.86-7.3 .23-.57.48-1.1.73-1.6l-1.4-1.4 0 0c-.17-.17-.16-.43 0-.59 .07-.08.18-.12.29-.12h2.32l0-.01c1.69-2.71 4.22-4.77 7.21-5.88l-.01 0c.27-.09.45-.35.45-.63V.95v0c0-.28-.23-.5-.5-.5 0 0-.01 0-.01 0"/><path d="M10.11 16.11L8.5 14.5"/><path d="M12.14 14.14L10.5 12.5"/></g></svg>