<svg viewBox="0 0 24 24" xmlns="http://www.w3.org/2000/svg"><g stroke-linecap="round" stroke="currentColor" fill="none" stroke-linejoin="round"><path d="M12.589 5.109l1.282 2.641h2.49l-.01 0c.33-.02.62.24.63.58 0 .18-.07.36-.21.48l-2.17 2.263 1.2 2.76 0 0c.13.33-.02.71-.35.85 -.19.07-.41.06-.59-.04l-2.91-1.64 -2.9 1.63 0-.01c-.32.18-.72.07-.9-.24 -.11-.18-.12-.4-.04-.59l1.2-2.77 -2.17-2.27 -.01-.01c-.26-.23-.28-.62-.06-.87 .12-.14.29-.22.48-.21h2.5l1.28-2.641 0-.01c.17-.33.57-.45.89-.28 .11.06.21.15.27.27Z"/><path d="M17.99 13.752l1.03-2.215 0-.01c.13-.27.45-.37.71-.23 .09.05.17.12.22.22l1.02 2.215h2l-.01 0c.27-.02.49.19.5.47 0 .14-.06.28-.17.38l-1.74 1.7 .96 2.2 -.01-.01c.11.26-.02.57-.28.68 -.16.06-.33.05-.47-.04l-2.33-1.31 -2.33 1.3 0-.01c-.25.14-.57.06-.72-.19 -.09-.15-.1-.32-.04-.47l.55-1.27"/><path d="M7.032 17.271l.54 1.25 -.01-.01c.11.26-.02.57-.28.68 -.16.06-.33.05-.47-.04l-2.33-1.31 -2.33 1.3 0-.01c-.25.14-.57.06-.72-.19 -.09-.15-.1-.32-.04-.47l.96-2.21L.61 14.55l0 0c-.21-.18-.23-.49-.05-.7 .09-.12.23-.18.38-.17h2l1.03-2.215 0-.01c.13-.27.45-.37.71-.23 .09.05.17.12.22.22l1.02 2.215"/></g></svg>