<svg xmlns="http://www.w3.org/2000/svg" fill="none" viewBox="0 0 100 100"><path stroke="currentColor" stroke-linecap="round" stroke-linejoin="round" d="M83.436 33.673C83.2519 33.0131 82.8575 32.4314 82.3125 32.0163C81.7676 31.6011 81.102 31.3752 80.417 31.373C81.2012 33.2382 81.742 35.1967 82.026 37.2C82.6134 36.8462 83.069 36.3101 83.3236 35.6734C83.5781 35.0367 83.6176 34.3342 83.436 33.673Z"></path><path stroke="currentColor" stroke-linecap="round" stroke-linejoin="round" d="M69.4193 34.2718L65.3652 35.3917L67.0451 41.4729L71.0993 40.353L69.4193 34.2718Z"></path><path stroke="currentColor" stroke-linecap="round" stroke-linejoin="round" d="M65.365 35.392C64.9624 35.4994 64.5852 35.6855 64.255 35.9395C63.9248 36.1936 63.6481 36.5105 63.4411 36.872C63.234 37.2335 63.1005 37.6324 63.0484 38.0458C62.9963 38.4591 63.0266 38.8787 63.1376 39.2803C63.2485 39.6818 63.4379 40.0575 63.6947 40.3855C63.9516 40.7135 64.2709 40.9874 64.6342 41.1913C64.9974 41.3953 65.3975 41.5253 65.8113 41.5738C66.2251 41.6223 66.6444 41.5884 67.045 41.474L65.365 35.392Z"></path><path stroke="currentColor" stroke-linecap="round" stroke-linejoin="round" d="M71.665 42.4L71.099 40.354L68.058 41.194L68.627 43.251"></path><path stroke="currentColor" stroke-linecap="round" stroke-linejoin="round" d="M69.419 34.272L77.419 27.698C77.419 27.698 79.726 28.151 81.406 34.233C83.086 40.315 81.339 41.888 81.339 41.888L71.1 40.354L69.419 34.272Z"></path><path stroke="currentColor" stroke-linecap="round" stroke-linejoin="round" d="M63.296 92.004L60.159 74.442H44.438L41.307 91.969"></path><path stroke="currentColor" stroke-linecap="round" stroke-linejoin="round" d="M47.119 92.894L50.919 79.241C50.9402 78.8905 51.0943 78.5614 51.3499 78.3207C51.6055 78.08 51.9434 77.946 52.2945 77.946C52.6456 77.946 52.9835 78.08 53.2391 78.3207C53.4948 78.5614 53.6489 78.8905 53.67 79.241L57.4 92.6"></path><path stroke="currentColor" stroke-linecap="round" stroke-linejoin="round" d="M69.085 47.055C69.874 49.289 68.428 50.255 66.585 50.255H54.731L52.112 52.936L49.506 50.43C40.117 51.507 35.06 58.121 32.5 68.387L36.706 70.079C39.506 61.404 41.657 58.206 44.441 57.198V74.442H60.159V54.735H67.672C68.7039 54.7497 69.7227 54.5024 70.633 54.0163C71.5433 53.5301 72.3154 52.8209 72.877 51.9551C73.4386 51.0893 73.7713 50.0951 73.8441 49.0657C73.9168 48.0362 73.7272 47.0052 73.293 46.069"></path><path stroke="currentColor" stroke-linecap="round" stroke-linejoin="round" d="M44.438 72.023C44.445 69.928 44.438 65.217 44.438 58.799"></path><path stroke="currentColor" stroke-linecap="round" stroke-linejoin="round" d="M51.021 55.769L49.88 65.616L52.299 68.387L54.717 65.616L53.327 55.769"></path><path stroke="currentColor" stroke-linecap="round" stroke-linejoin="round" d="M53.69 53.727V55.769H50.535V54.083"></path><path stroke="currentColor" stroke-linecap="round" stroke-linejoin="round" d="M52.112 52.937C52.112 52.937 55.612 54.725 55.955 54.737C56.126 54.7421 56.2962 54.7108 56.4542 54.6453C56.6123 54.5798 56.7547 54.4815 56.872 54.357L59.227 50.257H54.727"></path><path stroke="currentColor" stroke-linecap="round" stroke-linejoin="round" d="M31.79 70.375C31.6947 70.6361 31.6518 70.9134 31.6637 71.191C31.6756 71.4687 31.742 71.7413 31.8593 71.9932C31.9765 72.2452 32.1422 72.4716 32.3469 72.6596C32.5517 72.8475 32.7914 72.9932 33.0525 73.0885C33.3136 73.1838 33.5908 73.2267 33.8685 73.2148C34.1461 73.2029 34.4187 73.1365 34.6707 73.0193C34.9227 72.902 35.1491 72.7363 35.337 72.5316C35.525 72.3268 35.6707 72.0871 35.766 71.826L36.442 69.973L32.532 68.4L31.79 70.375Z"></path><path stroke="currentColor" stroke-linecap="round" stroke-linejoin="round" d="M41.38 95C41.173 95.0013 40.9692 94.9492 40.7882 94.8488C40.6072 94.7484 40.4551 94.6031 40.3466 94.4268C40.2381 94.2506 40.1768 94.0493 40.1686 93.8425C40.1604 93.6357 40.2057 93.4303 40.3 93.246C40.6135 92.6782 41.0735 92.2049 41.6321 91.8753C42.1907 91.5457 42.8274 91.3719 43.476 91.372H44.076C44.7246 91.3719 45.3613 91.5457 45.9199 91.8753C46.4785 92.2049 46.9385 92.6782 47.252 93.246C47.3465 93.4306 47.3917 93.6364 47.3834 93.8435C47.375 94.0507 47.3134 94.2522 47.2044 94.4286C47.0954 94.6049 46.9428 94.7502 46.7612 94.8503C46.5796 94.9504 46.3753 95.002 46.168 95H41.38Z"></path><path stroke="currentColor" stroke-linecap="round" stroke-linejoin="round" d="M63.217 95C63.4241 95.0015 63.6282 94.9496 63.8094 94.8494C63.9907 94.7491 64.143 94.6039 64.2519 94.4276C64.3607 94.2514 64.4223 94.0501 64.4307 93.8431C64.4391 93.6362 64.3941 93.4305 64.3 93.246C63.9863 92.6782 63.5261 92.2049 62.9673 91.8753C62.4086 91.5457 61.7717 91.3719 61.123 91.372H60.523C59.8743 91.3718 59.2373 91.5455 58.6786 91.8751C58.1198 92.2047 57.6596 92.6781 57.346 93.246C57.2519 93.4305 57.2069 93.6362 57.2153 93.8431C57.2237 94.0501 57.2853 94.2514 57.3941 94.4276C57.503 94.6039 57.6553 94.7491 57.8366 94.8494C58.0179 94.9496 58.2219 95.0015 58.429 95H63.217Z"></path><path stroke="currentColor" stroke-linecap="round" stroke-linejoin="round" d="M60.159 72.023H44.438V74.442H60.159V72.023Z"></path><path stroke="currentColor" stroke-linecap="round" stroke-linejoin="round" d="M73.139 43.333L73.57 45.243C73.687 45.761 73.214 46.331 72.452 46.593L70.872 47.135C69.909 47.465 68.898 47.171 68.75 46.517L68.239 44.254C68.091 43.6 68.878 42.9 69.89 42.784L71.55 42.595C72.35 42.5 73.022 42.816 73.139 43.333Z"></path><path stroke="currentColor" stroke-linecap="round" stroke-linejoin="round" d="M52.112 52.937C50.991 53.6035 49.8324 54.2045 48.642 54.737C48.471 54.742 48.3008 54.7108 48.1428 54.6453C47.9847 54.5798 47.8423 54.4815 47.725 54.357L45.107 51.42C46.5227 50.9132 47.9932 50.5749 49.488 50.412"></path><path stroke="currentColor" stroke-linecap="round" stroke-linejoin="round" d="M54.734 48.118L54.731 50.256L52.112 52.937L49.488 50.412L49.489 49.072"></path><path stroke="currentColor" stroke-linecap="round" stroke-linejoin="round" d="M42.19 34.266C41.7579 35.1039 41.4343 35.9933 41.227 36.913C40.669 39.235 41.416 41.404 42.893 41.759C43.21 41.835 43.68 41.982 44.17 42.147"></path><path stroke="currentColor" stroke-linecap="round" stroke-linejoin="round" d="M55.778 31.653C54.634 30.953 53.454 30.703 52.79 31.198C52.3468 30.6735 51.7759 30.2719 51.1324 30.0319C50.4889 29.792 49.7945 29.7218 49.116 29.828"></path><path stroke="currentColor" stroke-linecap="round" stroke-linejoin="round" d="M57.171 39.485C57.557 39.141 57.931 38.82 58.193 38.626C58.5818 38.2585 58.8539 37.7847 58.9753 37.2637C59.0968 36.7427 59.0622 36.1975 58.876 35.696"></path><path stroke="currentColor" stroke-linecap="round" stroke-linejoin="round" d="M43.5 41.981L44.164 42.157C44.2557 42.1814 44.3516 42.1852 44.445 42.1683C44.5384 42.1514 44.6269 42.1141 44.7042 42.0591C44.7815 42.0041 44.8458 41.9328 44.8924 41.8502C44.939 41.7675 44.9669 41.6756 44.974 41.581L45.228 38.263C45.2553 37.8706 45.4317 37.5036 45.721 37.2371C46.0104 36.9706 46.3907 36.825 46.784 36.83C47.7959 36.8547 48.8077 36.7773 49.804 36.599C50.7903 36.3712 51.7512 36.0446 52.672 35.624C53.0317 35.465 53.4385 35.4496 53.8093 35.5809C54.18 35.7121 54.4865 35.9801 54.666 36.33L56.203 39.282C56.2468 39.3663 56.3087 39.4398 56.3841 39.4974C56.4596 39.555 56.5469 39.5953 56.6397 39.6153C56.7325 39.6354 56.8286 39.6347 56.9211 39.6134C57.0136 39.5921 57.1003 39.5506 57.175 39.492L57.716 39.07C58.0603 39.0727 58.3938 39.191 58.6629 39.4059C58.932 39.6208 59.1211 39.9198 59.2 40.255C59.2716 40.6203 59.2048 40.9992 59.0126 41.318C58.8204 41.6369 58.5165 41.8728 58.16 41.98C58.1542 43.6474 57.5743 45.2619 56.518 46.5519C55.4616 47.842 53.9931 48.7288 52.3596 49.0633C50.7262 49.3978 49.0273 49.1595 47.5489 48.3885C46.0705 47.6175 44.9027 46.3609 44.242 44.83C43.8722 44.8709 43.5004 44.7729 43.1988 44.555C42.8972 44.3371 42.6874 44.0149 42.61 43.651C42.5508 43.3133 42.6062 42.9654 42.7675 42.6628C42.9288 42.3602 43.1866 42.1202 43.5 41.981Z"></path><path stroke="currentColor" stroke-linecap="round" stroke-linejoin="round" d="M47.458 41.424C47.6087 41.1965 47.8435 41.0381 48.1108 40.9835C48.3782 40.929 48.6562 40.9827 48.884 41.133"></path><path stroke="currentColor" stroke-linecap="round" stroke-linejoin="round" d="M53.864 40.113C53.6361 39.9628 53.3579 39.9092 53.0906 39.9639C52.8232 40.0187 52.5885 40.1773 52.438 40.405"></path><path stroke="currentColor" stroke-linecap="round" stroke-linejoin="round" d="M52.2634 47.5573C53.2107 47.3443 53.772 46.2529 53.5171 45.1198C53.2622 43.9867 52.2877 43.2408 51.3405 43.4538C50.3932 43.6669 49.8319 44.7582 50.0868 45.8913C50.3416 47.0245 51.3162 47.7704 52.2634 47.5573Z"></path><path stroke="currentColor" stroke-linecap="round" stroke-linejoin="round" d="M38.95 5.01402C41.5677 5.13997 44.0797 6.08435 46.1321 7.71399C48.1844 9.34363 49.6735 11.5763 50.3894 14.0973C51.1052 16.6183 51.0118 19.3004 50.1222 21.7654C49.2326 24.2305 47.5918 26.3541 45.431 27.837C45.8437 29.6659 46.7925 31.3302 48.156 32.617C48.2181 32.6767 48.2604 32.7539 48.2771 32.8384C48.2938 32.9228 48.2841 33.0104 48.2494 33.0892C48.2147 33.168 48.1566 33.2342 48.0831 33.2789C48.0095 33.3236 47.9239 33.3446 47.838 33.339C43.717 33.095 41.295 31.733 39.671 29.968C39.2309 30.0144 38.7886 30.0381 38.346 30.039C36.6756 30.0407 35.0217 29.7081 33.4817 29.0607C31.9418 28.4134 30.547 27.4644 29.3794 26.2697C28.2119 25.0751 27.2952 23.6588 26.6834 22.1044C26.0716 20.55 25.777 18.8889 25.8171 17.2189C25.8571 15.5489 26.2309 13.9039 26.9165 12.3806C27.6021 10.8573 28.5856 9.48659 29.8091 8.34924C31.0325 7.21188 32.4712 6.33086 34.0404 5.75807C35.6096 5.18527 37.2776 4.93229 38.946 5.01402H38.95Z"></path><path stroke="currentColor" stroke-linecap="round" stroke-linejoin="round" d="M38.346 27.037C37.9506 27.0368 37.5714 26.8796 37.2916 26.6001C37.0119 26.3206 36.8545 25.9415 36.854 25.546V25.206C35.9256 24.898 35.1173 24.3063 34.5432 23.5143C33.9691 22.7224 33.6581 21.7702 33.654 20.792C33.654 20.3966 33.8111 20.0173 34.0907 19.7377C34.3703 19.4581 34.7496 19.301 35.145 19.301C35.5404 19.301 35.9197 19.4581 36.1993 19.7377C36.4789 20.0173 36.636 20.3966 36.636 20.792C36.6418 21.2406 36.8247 21.6688 37.1448 21.9831C37.465 22.2974 37.8964 22.4724 38.345 22.47H38.579C38.9662 22.4735 39.339 22.3232 39.6156 22.0521C39.8921 21.781 40.0498 21.4112 40.054 21.024C40.0534 20.7543 39.977 20.4902 39.8336 20.2618C39.6903 20.0334 39.4856 19.8498 39.243 19.732L36.124 18.189C35.3817 17.8267 34.7564 17.2628 34.3196 16.5618C33.8828 15.8608 33.6521 15.051 33.654 14.225C33.6618 13.2679 33.977 12.3386 34.5532 11.5742C35.1294 10.8099 35.936 10.251 36.854 9.98002V9.70002C36.8641 9.31114 37.0256 8.94156 37.3042 8.67007C37.5829 8.39858 37.9565 8.24664 38.3455 8.24664C38.7345 8.24664 39.1081 8.39858 39.3868 8.67007C39.6654 8.94156 39.8269 9.31114 39.837 9.70002V10.04C40.7653 10.3476 41.5736 10.9389 42.1478 11.7305C42.7219 12.5221 43.033 13.4741 43.037 14.452C43.037 14.8475 42.8799 15.2267 42.6003 15.5063C42.3207 15.7859 41.9414 15.943 41.546 15.943C41.1506 15.943 40.7713 15.7859 40.4917 15.5063C40.2121 15.2267 40.055 14.8475 40.055 14.452C40.0492 14.0034 39.8663 13.5753 39.5462 13.261C39.226 12.9466 38.7946 12.7716 38.346 12.774H38.113C37.7256 12.7708 37.3527 12.9213 37.076 13.1925C36.7994 13.4638 36.6415 13.8336 36.637 14.221C36.6375 14.4906 36.7138 14.7546 36.8572 14.9829C37.0006 15.2112 37.2053 15.3946 37.448 15.512L40.568 17.056C41.3101 17.4185 41.9352 17.9824 42.3718 18.6834C42.8084 19.3844 43.0389 20.1942 43.037 21.02C43.0294 21.9773 42.7143 22.9069 42.1381 23.6714C41.5619 24.4359 40.7552 24.995 39.837 25.266V25.542C39.8373 25.7381 39.7989 25.9323 39.7241 26.1135C39.6493 26.2948 39.5396 26.4595 39.4011 26.5983C39.2627 26.7371 39.0982 26.8473 38.9172 26.9226C38.7362 26.9979 38.5421 27.0368 38.346 27.037V27.037Z"></path><path stroke="currentColor" stroke-linecap="round" stroke-linejoin="round" d="M64.212 11.892C62.1911 11.99 60.2519 12.7198 58.6678 13.9784C57.0837 15.2371 55.9345 16.9611 55.3822 18.9076C54.83 20.854 54.9025 22.9247 55.5896 24.8278C56.2767 26.7308 57.5437 28.3702 59.212 29.515C58.8943 30.9266 58.1632 32.2116 57.112 33.206C57.0641 33.252 57.0314 33.3117 57.0185 33.3769C57.0057 33.4422 57.0132 33.5098 57.04 33.5706C57.0669 33.6314 57.1118 33.6825 57.1687 33.7169C57.2256 33.7513 57.2917 33.7674 57.358 33.763C60.54 33.575 62.411 32.523 63.665 31.163C64.0045 31.199 64.3456 31.2173 64.687 31.218C65.9757 31.2173 67.2512 30.959 68.4386 30.4582C69.626 29.9574 70.7013 29.2243 71.6013 28.3019C72.5012 27.3795 73.2077 26.2865 73.6791 25.0871C74.1505 23.8877 74.3773 22.6062 74.3462 21.3179C74.3151 20.0296 74.0268 18.7605 73.4981 17.5853C72.9695 16.41 72.2112 15.3523 71.2678 14.4744C70.3244 13.5964 69.2151 12.916 68.0049 12.473C66.7947 12.03 65.5082 11.8335 64.221 11.895L64.212 11.892Z"></path><path stroke="currentColor" stroke-linecap="round" stroke-linejoin="round" d="M63.576 15.385C64.331 16.091 64.759 19.051 64.759 19.051C64.759 19.051 61.776 18.823 61.021 18.118C60.8361 17.9517 60.6861 17.7501 60.58 17.5252C60.4738 17.3002 60.4136 17.0563 60.4028 16.8078C60.392 16.5593 60.4309 16.3111 60.5172 16.0778C60.6035 15.8445 60.7354 15.6307 60.9053 15.449C61.0752 15.2673 61.2796 15.1213 61.5066 15.0195C61.7336 14.9178 61.9785 14.8623 62.2272 14.8563C62.4759 14.8504 62.7233 14.894 62.9549 14.9848C63.1865 15.0756 63.3976 15.2117 63.576 15.385V15.385Z"></path><path stroke="currentColor" stroke-linecap="round" stroke-linejoin="round" d="M66.015 15.409C65.246 16.1 64.759 19.051 64.759 19.051C64.759 19.051 67.745 18.884 68.514 18.194C68.6969 18.0298 68.8456 17.8313 68.9518 17.6096C69.0579 17.388 69.1193 17.1476 69.1326 16.9022C69.1458 16.6569 69.1106 16.4113 69.0289 16.1795C68.9472 15.9478 68.8207 15.7343 68.6565 15.5515C68.4924 15.3686 68.2938 15.2199 68.0722 15.1137C67.8505 15.0076 67.6102 14.9462 67.3648 14.933C67.1194 14.9197 66.8738 14.9549 66.6421 15.0366C66.4103 15.1183 66.1969 15.2448 66.014 15.409H66.015Z"></path><path stroke="currentColor" stroke-linecap="round" stroke-linejoin="round" d="M59.873 21.249L69.6 21.349L69.545 26.779C69.5444 26.8521 69.5293 26.9244 69.5007 26.9917C69.4721 27.0589 69.4305 27.1199 69.3783 27.1711C69.3261 27.2223 69.2643 27.2626 69.1965 27.2899C69.1287 27.3172 69.0561 27.3308 68.983 27.33L60.369 27.243C60.2959 27.2424 60.2237 27.2273 60.1564 27.1987C60.0891 27.1701 60.0282 27.1285 59.977 27.0763C59.9258 27.0241 59.8854 26.9623 59.8581 26.8945C59.8309 26.8267 59.8172 26.7541 59.818 26.681L59.873 21.249Z"></path><path stroke="currentColor" stroke-linecap="round" stroke-linejoin="round" d="M63.615 21.2861L63.5539 27.2728L65.7988 27.2957L65.8599 21.309L63.615 21.2861Z"></path><path stroke="currentColor" stroke-linecap="round" stroke-linejoin="round" d="M59.1294 20.6854L59.1407 19.5535C59.1422 19.406 59.2022 19.2652 59.3075 19.162C59.4128 19.0587 59.5548 19.0016 59.7023 19.0031L69.8138 19.1045C69.9615 19.106 70.1026 19.1661 70.206 19.2716C70.3094 19.3771 70.3666 19.5194 70.3652 19.6671L70.3538 20.799C70.3523 20.9465 70.2923 21.0873 70.187 21.1905C70.0817 21.2938 69.9397 21.3509 69.7922 21.3494L59.6808 21.248C59.533 21.2465 59.392 21.1864 59.2886 21.0809C59.1851 20.9754 59.1279 20.8331 59.1294 20.6854V20.6854Z"></path><path stroke="currentColor" stroke-linecap="round" stroke-linejoin="round" d="M63.6365 19.0422L63.6141 21.287L65.859 21.3094L65.8814 19.0645L63.6365 19.0422Z"></path><path stroke="currentColor" stroke-linecap="round" stroke-linejoin="round" d="M25.687 44.589C28.1104 44.589 30.075 42.6159 30.075 40.182C30.075 37.7481 28.1104 35.775 25.687 35.775C23.2636 35.775 21.299 37.7481 21.299 40.182C21.299 42.6159 23.2636 44.589 25.687 44.589Z"></path><path stroke="currentColor" stroke-linecap="round" stroke-linejoin="round" d="M25.32 37.761L25.687 40.182L27.133 39.961"></path><path stroke="currentColor" stroke-linecap="round" stroke-linejoin="round" d="M21.735 31.807C23.5129 30.943 25.517 30.6584 27.4652 30.9933C29.4133 31.3282 31.2073 32.2657 32.5947 33.6738C33.982 35.0819 34.8928 36.8897 35.1987 38.8426C35.5046 40.7955 35.1903 42.7951 34.3 44.56C35.2349 45.62 36.4652 46.3763 37.833 46.732C37.8956 46.7493 37.9514 46.7853 37.993 46.8352C38.0345 46.8851 38.0599 46.9465 38.0657 47.0111C38.0714 47.0758 38.0573 47.1407 38.0252 47.1971C37.9931 47.2536 37.9445 47.2989 37.886 47.327C35.079 48.669 32.986 48.65 31.275 48.073C31.0017 48.2643 30.7187 48.4412 30.427 48.603C29.3222 49.1926 28.1113 49.5569 26.8646 49.6748C25.618 49.7927 24.3603 49.6618 23.1645 49.2898C21.9688 48.9178 20.8588 48.3121 19.8991 47.5077C18.9393 46.7033 18.1488 45.7164 17.5735 44.6041C16.9981 43.4919 16.6494 42.2764 16.5475 41.0283C16.4456 39.7802 16.5926 38.5243 16.9799 37.3334C17.3673 36.1426 17.9872 35.0405 18.8038 34.0911C19.6204 33.1418 20.6174 32.364 21.737 31.803L21.735 31.807Z"></path></svg>