<svg xmlns="http://www.w3.org/2000/svg" fill="none" viewBox="0 0 100 100"><path stroke="currentColor" stroke-linecap="round" stroke-linejoin="round" d="M57.719 20.422L26.948 42.607"></path><path stroke="currentColor" stroke-linecap="round" stroke-linejoin="round" d="M65.119 46.142L72.788 46.015"></path><path stroke="currentColor" stroke-linecap="round" stroke-linejoin="round" d="M27.212 46.771L34.613 46.648"></path><path stroke="currentColor" stroke-linecap="round" stroke-linejoin="round" d="M36.882 22.622L73.238 41.486"></path><path stroke="currentColor" stroke-linecap="round" stroke-linejoin="round" d="M29.866 24.705L23.629 40.355"></path><path stroke="currentColor" stroke-linecap="round" stroke-linejoin="round" d="M66.993 22.341L75.838 39.75"></path><path stroke="currentColor" stroke-linecap="round" stroke-linejoin="round" d="M37.994 19.088L55.369 17.037"></path><path stroke="currentColor" stroke-linecap="round" stroke-linejoin="round" d="M26.284 71L24.534 68C24.4648 67.8556 24.3678 67.7262 24.2485 67.6193C24.1293 67.5124 23.9901 67.43 23.839 67.3769C23.6879 67.3237 23.5278 67.3009 23.3679 67.3097C23.208 67.3185 23.0514 67.3587 22.907 67.428C22.7625 67.4971 22.633 67.5941 22.526 67.7133C22.419 67.8325 22.3366 67.9717 22.2835 68.1228C22.2303 68.274 22.2075 68.4341 22.2164 68.5941C22.2252 68.754 22.2655 68.9107 22.335 69.055L22.556 69.418"></path><path stroke="currentColor" stroke-linecap="round" stroke-linejoin="round" d="M23.162 74.986L27.115 74.074C27.2383 74.0453 27.3658 74.0402 27.491 74.059L27.207 72.593C26.9889 71.8635 26.5623 71.2136 25.9797 70.7233C25.3972 70.2329 24.6841 69.9235 23.928 69.833L15.993 67.433C15.8813 67.4318 15.7705 67.4528 15.667 67.4948C15.5635 67.5367 15.4694 67.5988 15.39 67.6774C15.3107 67.756 15.2477 67.8495 15.2048 67.9526C15.1619 68.0558 15.1399 68.1664 15.14 68.278C15.14 68.634 15.304 69.128 15.64 69.25L22.3 73.5L22.584 75.351C22.7274 75.1648 22.9322 75.0355 23.162 74.986V74.986Z"></path><path stroke="currentColor" stroke-linecap="round" stroke-linejoin="round" d="M73.45 71L75.2 68C75.2692 67.8556 75.3662 67.7262 75.4855 67.6193C75.6047 67.5124 75.7439 67.43 75.895 67.3769C76.0461 67.3237 76.2062 67.3009 76.3661 67.3097C76.526 67.3185 76.6826 67.3587 76.827 67.428C76.9715 67.4971 77.101 67.5941 77.208 67.7133C77.315 67.8325 77.3974 67.9717 77.4505 68.1228C77.5037 68.274 77.5265 68.4341 77.5176 68.5941C77.5088 68.754 77.4685 68.9107 77.399 69.055L77.178 69.418"></path><path stroke="currentColor" stroke-linecap="round" stroke-linejoin="round" d="M76.572 74.986L72.619 74.074C72.4957 74.0453 72.3681 74.0402 72.243 74.059L72.527 72.593C72.745 71.8634 73.1716 71.2135 73.7541 70.7231C74.3367 70.2328 75.0499 69.9234 75.806 69.833L83.741 67.433C83.8526 67.432 83.9634 67.453 84.0668 67.495C84.1703 67.537 84.2644 67.5991 84.3437 67.6777C84.423 67.7562 84.486 67.8498 84.5289 67.9528C84.5719 68.0558 84.594 68.1664 84.594 68.278C84.594 68.634 84.43 69.128 84.094 69.25L77.43 73.5L77.146 75.351C77.0032 75.166 76.8001 75.0369 76.572 74.986V74.986Z"></path><path stroke="currentColor" stroke-linecap="round" stroke-linejoin="round" d="M46.326 66.337C45.772 68.737 45.22 70.609 45.999 72.944L49.867 87.079L53.735 72.944C54.514 70.609 53.962 68.736 53.408 66.337"></path><path stroke="currentColor" stroke-linecap="round" stroke-linejoin="round" d="M53.408 62.147V66.337L49.867 69.879L46.326 66.337V62.154"></path><path stroke="currentColor" stroke-linecap="round" stroke-linejoin="round" d="M49.867 95V87.079"></path><path stroke="currentColor" stroke-linecap="round" stroke-linejoin="round" d="M39.749 50.145C39.369 50.1441 38.9968 50.2527 38.677 50.458C38.302 50.6875 38.0124 51.0335 37.8525 51.4431C37.6926 51.8527 37.6712 52.3034 37.7917 52.7263C37.9121 53.1492 38.1676 53.521 38.5193 53.785C38.8709 54.0489 39.2993 54.1905 39.739 54.188C39.781 54.188 39.821 54.179 39.863 54.176C40.2143 56.5757 41.4173 58.7688 43.2521 60.3547C45.087 61.9405 47.4313 62.8132 49.8565 62.8132C52.2817 62.8132 54.626 61.9405 56.4609 60.3547C58.2957 58.7688 59.4987 56.5757 59.85 54.176C59.892 54.176 59.932 54.188 59.974 54.188C60.3766 54.1891 60.7704 54.0698 61.1047 53.8453C61.4389 53.6208 61.6984 53.3015 61.8497 52.9283C62.001 52.5552 62.0372 52.1453 61.9537 51.7514C61.8702 51.3575 61.6707 50.9976 61.381 50.718"></path><path stroke="currentColor" stroke-linecap="round" stroke-linejoin="round" d="M46.8 57.227C47.6209 58.0083 48.7107 58.4441 49.844 58.4441C50.9773 58.4441 52.0672 58.0083 52.888 57.227"></path><path stroke="currentColor" stroke-linecap="round" stroke-linejoin="round" d="M55.421 51.153C55.2959 50.8525 55.0847 50.5958 54.8139 50.4152C54.5432 50.2346 54.225 50.1382 53.8995 50.1382C53.574 50.1382 53.2558 50.2346 52.9851 50.4152C52.7143 50.5958 52.503 50.8525 52.378 51.153"></path><path stroke="currentColor" stroke-linecap="round" stroke-linejoin="round" d="M47.336 51.153C47.2107 50.8526 46.9994 50.596 46.7285 50.4155C46.4577 50.2349 46.1395 50.1386 45.814 50.1386C45.4885 50.1386 45.1703 50.2349 44.8995 50.4155C44.6286 50.596 44.4173 50.8526 44.292 51.153"></path><path stroke="currentColor" stroke-linecap="round" stroke-linejoin="round" d="M56.949 36.485C56.949 35.601 55.386 34.459 53.408 34.459H46.832C41.284 34.459 37.22 39.032 37.22 44.58C37.1139 46.6403 37.6209 48.6858 38.677 50.458C39.0834 50.1999 39.5693 50.097 40.0454 50.1683C40.5215 50.2395 40.956 50.4802 41.269 50.846C41.5155 48.9891 41.5467 47.11 41.362 45.246C42.5398 45.6092 43.7676 45.784 45 45.764C50.067 45.764 56.067 43.391 56.067 40.65C55.8362 44.1609 56.792 47.6476 58.781 50.55C59.1478 50.2737 59.5989 50.1327 60.0578 50.1509C60.5167 50.1692 60.9552 50.3455 61.299 50.65L61.372 50.719C62.193 51.53 64.959 38.265 56.949 36.485Z"></path><path stroke="currentColor" stroke-linecap="round" stroke-linejoin="round" d="M32.375 11.941C32.2088 11.83 32.0134 11.7708 31.8135 11.7708C31.6136 11.7708 31.4182 11.83 31.252 11.941L26.083 15.391C25.9446 15.4836 25.8312 15.6089 25.7527 15.7557C25.6742 15.9026 25.6331 16.0665 25.633 16.233V21.339C25.6329 21.5054 25.674 21.6693 25.7525 21.816C25.831 21.9627 25.9445 22.0878 26.083 22.18L31.252 25.631C31.4182 25.742 31.6136 25.8013 31.8135 25.8013C32.0134 25.8013 32.2088 25.742 32.375 25.631L37.544 22.18C37.6825 22.0878 37.796 21.9627 37.8745 21.816C37.953 21.6693 37.9941 21.5054 37.994 21.339V16.233C37.9939 16.0665 37.9528 15.9026 37.8743 15.7557C37.7958 15.6089 37.6824 15.4836 37.544 15.391L32.375 11.941Z"></path><path stroke="currentColor" stroke-linecap="round" stroke-linejoin="round" d="M25.747 15.768L31.813 19.818L37.88 15.767"></path><path stroke="currentColor" stroke-linecap="round" stroke-linejoin="round" d="M31.813 19.818V25.801"></path><path stroke="currentColor" stroke-linecap="round" stroke-linejoin="round" d="M21.593 39C21.4268 38.889 21.2314 38.8297 21.0315 38.8297C20.8316 38.8297 20.6362 38.889 20.47 39L15.3 42.447C15.1616 42.5394 15.0482 42.6644 14.9697 42.8111C14.8912 42.9578 14.8501 43.1216 14.85 43.288V48.4C14.8501 48.5663 14.8912 48.7301 14.9697 48.8768C15.0482 49.0235 15.1616 49.1486 15.3 49.241L20.469 52.692C20.6352 52.803 20.8306 52.8622 21.0305 52.8622C21.2304 52.8622 21.4258 52.803 21.592 52.692L26.761 49.241C26.8994 49.1486 27.0128 49.0235 27.0913 48.8768C27.1698 48.7301 27.2109 48.5663 27.211 48.4V43.288C27.2109 43.1216 27.1698 42.9578 27.0913 42.8111C27.0128 42.6644 26.8994 42.5394 26.761 42.447L21.593 39Z"></path><path stroke="currentColor" stroke-linecap="round" stroke-linejoin="round" d="M14.965 42.824L21.032 46.873L27.098 42.823"></path><path stroke="currentColor" stroke-linecap="round" stroke-linejoin="round" d="M21.032 46.873V52.857"></path><path stroke="currentColor" stroke-linecap="round" stroke-linejoin="round" d="M79.53 38.035C79.3637 37.9238 79.1681 37.8644 78.968 37.8644C78.7679 37.8644 78.5723 37.9238 78.406 38.035L73.238 41.485C73.0996 41.5776 72.9862 41.7029 72.9077 41.8497C72.8292 41.9966 72.7881 42.1605 72.788 42.327V47.433C72.7879 47.5994 72.829 47.7632 72.9075 47.9099C72.986 48.0567 73.0995 48.1817 73.238 48.274L78.406 51.725C78.5724 51.8359 78.768 51.8952 78.968 51.8952C79.168 51.8952 79.3636 51.8359 79.53 51.725L84.7 48.275C84.8385 48.1827 84.952 48.0577 85.0305 47.9109C85.109 47.7642 85.1501 47.6004 85.15 47.434V42.328C85.1499 42.1615 85.1088 41.9976 85.0303 41.8507C84.9518 41.7039 84.8384 41.5786 84.7 41.486L79.53 38.035Z"></path><path stroke="currentColor" stroke-linecap="round" stroke-linejoin="round" d="M72.901 41.863L78.968 45.912L85.035 41.862"></path><path stroke="currentColor" stroke-linecap="round" stroke-linejoin="round" d="M78.968 45.912V51.896"></path><path stroke="currentColor" stroke-linecap="round" stroke-linejoin="round" d="M55.483 10.495L63.793 16.042L72.103 10.495"></path><path stroke="currentColor" stroke-linecap="round" stroke-linejoin="round" d="M63.793 16.042V24.272"></path><path stroke="currentColor" stroke-linecap="round" stroke-linejoin="round" d="M64.355 5.17001C64.1886 5.05904 63.993 4.99982 63.793 4.99982C63.593 4.99982 63.3974 5.05904 63.231 5.17001L55.819 10.119C55.6805 10.2113 55.567 10.3363 55.4885 10.483C55.41 10.6298 55.3689 10.7936 55.369 10.96V18.312C55.3689 18.4785 55.41 18.6425 55.4885 18.7894C55.567 18.9363 55.6805 19.0615 55.819 19.154L63.231 24.1C63.3974 24.211 63.593 24.2702 63.793 24.2702C63.993 24.2702 64.1886 24.211 64.355 24.1L71.767 19.152C71.9055 19.0595 72.019 18.9343 72.0975 18.7874C72.176 18.6405 72.2171 18.4765 72.217 18.31V10.96C72.2171 10.7936 72.176 10.6298 72.0975 10.483C72.019 10.3363 71.9055 10.2113 71.767 10.119L64.355 5.17001Z"></path><path stroke="currentColor" stroke-linecap="round" stroke-linejoin="round" d="M59.479 94.326V79.486L59.486 79.492C59.5117 80.655 59.7825 81.7995 60.2807 82.8508C60.7788 83.902 61.4932 84.8364 62.377 85.5928C63.2608 86.3492 64.2942 86.9106 65.4098 87.2405C66.5253 87.5703 67.6979 87.6612 68.851 87.507C70.4496 87.2685 71.9463 86.5765 73.1634 85.513C74.3806 84.4495 75.2672 83.0592 75.718 81.507L77.312 76.268C77.3524 76.1353 77.3651 75.9958 77.3494 75.858C77.3336 75.7203 77.2896 75.5872 77.2202 75.4672C77.1508 75.3471 77.0574 75.2426 76.9459 75.1602C76.8344 75.0777 76.7071 75.0191 76.572 74.988L72.618 74.076C72.3683 74.0185 72.1062 74.0579 71.8844 74.1861C71.6626 74.3144 71.4977 74.5219 71.423 74.767L69.871 79.867C69.7638 80.248 69.5588 80.5944 69.2763 80.8717C68.9939 81.149 68.6439 81.3477 68.261 81.448C62.882 82.684 67.509 66.657 53.408 64.128"></path><path stroke="currentColor" stroke-linecap="round" stroke-linejoin="round" d="M46.326 64.13C32.226 66.659 36.851 82.686 31.473 81.45C31.09 81.3499 30.7399 81.1513 30.4574 80.8739C30.175 80.5966 29.97 80.2501 29.863 79.869L28.31 74.769C28.2355 74.5228 28.0698 74.3142 27.8469 74.1858C27.6239 74.0574 27.3604 74.0189 27.11 74.078L23.157 74.99C23.0219 75.0212 22.8946 75.0798 22.783 75.1622C22.6715 75.2446 22.5781 75.3491 22.5086 75.4691C22.4391 75.5891 22.395 75.7222 22.3791 75.8599C22.3632 75.9977 22.3757 76.1373 22.416 76.27L24.01 81.509C24.4609 83.0613 25.3476 84.4517 26.565 85.5152C27.7823 86.5787 29.2792 87.2707 30.878 87.509C32.031 87.6632 33.2035 87.5724 34.3191 87.2425C35.4346 86.9127 36.4679 86.3512 37.3517 85.5947C38.2354 84.8383 38.9496 83.904 39.4477 82.8527C39.9457 81.8015 40.2164 80.657 40.242 79.494L40.25 79.488V94.328"></path></svg>