<svg xmlns="http://www.w3.org/2000/svg" fill="none" viewBox="0 0 100 100"><path stroke="currentColor" stroke-linecap="round" stroke-linejoin="round" d="M36.426 31.015H17.169C16.2834 31.015 15.4341 31.3668 14.8079 31.993C14.1817 32.6192 13.83 33.4685 13.83 34.354V41.032"></path><path stroke="currentColor" stroke-linecap="round" stroke-linejoin="round" d="M86.17 41.032V34.354C86.17 33.4685 85.8182 32.6192 85.1921 31.993C84.5659 31.3668 83.7166 31.015 82.831 31.015H63.431"></path><path stroke="currentColor" stroke-linecap="round" stroke-linejoin="round" d="M62.653 41.032H86.17V86.661C86.17 87.5466 85.8182 88.3959 85.192 89.022C84.5658 89.6482 83.7165 90 82.831 90H17.169C16.2834 90 15.4341 89.6482 14.8079 89.022C14.1817 88.3959 13.83 87.5466 13.83 86.661V41.032H37.284"></path><path stroke="currentColor" stroke-linecap="round" stroke-linejoin="round" d="M48.442 77.911C48.084 83.857 45.642 85.036 44.524 86.437C44.2388 85.2943 43.5802 84.2796 42.6527 83.5539C41.7251 82.8281 40.5818 82.4329 39.404 82.431C38.385 82.431 38.647 82.594 38.647 82.053C38.6502 81.2716 38.4322 80.5053 38.0184 79.8425C37.6046 79.1798 37.0117 78.6476 36.3083 78.3074C35.6048 77.9673 34.8195 77.833 34.043 77.9202C33.2665 78.0073 32.5305 78.3123 31.92 78.8C31.246 77.7608 30.3579 76.8774 29.315 76.2091C28.2721 75.5408 27.0985 75.1028 25.8728 74.9246C24.647 74.7463 23.3973 74.8319 22.2073 75.1755C21.0172 75.5191 19.9143 76.1129 18.9722 76.9171C18.0301 77.7213 17.2706 78.7174 16.7445 79.8388C16.2184 80.9602 15.9378 82.181 15.9215 83.4195C15.9052 84.6581 16.1536 85.8858 16.65 87.0207C17.1464 88.1555 17.8794 89.1713 18.8 90H81.2C82.1206 89.1713 82.8536 88.1555 83.35 87.0207C83.8465 85.8858 84.0948 84.6581 84.0785 83.4195C84.0622 82.181 83.7816 80.9602 83.2555 79.8388C82.7294 78.7174 81.9699 77.7213 81.0279 76.9171C80.0858 76.1129 78.9828 75.5191 77.7928 75.1755C76.6027 74.8319 75.353 74.7463 74.1273 74.9246C72.9015 75.1028 71.7279 75.5408 70.6851 76.2091C69.6422 76.8774 68.754 77.7608 68.08 78.8C67.4692 78.3121 66.7329 78.007 65.956 77.92C65.1792 77.833 64.3936 77.9676 63.69 78.3083C62.9864 78.6489 62.3936 79.1817 61.98 79.8451C61.5665 80.5084 61.3491 81.2753 61.353 82.057C61.353 82.598 61.615 82.435 60.596 82.435C59.4183 82.4369 58.2749 82.8321 57.3474 83.5579C56.4198 84.2836 55.7612 85.2983 55.476 86.441C54.353 85.041 51.912 83.878 51.557 77.904"></path><path stroke="currentColor" stroke-linecap="round" stroke-linejoin="round" d="M34.615 85.46C35.0445 84.5543 35.7221 83.789 36.569 83.2528C37.416 82.7167 38.3976 82.4317 39.4 82.431"></path><path stroke="currentColor" stroke-linecap="round" stroke-linejoin="round" d="M30.321 82.053C30.3293 81.4254 30.4772 80.8075 30.754 80.2442C31.0307 79.6808 31.4294 79.1861 31.921 78.796"></path><path stroke="currentColor" stroke-linecap="round" stroke-linejoin="round" d="M65.385 85.46C64.9555 84.5543 64.2779 83.789 63.431 83.2528C62.584 82.7167 61.6024 82.4317 60.6 82.431"></path><path stroke="currentColor" stroke-linecap="round" stroke-linejoin="round" d="M69.6791 82.053C69.6796 81.4231 69.537 80.8012 69.2619 80.2346C68.9868 79.6679 68.5864 79.1712 68.0911 78.782"></path><path stroke="currentColor" stroke-linecap="round" stroke-linejoin="round" d="M54.958 52.612H45.047C43.5584 55.881 42.7163 59.4071 42.567 62.996C42.567 66.917 46.803 74.985 48.878 78.696C49.001 78.8798 49.1675 79.0304 49.3625 79.1346C49.5576 79.2387 49.7754 79.2932 49.9965 79.2932C50.2177 79.2932 50.4354 79.2387 50.6305 79.1346C50.8256 79.0304 50.992 78.8798 51.115 78.696C53.192 74.982 57.432 66.917 57.433 62.996C57.2851 59.4075 56.4447 55.8814 54.958 52.612V52.612Z"></path><path stroke="currentColor" stroke-linecap="round" stroke-linejoin="round" d="M51.24 52.612C51.24 52.612 54.334 59.531 51.108 64.686C50.9782 64.8571 50.8105 64.9959 50.6181 65.0914C50.4257 65.187 50.2138 65.2367 49.999 65.2367C49.7842 65.2367 49.5723 65.187 49.3799 65.0914C49.1875 64.9959 49.0199 64.8571 48.89 64.686C45.666 59.53 48.763 52.612 48.763 52.612H51.24Z"></path><path stroke="currentColor" stroke-linecap="round" stroke-linejoin="round" d="M60.285 26.473C60.4849 24.5495 60.2771 22.6054 59.6751 20.7675C59.073 18.9297 58.0903 17.2395 56.791 15.807L52.548 11.129C52.2255 10.7728 51.832 10.4882 51.3928 10.2934C50.9536 10.0986 50.4785 9.99792 49.998 9.99792C49.5176 9.99792 49.0424 10.0986 48.6032 10.2934C48.164 10.4882 47.7705 10.7728 47.448 11.129L43.205 15.807C41.9058 17.2395 40.9231 18.9297 40.321 20.7675C39.719 22.6054 39.5111 24.5495 39.711 26.473L42.429 52.61H57.571L60.285 26.473Z"></path><path stroke="currentColor" stroke-linecap="round" stroke-linejoin="round" d="M42.429 52.61L38.121 57.287C37.976 57.4453 37.7942 57.5653 37.5916 57.6362C37.389 57.7071 37.172 57.7267 36.96 57.6933C36.748 57.66 36.5475 57.5746 36.3765 57.4449C36.2055 57.3152 36.0693 57.1452 35.98 56.95C34.495 53.731 32.53 46.573 41.313 41.862L42.429 52.61Z"></path><path stroke="currentColor" stroke-linecap="round" stroke-linejoin="round" d="M57.571 52.61L61.879 57.287C62.024 57.4453 62.2059 57.5653 62.4084 57.6362C62.611 57.7071 62.828 57.7267 63.04 57.6933C63.252 57.66 63.4525 57.5746 63.6235 57.4449C63.7945 57.3152 63.9307 57.1452 64.02 56.95C65.505 53.731 67.47 46.573 58.687 41.862L57.571 52.61Z"></path><path stroke="currentColor" stroke-linecap="round" stroke-linejoin="round" d="M41.616 44.78L42.429 52.61H57.571L58.384 44.78H41.616Z"></path><path stroke="currentColor" stroke-linecap="round" stroke-linejoin="round" d="M50 29.576C52.5173 29.576 54.558 27.5353 54.558 25.018C54.558 22.5007 52.5173 20.46 50 20.46C47.4827 20.46 45.442 22.5007 45.442 25.018C45.442 27.5353 47.4827 29.576 50 29.576Z"></path><path stroke="currentColor" stroke-linecap="round" stroke-linejoin="round" d="M50 41.862V58.622"></path><path stroke="currentColor" stroke-linecap="round" stroke-linejoin="round" d="M18.8929 37.748C19.8451 37.748 20.6169 36.9761 20.6169 36.024C20.6169 35.0718 19.8451 34.3 18.8929 34.3C17.9408 34.3 17.1689 35.0718 17.1689 36.024C17.1689 36.9761 17.9408 37.748 18.8929 37.748Z"></path><path stroke="currentColor" stroke-linecap="round" stroke-linejoin="round" d="M25.615 37.748C26.5671 37.748 27.339 36.9761 27.339 36.024C27.339 35.0718 26.5671 34.3 25.615 34.3C24.6629 34.3 23.891 35.0718 23.891 36.024C23.891 36.9761 24.6629 37.748 25.615 37.748Z"></path><path stroke="currentColor" stroke-linecap="round" stroke-linejoin="round" d="M32.338 37.748C33.2902 37.748 34.062 36.9761 34.062 36.024C34.062 35.0718 33.2902 34.3 32.338 34.3C31.3859 34.3 30.614 35.0718 30.614 36.024C30.614 36.9761 31.3859 37.748 32.338 37.748Z"></path></svg>