<svg xmlns="http://www.w3.org/2000/svg" fill="none" viewBox="0 0 100 100"><path stroke="currentColor" stroke-linecap="round" stroke-linejoin="round" d="M72.786 58.0742C72.8185 58.3006 72.7645 58.5309 72.6348 58.7192C72.505 58.9075 72.3091 59.04 72.086 59.0902L53.505 63.3122"></path><path stroke="currentColor" stroke-linecap="round" stroke-linejoin="round" d="M47.833 37.258L49.673 34.335L65.638 30.707C65.8732 30.6538 66.12 30.6962 66.324 30.8248C66.528 30.9534 66.6726 31.1578 66.726 31.393L71.826 53.815"></path><path stroke="currentColor" stroke-linecap="round" stroke-linejoin="round" d="M50.068 38.86C50.2298 38.7602 50.3563 38.6125 50.43 38.4373C50.5037 38.2621 50.5208 38.0683 50.479 37.883L49.673 34.335"></path><path stroke="currentColor" stroke-linecap="round" stroke-linejoin="round" d="M55.115 37.7621L63.985 35.7471"></path><path stroke="currentColor" stroke-linecap="round" stroke-linejoin="round" d="M52.874 42.0029L64.791 39.2949"></path><path stroke="currentColor" stroke-linecap="round" stroke-linejoin="round" d="M54.88 45.2778L65.597 42.8418"></path><path stroke="currentColor" stroke-linecap="round" stroke-linejoin="round" d="M55.74 48.8131L66.403 46.3901"></path><path stroke="currentColor" stroke-linecap="round" stroke-linejoin="round" d="M56.071 52.469L67.209 49.938"></path><path stroke="currentColor" stroke-linecap="round" stroke-linejoin="round" d="M55.248 56.3868L68.016 53.4858"></path><path stroke="currentColor" stroke-linecap="round" stroke-linejoin="round" d="M48.271 83.4792C48.271 82.8692 48.0287 82.2842 47.5973 81.8529C47.166 81.4215 46.581 81.1792 45.971 81.1792H38.286C37.6749 81.1792 37.0889 81.4219 36.6568 81.854C36.2247 82.2861 35.982 82.8721 35.982 83.4832C35.982 84.0943 36.2247 84.6803 36.6568 85.1124C37.0889 85.5445 37.6749 85.7872 38.286 85.7872H45.967C46.27 85.7877 46.5702 85.7284 46.8503 85.6125C47.1303 85.4967 47.3847 85.3266 47.5988 85.1121C47.8129 84.8977 47.9825 84.643 48.0978 84.3628C48.2132 84.0825 48.2721 83.7822 48.271 83.4792V83.4792Z"></path><path stroke="currentColor" stroke-linecap="round" stroke-linejoin="round" d="M52.879 78.8698C52.879 78.2598 52.6367 77.6748 52.2053 77.2435C51.774 76.8121 51.189 76.5698 50.579 76.5698H42.9C42.2888 76.5698 41.7027 76.8126 41.2705 77.2448C40.8383 77.677 40.5955 78.2631 40.5955 78.8743C40.5955 79.4855 40.8383 80.0717 41.2705 80.5039C41.7027 80.936 42.2888 81.1788 42.9 81.1788H50.58C50.8827 81.1787 51.1824 81.1188 51.462 81.0026C51.7415 80.8864 51.9953 80.7162 52.2089 80.5016C52.4225 80.2871 52.5916 80.0326 52.7066 79.7525C52.8216 79.4725 52.8802 79.1725 52.879 78.8698V78.8698Z"></path><path stroke="currentColor" stroke-linecap="round" stroke-linejoin="round" d="M46.735 88.0871C46.735 87.4771 46.4927 86.8921 46.0613 86.4608C45.63 86.0294 45.045 85.7871 44.435 85.7871H36.75C36.1389 85.7871 35.5529 86.0298 35.1208 86.4619C34.6887 86.894 34.446 87.4801 34.446 88.0911C34.446 88.7022 34.6887 89.2882 35.1208 89.7203C35.5529 90.1524 36.1389 90.3951 36.75 90.3951H44.431C44.7341 90.3956 45.0342 90.3363 45.3143 90.2204C45.5943 90.1046 45.8487 89.9345 46.0628 89.72C46.2769 89.5056 46.4465 89.2509 46.5618 88.9707C46.6772 88.6904 46.7361 88.3902 46.735 88.0871V88.0871Z"></path><path stroke="currentColor" stroke-linecap="round" stroke-linejoin="round" d="M46.735 92.6999C46.735 92.0899 46.4927 91.5049 46.0613 91.0736C45.63 90.6422 45.045 90.3999 44.435 90.3999H36.75C36.1388 90.3999 35.5526 90.6427 35.1205 91.0749C34.6883 91.5071 34.4455 92.0932 34.4455 92.7044C34.4455 93.3156 34.6883 93.9018 35.1205 94.3339C35.5526 94.7661 36.1388 95.0089 36.75 95.0089H44.431C44.7341 95.0094 45.0344 94.95 45.3145 94.8341C45.5946 94.7182 45.849 94.5481 46.0631 94.3335C46.2772 94.1189 46.4468 93.8641 46.5621 93.5838C46.6774 93.3034 46.7362 93.003 46.735 92.6999V92.6999Z"></path><path stroke="currentColor" stroke-linecap="round" stroke-linejoin="round" d="M59.024 92.6999C59.024 92.0899 58.7817 91.5049 58.3503 91.0736C57.919 90.6422 57.334 90.3999 56.724 90.3999H49.044C48.4328 90.3999 47.8467 90.6427 47.4145 91.0749C46.9823 91.5071 46.7395 92.0932 46.7395 92.7044C46.7395 93.3156 46.9823 93.9018 47.4145 94.3339C47.8467 94.7661 48.4328 95.0089 49.044 95.0089H56.724C57.3352 95.0076 57.9208 94.7636 58.3521 94.3306C58.7834 93.8976 59.0251 93.311 59.024 92.6999V92.6999Z"></path><path stroke="currentColor" stroke-linecap="round" stroke-linejoin="round" d="M59.024 88.0871C59.024 87.4771 58.7817 86.8921 58.3503 86.4608C57.919 86.0294 57.334 85.7871 56.724 85.7871H49.044C48.4329 85.7871 47.8469 86.0298 47.4148 86.4619C46.9827 86.894 46.74 87.4801 46.74 88.0911C46.74 88.7022 46.9827 89.2882 47.4148 89.7203C47.8469 90.1524 48.4329 90.3951 49.044 90.3951H56.724C57.0267 90.3951 57.3265 90.3354 57.606 90.2193C57.8856 90.1032 58.1395 89.9331 58.3532 89.7186C58.5669 89.5042 58.7361 89.2497 58.8512 88.9697C58.9663 88.6898 59.0251 88.3898 59.024 88.0871V88.0871Z"></path><path stroke="currentColor" stroke-linecap="round" stroke-linejoin="round" d="M60.56 83.4792C60.56 82.8692 60.3177 82.2842 59.8863 81.8529C59.455 81.4215 58.87 81.1792 58.26 81.1792H50.575C49.9639 81.1792 49.3779 81.4219 48.9458 81.854C48.5137 82.2861 48.271 82.8721 48.271 83.4832C48.271 84.0943 48.5137 84.6803 48.9458 85.1124C49.3779 85.5445 49.9639 85.7872 50.575 85.7872H58.256C58.559 85.7877 58.8592 85.7284 59.1392 85.6125C59.4193 85.4967 59.6737 85.3266 59.8878 85.1121C60.1019 84.8977 60.2715 84.643 60.3868 84.3628C60.5022 84.0825 60.5611 83.7822 60.56 83.4792Z"></path><path stroke="currentColor" stroke-linecap="round" stroke-linejoin="round" d="M29.1 57.7192C28.0635 55.779 27.5442 53.6045 27.5923 51.4053C27.6403 49.2061 28.254 47.0564 29.3742 45.1633C30.4944 43.2702 32.0834 41.6976 33.988 40.597C35.8926 39.4964 38.0486 38.905 40.2481 38.8798C42.4477 38.8545 44.6167 39.3962 46.5461 40.4528C48.4754 41.5093 50.1001 43.045 51.2635 44.9119C52.4269 46.7788 53.0898 48.9138 53.1884 51.1113C53.2869 53.3088 52.8177 55.4947 51.826 57.4582"></path><path stroke="currentColor" stroke-linecap="round" stroke-linejoin="round" d="M48.32 61.7422C45.7012 63.804 42.3818 64.7635 39.0669 64.4169C35.7519 64.0703 32.7027 62.445 30.567 59.8862"></path><path stroke="currentColor" stroke-linecap="round" stroke-linejoin="round" d="M40.398 60.964C45.5254 60.964 49.682 56.8074 49.682 51.68C49.682 46.5526 45.5254 42.396 40.398 42.396C35.2706 42.396 31.114 46.5526 31.114 51.68C31.114 56.8074 35.2706 60.964 40.398 60.964Z"></path><path stroke="currentColor" stroke-linecap="round" stroke-linejoin="round" d="M43.6 48.4778C43.6 48.0576 43.5172 47.6415 43.3564 47.2532C43.1956 46.865 42.9599 46.5122 42.6627 46.2151C42.3656 45.9179 42.0128 45.6822 41.6246 45.5214C41.2363 45.3606 40.8202 45.2778 40.4 45.2778H40.167C39.498 45.2768 38.8483 45.5019 38.3233 45.9166C37.7983 46.3313 37.4289 46.9112 37.275 47.5623C37.1211 48.2133 37.1917 48.8973 37.4755 49.5032C37.7592 50.109 38.2393 50.6012 38.838 50.8998L41.959 52.4598C42.5575 52.7584 43.0376 53.2504 43.3213 53.8561C43.6051 54.4617 43.6759 55.1455 43.5222 55.7964C43.3686 56.4474 42.9995 57.0273 42.4749 57.4422C41.9502 57.857 41.3008 58.0824 40.632 58.0818H40.4C39.5513 58.0818 38.7374 57.7447 38.1373 57.1446C37.5371 56.5445 37.2 55.7305 37.2 54.8818"></path><path stroke="currentColor" stroke-linecap="round" stroke-linejoin="round" d="M40.398 45.2778V43.6768"></path><path stroke="currentColor" stroke-linecap="round" stroke-linejoin="round" d="M40.398 59.683V58.082"></path><path stroke="currentColor" stroke-linecap="round" stroke-linejoin="round" d="M52.522 60.0639L50.922 61.9499C50.7192 62.1959 50.4361 62.3625 50.1226 62.4203C49.8091 62.4781 49.4852 62.4234 49.208 62.2659L48.053 61.5869C47.8869 61.4848 47.7452 61.3477 47.6378 61.185C47.5305 61.0223 47.46 60.8381 47.4314 60.6453C47.4028 60.4525 47.4168 60.2558 47.4723 60.069C47.5279 59.8821 47.6237 59.7097 47.753 59.5639L49.644 57.3299C49.7668 57.1785 49.9211 57.0559 50.0963 56.9705C50.2715 56.8851 50.4633 56.8391 50.6581 56.8357C50.853 56.8322 51.0462 56.8715 51.2243 56.9506C51.4024 57.0298 51.561 57.1469 51.689 57.2939L52.55 58.3219C52.7511 58.5691 52.8585 58.8794 52.8534 59.198C52.8483 59.5166 52.7309 59.8233 52.522 60.0639V60.0639Z"></path><path stroke="currentColor" stroke-linecap="round" stroke-linejoin="round" d="M18.6 23.2569V23.4999C18.1667 23.5754 17.776 23.8069 17.5018 24.1508C17.2275 24.4947 17.0887 24.9271 17.1114 25.3663C17.1342 25.8056 17.317 26.2213 17.6253 26.535C17.9337 26.8486 18.3462 27.0386 18.785 27.0689C19.1993 29.0557 20.2852 30.8392 21.86 32.1195C23.4348 33.3998 25.4024 34.0987 27.432 34.0987C29.4616 34.0987 31.4292 33.3998 33.004 32.1195C34.5788 30.8392 35.6647 29.0557 36.079 27.0689C36.5178 27.0387 36.9305 26.8489 37.2389 26.5353C37.5474 26.2218 37.7304 25.8061 37.7533 25.3668C37.7762 24.9275 37.6374 24.495 37.3632 24.1511C37.089 23.8071 36.6983 23.5754 36.265 23.4999V23.2559"></path><path stroke="currentColor" stroke-linecap="round" stroke-linejoin="round" d="M25.226 29.6851C25.8797 30.1213 26.6481 30.3541 27.434 30.3541C28.2199 30.3541 28.9882 30.1213 29.642 29.6851"></path><path stroke="currentColor" stroke-linecap="round" stroke-linejoin="round" d="M34.4 14.2998C34.3429 14.2392 34.3041 14.1636 34.2882 14.0818C34.2723 14.0001 34.2798 13.9155 34.31 13.8378C34.5535 13.2113 34.7071 12.5534 34.766 11.8838C34.772 11.8156 34.762 11.7468 34.7368 11.6831C34.7116 11.6194 34.6719 11.5624 34.6209 11.5167C34.5698 11.471 34.5088 11.4378 34.4427 11.4198C34.3766 11.4017 34.3072 11.3994 34.24 11.4128C32.762 11.7058 31.616 11.5868 28.64 11.3728C27.2911 11.191 25.919 11.3009 24.6162 11.6951C23.3135 12.0892 22.1106 12.7585 21.0888 13.6576C20.067 14.5567 19.2501 15.6647 18.6935 16.9067C18.1368 18.1487 17.8532 19.4958 17.862 20.8568V21.9248C17.8623 22.2567 17.967 22.5801 18.1612 22.8493C18.3553 23.1184 18.6292 23.3198 18.944 23.4248C19.085 23.4718 19.2344 23.4883 19.3822 23.4731C19.53 23.4579 19.673 23.4115 19.8015 23.3369C19.93 23.2623 20.0412 23.1612 20.1277 23.0403C20.2141 22.9194 20.2739 22.7816 20.303 22.6358C20.4463 21.6492 20.7926 20.7029 21.32 19.8568C21.8473 19.0107 22.5443 18.2831 23.367 17.7198C23.4459 17.6656 23.5402 17.6386 23.6358 17.6427C23.7315 17.6469 23.8231 17.682 23.897 17.7428C24.7008 18.3531 25.6881 18.6722 26.697 18.6478C27.203 18.6482 27.706 18.5699 28.188 18.4158C28.2729 18.3886 28.364 18.3878 28.4494 18.4135C28.5348 18.4392 28.6103 18.4902 28.666 18.5598C28.8621 18.8058 29.109 19.0066 29.3897 19.1485C29.6705 19.2904 29.9785 19.3701 30.2929 19.3821C30.6073 19.3942 30.9205 19.3383 31.2113 19.2183C31.5021 19.0983 31.7636 18.917 31.978 18.6868C32.0192 18.6431 32.069 18.6082 32.1242 18.5843C32.1794 18.5605 32.2389 18.5482 32.299 18.5482C32.3591 18.5482 32.4186 18.5605 32.4738 18.5843C32.529 18.6082 32.5788 18.6431 32.62 18.6868C33.6607 19.7712 34.3386 21.1522 34.56 22.6388C34.5894 22.7845 34.6494 22.9223 34.736 23.0431C34.8226 23.1639 34.9338 23.2649 35.0624 23.3395C35.1909 23.4141 35.3339 23.4605 35.4817 23.4757C35.6295 23.491 35.7789 23.4746 35.92 23.4278C36.2357 23.3222 36.51 23.1197 36.7039 22.8491C36.8978 22.5785 37.0014 22.2537 37 21.9208V20.8528C37.0022 18.4166 36.0719 16.0718 34.4 14.2998V14.2998Z"></path><path stroke="currentColor" stroke-linecap="round" stroke-linejoin="round" d="M25.962 23.061H28.906"></path><path stroke="currentColor" stroke-linecap="round" stroke-linejoin="round" d="M21.11 22.3252H25.662C25.7416 22.3252 25.8179 22.3568 25.8741 22.4131C25.9304 22.4693 25.962 22.5456 25.962 22.6252V25.0052C25.962 25.2704 25.8566 25.5248 25.6691 25.7123C25.4816 25.8998 25.2272 26.0052 24.962 26.0052H21.81C21.5448 26.0052 21.2904 25.8998 21.1029 25.7123C20.9154 25.5248 20.81 25.2704 20.81 25.0052V22.6252C20.81 22.5456 20.8416 22.4693 20.8979 22.4131C20.9541 22.3568 21.0304 22.3252 21.11 22.3252V22.3252Z"></path><path stroke="currentColor" stroke-linecap="round" stroke-linejoin="round" d="M29.206 22.3252H33.758C33.8376 22.3252 33.9139 22.3568 33.9701 22.4131C34.0264 22.4693 34.058 22.5456 34.058 22.6252V25.0052C34.058 25.2704 33.9526 25.5248 33.7651 25.7123C33.5776 25.8998 33.3232 26.0052 33.058 26.0052H29.906C29.6408 26.0052 29.3864 25.8998 29.1989 25.7123C29.0114 25.5248 28.906 25.2704 28.906 25.0052V22.6252C28.906 22.5456 28.9376 22.4693 28.9939 22.4131C29.0501 22.3568 29.1264 22.3252 29.206 22.3252V22.3252Z"></path><path stroke="currentColor" stroke-linecap="round" stroke-linejoin="round" d="M17.352 91.5131C17.0997 91.5154 16.851 91.4526 16.63 91.3308C16.409 91.2089 16.2231 91.0322 16.0903 90.8176C15.9576 90.603 15.8823 90.3578 15.8719 90.1056C15.8616 89.8535 15.9163 89.6029 16.031 89.3781C16.4133 88.6872 16.9739 88.1114 17.6544 87.7107C18.3349 87.3101 19.1103 87.0992 19.9 87.1001H20.636C21.4248 87.1001 22.1992 87.3114 22.8788 87.712C23.5583 88.1126 24.1181 88.6879 24.5 89.3781C24.6147 89.6029 24.6695 89.8535 24.6591 90.1056C24.6487 90.3578 24.5735 90.603 24.4407 90.8176C24.3079 91.0322 24.122 91.2089 23.901 91.3308C23.68 91.4526 23.4314 91.5154 23.179 91.5131H17.352Z"></path><path stroke="currentColor" stroke-linecap="round" stroke-linejoin="round" d="M36.473 82.058L36.643 65.752H17.506L17.69 83.417C17.69 83.6103 17.7281 83.8017 17.802 83.9803C17.876 84.1589 17.9844 84.3211 18.1211 84.4578C18.2578 84.5945 18.4201 84.7029 18.5987 84.7769C18.7773 84.8509 18.9687 84.889 19.162 84.889H24.314L24.714 73.189C24.7358 72.577 24.9943 71.9973 25.4349 71.572C25.8756 71.1468 26.4641 70.9092 27.0765 70.9092C27.6889 70.9092 28.2774 71.1468 28.7181 71.572C29.1587 71.9973 29.4172 72.577 29.439 73.189L29.839 84.889H34.991C35.2138 84.889 35.4337 84.8385 35.6342 84.7411C35.8346 84.6438 36.0103 84.5021 36.148 84.327"></path><path stroke="currentColor" stroke-linecap="round" stroke-linejoin="round" d="M27.074 37.0459C25.3695 37.0438 23.6776 37.3382 22.074 37.9159C23.863 41.1359 24.23 42.1979 27.074 42.1979C29.918 42.1979 30.282 41.1359 32.074 37.9159C30.4704 37.338 28.7785 37.0436 27.074 37.0459Z"></path><path stroke="currentColor" stroke-linecap="round" stroke-linejoin="round" d="M34.66 87.1162C34.526 87.1032 34.389 87.0972 34.251 87.0972H33.515C32.7254 87.0969 31.9501 87.3084 31.27 87.7096C30.5899 88.1108 30.0298 88.687 29.648 89.3782C29.533 89.6029 29.478 89.8536 29.4883 90.1058C29.4985 90.3581 29.5737 90.6034 29.7065 90.8181C29.8394 91.0328 30.0254 91.2096 30.2465 91.3314C30.4677 91.4531 30.7165 91.5157 30.969 91.5132H34.769"></path><path stroke="currentColor" stroke-linecap="round" stroke-linejoin="round" d="M24.866 56.9402H21.346C20.3276 56.9402 19.3508 56.5357 18.6307 55.8155C17.9106 55.0954 17.506 54.1187 17.506 53.1002V48.8232"></path><path stroke="currentColor" stroke-linecap="round" stroke-linejoin="round" d="M24.866 56.94V43.316C24.8661 43.0658 24.8024 42.8198 24.681 42.601L22.081 37.916C19.2326 38.9448 16.7706 40.8266 15.0303 43.3052C13.2901 45.7837 12.3563 48.7385 12.356 51.767V55.127C12.356 56.1357 12.5547 57.1344 12.9407 58.0663C13.3267 58.9981 13.8925 59.8448 14.6058 60.5579C15.319 61.2711 16.1658 61.8368 17.0977 62.2227C18.0296 62.6086 19.0284 62.8071 20.037 62.807H26.159V56.94H24.866Z"></path><path stroke="currentColor" stroke-linecap="round" stroke-linejoin="round" d="M29.283 45.318V43.161C29.3044 42.9635 29.3671 42.7727 29.467 42.601L32.067 37.916C33.3357 38.3742 34.5353 39.0047 35.632 39.79"></path><path stroke="currentColor" stroke-linecap="round" stroke-linejoin="round" d="M34.056 62.8069H32.226C31.79 62.8085 31.3593 62.711 30.9665 62.5216C30.5738 62.3322 30.2293 62.056 29.959 61.7139"></path><path stroke="currentColor" stroke-linecap="round" stroke-linejoin="round" d="M28 62.6222C28.6832 62.6222 29.3384 62.3508 29.8215 61.8677C30.3046 61.3846 30.576 60.7294 30.576 60.0462C30.576 59.363 30.3046 58.7078 29.8215 58.2247C29.3384 57.7416 28.6832 57.4702 28 57.4702H26.16V62.6222H28Z"></path><path stroke="currentColor" stroke-linecap="round" stroke-linejoin="round" d="M24.866 56.9402H21.346C20.3276 56.9402 19.3508 56.5357 18.6307 55.8155C17.9106 55.0954 17.506 54.1187 17.506 53.1002V48.8232"></path><path stroke="currentColor" stroke-linecap="round" stroke-linejoin="round" d="M24.13 84.8892V88.8152"></path><path stroke="currentColor" stroke-linecap="round" stroke-linejoin="round" d="M30.019 84.8892V88.8152"></path><path stroke="currentColor" stroke-linecap="round" stroke-linejoin="round" d="M18.242 87.4179V84.5649"></path><path stroke="currentColor" stroke-linecap="round" stroke-linejoin="round" d="M35.907 85.9419V84.5649"></path><path stroke="currentColor" stroke-linecap="round" stroke-linejoin="round" d="M36.643 65.7518V63.9258"></path><path stroke="currentColor" stroke-linecap="round" stroke-linejoin="round" d="M17.506 62.3818V65.7518"></path><path stroke="currentColor" stroke-linecap="round" stroke-linejoin="round" d="M82.1 91.0049C82.3523 91.0072 82.601 90.9444 82.822 90.8225C83.043 90.7007 83.2289 90.5239 83.3617 90.3093C83.4944 90.0947 83.5697 89.8495 83.5801 89.5974C83.5904 89.3452 83.5357 89.0947 83.421 88.8699C83.0392 88.1787 82.4791 87.6025 81.799 87.2013C81.1189 86.8001 80.3436 86.5886 79.554 86.5889H78.818C78.2379 86.5886 77.6635 86.7026 77.1274 86.9244C76.5914 87.1463 76.1044 87.4715 75.6941 87.8816C75.2838 88.2917 74.9584 88.7786 74.7363 89.3145C74.5143 89.8504 74.4 90.4248 74.4 91.0049H82.1Z"></path><path stroke="currentColor" stroke-linecap="round" stroke-linejoin="round" d="M74.4 91.0049C74.4 90.4249 74.2858 89.8506 74.0638 89.3147C73.8418 88.7789 73.5164 88.292 73.1062 87.8819C72.6961 87.4719 72.2091 87.1466 71.6733 86.9247C71.1374 86.7029 70.563 86.5887 69.983 86.5889H69.247C68.4575 86.5886 67.6824 86.8001 67.0024 87.2013C66.3224 87.6024 65.7625 88.1787 65.381 88.8699C65.2661 89.0946 65.2111 89.3451 65.2213 89.5973C65.2315 89.8495 65.3066 90.0947 65.4393 90.3094C65.572 90.5241 65.7579 90.7009 65.9789 90.8227C66.1999 90.9445 66.4486 91.0073 66.701 91.0049H74.4Z"></path><path stroke="currentColor" stroke-linecap="round" stroke-linejoin="round" d="M74.398 68.188V91.005"></path><path stroke="currentColor" stroke-linecap="round" stroke-linejoin="round" d="M72.7 33.5942H71.454C71.2562 33.5977 71.0611 33.6403 70.8799 33.7195C70.6986 33.7987 70.5348 33.913 70.3979 34.0558C70.261 34.1985 70.1537 34.367 70.0822 34.5514C70.0106 34.7358 69.9762 34.9325 69.981 35.1302C69.9697 35.7281 69.8037 36.3128 69.4991 36.8274C69.1945 37.3419 68.7617 37.7688 68.243 38.0662"></path><path stroke="currentColor" stroke-linecap="round" stroke-linejoin="round" d="M65.565 60.5722V62.3002C65.5672 63.3272 65.8198 64.338 66.301 65.2452V68.1892H82.494V65.2442C82.9751 64.3373 83.2277 63.3268 83.23 62.3002V58.3002C84.4013 58.3002 85.5246 57.835 86.3529 57.0069C87.1813 56.1787 87.6467 55.0555 87.647 53.8842V49.7872C87.6468 47.3891 86.9948 45.0362 85.7605 42.9801C84.5263 40.924 82.7564 39.242 80.64 38.1142C80.0979 37.8241 79.643 37.3946 79.3223 36.8701C79.0015 36.3456 78.8264 35.745 78.815 35.1302C78.8233 34.7312 78.6728 34.3453 78.3966 34.0572C78.1203 33.7692 77.741 33.6026 77.342 33.5942H75.52"></path><path stroke="currentColor" stroke-linecap="round" stroke-linejoin="round" d="M82.494 65.2441H66.301"></path><path stroke="currentColor" stroke-linecap="round" stroke-linejoin="round" d="M76.164 53.0659H73.638C72.9548 53.0659 72.2996 53.3373 71.8165 53.8204C71.3334 54.3035 71.062 54.9587 71.062 55.6419C71.062 56.3251 71.3334 56.9803 71.8165 57.4634C72.2996 57.9465 72.9548 58.2179 73.638 58.2179H76.164V53.0659Z"></path><path stroke="currentColor" stroke-linecap="round" stroke-linejoin="round" d="M83.23 58.2999H76.164V52.7248H79.977C80.5542 52.7246 81.1077 52.4951 81.5157 52.0869C81.9238 51.6786 82.153 51.1251 82.153 50.5479V49.0479"></path><path stroke="currentColor" stroke-linecap="round" stroke-linejoin="round" d="M65.277 21.9292V23.1072C64.8437 23.1828 64.453 23.4144 64.1788 23.7584C63.9046 24.1024 63.7658 24.5348 63.7887 24.9741C63.8116 25.4134 63.9946 25.8291 64.303 26.1427C64.6115 26.4563 65.0241 26.6461 65.463 26.6762C65.8773 28.663 66.9632 30.4466 68.538 31.7269C70.1128 33.0071 72.0804 33.7061 74.11 33.7061C76.1396 33.7061 78.1072 33.0071 79.682 31.7269C81.2568 30.4466 82.3427 28.663 82.757 26.6762C83.1958 26.6459 83.6083 26.456 83.9166 26.1423C84.225 25.8286 84.4078 25.4129 84.4306 24.9737C84.4533 24.5344 84.3145 24.102 84.0402 23.7581C83.766 23.4143 83.3753 23.1827 82.942 23.1072V21.9292"></path><path stroke="currentColor" stroke-linecap="round" stroke-linejoin="round" d="M78.089 24.1369C77.9727 24.0206 77.8347 23.9283 77.6827 23.8654C77.5308 23.8024 77.368 23.77 77.2035 23.77C77.039 23.77 76.8762 23.8024 76.7242 23.8654C76.5723 23.9283 76.4343 24.0206 76.318 24.1369"></path><path stroke="currentColor" stroke-linecap="round" stroke-linejoin="round" d="M70.13 24.1371C70.3651 23.9023 70.6838 23.7705 71.016 23.7705C71.3482 23.7705 71.6669 23.9023 71.902 24.1371"></path><path stroke="currentColor" stroke-linecap="round" stroke-linejoin="round" d="M76.318 29.2891C75.681 29.7668 74.9063 30.0251 74.11 30.0251C73.3138 30.0251 72.539 29.7668 71.902 29.2891"></path><path stroke="currentColor" stroke-linecap="round" stroke-linejoin="round" d="M80.434 8.52393L78.755 9.77093"></path><path stroke="currentColor" stroke-linecap="round" stroke-linejoin="round" d="M68.959 11.8932C68.9964 10.5522 69.5554 9.27865 70.5171 8.34335C71.4788 7.40805 72.7675 6.88477 74.109 6.88477C75.4505 6.88477 76.7392 7.40805 77.7009 8.34335C78.6626 9.27865 79.2216 10.5522 79.259 11.8932"></path><path stroke="currentColor" stroke-linecap="round" stroke-linejoin="round" d="M68.221 21.926V18.249"></path><path stroke="currentColor" stroke-linecap="round" stroke-linejoin="round" d="M71.902 21.926V18.249"></path><path stroke="currentColor" stroke-linecap="round" stroke-linejoin="round" d="M76.318 21.926V18.249"></path><path stroke="currentColor" stroke-linecap="round" stroke-linejoin="round" d="M79.998 21.926V18.249"></path><path stroke="currentColor" stroke-linecap="round" stroke-linejoin="round" d="M73.374 10.8882C66.864 10.8882 64.384 16.0702 63.898 20.3232C63.8781 20.5275 63.9014 20.7338 63.9663 20.9286C64.0313 21.1233 64.1365 21.3023 64.2752 21.4537C64.4138 21.6052 64.5827 21.7258 64.771 21.8077C64.9593 21.8896 65.1627 21.931 65.368 21.9292H82.852C83.0572 21.9309 83.2605 21.8894 83.4487 21.8074C83.6368 21.7254 83.8056 21.6048 83.9442 21.4533C84.0827 21.3019 84.1878 21.123 84.2527 20.9283C84.3177 20.7336 84.3409 20.5275 84.321 20.3232C83.835 16.0702 81.355 10.8882 74.846 10.8882H73.374Z"></path><path stroke="currentColor" stroke-linecap="round" stroke-linejoin="round" d="M84.39 7.5308C84.3262 7.96283 84.1356 8.36622 83.8425 8.68996C83.5494 9.0137 83.1669 9.24325 82.7433 9.34957C82.3197 9.45589 81.8741 9.43421 81.4628 9.28727C81.0516 9.14034 80.6931 8.87474 80.4328 8.52407C80.1725 8.17341 80.022 7.75342 80.0004 7.31724C79.9788 6.88105 80.0871 6.44825 80.3114 6.07358C80.5358 5.6989 80.8663 5.39918 81.261 5.21232C81.6557 5.02546 82.097 4.95985 82.529 5.0238C83.1082 5.10952 83.6296 5.42179 83.9786 5.89193C84.3276 6.36207 84.4756 6.95157 84.39 7.5308V7.5308Z"></path><path stroke="currentColor" stroke-linecap="round" stroke-linejoin="round" d="M80.115 86.625L82.494 68.188"></path><path stroke="currentColor" stroke-linecap="round" stroke-linejoin="round" d="M66.301 68.188L68.68 86.625"></path></svg>