<svg xmlns="http://www.w3.org/2000/svg" fill="none" viewBox="0 0 100 100"><path stroke="currentColor" stroke-linecap="round" stroke-linejoin="round" d="M72.644 5.02401C68.2544 5.23588 64.0419 6.82002 60.6005 9.55312C57.159 12.2862 54.662 16.0305 53.4615 20.2581C52.261 24.4857 52.4176 28.9834 53.9091 33.1173C55.4006 37.2512 58.1518 40.8128 61.775 43.3C61.0834 46.3676 59.4922 49.159 57.205 51.317C57.0983 51.416 57.025 51.5458 56.9955 51.6883C56.966 51.8309 56.9816 51.9791 57.0402 52.1123C57.0989 52.2456 57.1976 52.3572 57.3227 52.4317C57.4478 52.5062 57.5929 52.5399 57.738 52.528C64.65 52.119 68.713 49.834 71.438 46.874C72.1758 46.9524 72.9171 46.9925 73.659 46.994C76.4681 47.0077 79.2514 46.4577 81.8441 45.3765C84.4368 44.2953 86.7862 42.7049 88.7533 40.6995C90.7204 38.6941 92.2651 36.3144 93.2961 33.7013C94.327 31.0882 94.8232 28.2948 94.7553 25.4865C94.6874 22.6783 94.0567 19.9121 92.9007 17.3519C91.7446 14.7917 90.0867 12.4895 88.0249 10.5815C85.9632 8.67353 83.5396 7.19858 80.8977 6.24398C78.2558 5.28938 75.4492 4.87454 72.644 5.02401V5.02401Z"></path><path stroke="currentColor" stroke-linecap="round" stroke-linejoin="round" d="M73.634 32.275C72.959 32.2742 72.3119 32.0057 71.8346 31.5284C71.3573 31.0511 71.0888 30.404 71.088 29.729V26.9C71.0891 26.2251 71.3577 25.5781 71.8349 25.1009C72.3121 24.6236 72.9591 24.3551 73.634 24.354C74.5294 24.354 75.4046 24.0885 76.1491 23.5911C76.8935 23.0936 77.4738 22.3866 77.8164 21.5594C78.1591 20.7322 78.2487 19.822 78.074 18.9438C77.8994 18.0657 77.4682 17.259 76.8351 16.6259C76.202 15.9928 75.3953 15.5617 74.5172 15.387C73.639 15.2123 72.7288 15.302 71.9016 15.6446C71.0744 15.9872 70.3674 16.5675 69.8699 17.3119C69.3725 18.0564 69.107 18.9316 69.107 19.827C69.107 20.5022 68.8388 21.1498 68.3613 21.6273C67.8838 22.1048 67.2363 22.373 66.561 22.373C65.8858 22.373 65.2382 22.1048 64.7607 21.6273C64.2833 21.1498 64.015 20.5022 64.015 19.827C64.0154 18.0342 64.5168 16.2772 65.4626 14.7542C66.4085 13.2313 67.7611 12.0029 69.3679 11.2078C70.9747 10.4127 72.7718 10.0825 74.5563 10.2544C76.3408 10.4263 78.0418 11.0935 79.4673 12.1807C80.8928 13.2679 81.9861 14.7318 82.6238 16.4073C83.2616 18.0828 83.4184 19.9032 83.0765 21.6631C82.7347 23.423 81.9079 25.0523 80.6893 26.3673C79.4707 27.6822 77.9089 28.6305 76.18 29.105V29.729C76.1792 30.404 75.9107 31.0511 75.4334 31.5284C74.9561 32.0057 74.309 32.2742 73.634 32.275Z"></path><path stroke="currentColor" stroke-linecap="round" stroke-linejoin="round" d="M73.634 40.763C75.4306 40.763 76.887 39.3066 76.887 37.51C76.887 35.7134 75.4306 34.257 73.634 34.257C71.8374 34.257 70.381 35.7134 70.381 37.51C70.381 39.3066 71.8374 40.763 73.634 40.763Z"></path><path stroke="currentColor" stroke-linecap="round" stroke-linejoin="round" d="M41.693 94.979L41.55 84.679L41.542 76.345C41.5419 76.0737 41.5952 75.8051 41.6989 75.5544C41.8026 75.3038 41.9547 75.076 42.1465 74.8842C42.3383 74.6923 42.5659 74.5401 42.8166 74.4363C43.0672 74.3324 43.3358 74.279 43.607 74.279H49.714C50.8487 74.2794 51.9685 74.0208 52.9882 73.5231C54.0079 73.0254 54.9006 72.3016 55.5984 71.4069C56.2962 70.5121 56.7806 69.4699 57.0148 68.3597C57.2491 67.2494 57.2269 66.1004 56.95 65L54 53.235L46.744 55.649L48.344 62.583C48.4171 62.8982 48.4179 63.2258 48.3462 63.5414C48.2746 63.8569 48.1324 64.1521 47.9303 64.4048C47.7282 64.6575 47.4715 64.8611 47.1795 65.0004C46.8874 65.1397 46.5676 65.211 46.244 65.209C42.826 65.182 36.869 65.126 32.473 65.047"></path><path stroke="currentColor" stroke-linecap="round" stroke-linejoin="round" d="M16.978 66.578C13.5066 68.1607 10.5638 70.7088 8.50096 73.9182C6.43808 77.1276 5.34216 80.8628 5.344 84.678L5.487 94.978"></path><path stroke="currentColor" stroke-linecap="round" stroke-linejoin="round" d="M43.962 46.139C43.8838 45.8222 43.9275 45.4877 44.0846 45.2017C44.2416 44.9157 44.5004 44.6992 44.8097 44.5952C45.1189 44.4912 45.4559 44.5073 45.7539 44.6403C46.0518 44.7732 46.2889 45.0134 46.418 45.313L47.153 47.825C47.1894 47.9493 47.2506 48.0649 47.3328 48.165C47.4151 48.2651 47.5166 48.3475 47.6315 48.4074C47.7464 48.4672 47.8721 48.5033 48.0013 48.5133C48.1304 48.5234 48.2602 48.5073 48.383 48.466C49.3432 48.1427 50.3925 48.2138 51.3003 48.6639C52.2081 49.1139 52.9 49.906 53.224 50.866L54 53.235L46.744 55.649L43.962 46.139Z"></path><path stroke="currentColor" stroke-linecap="round" stroke-linejoin="round" d="M25.229 72.957L20.165 75.481L19.144 76C18.9648 76.0902 18.7668 76.1367 18.5662 76.1358C18.3655 76.1348 18.168 76.0863 17.9897 75.9943C17.8114 75.9024 17.6574 75.7695 17.5403 75.6066C17.4232 75.4436 17.3464 75.2553 17.316 75.057L16.534 69.95C16.2805 68.5569 16.5625 67.1194 17.3237 65.9254C18.0849 64.7315 19.2691 63.8691 20.639 63.511"></path><path stroke="currentColor" stroke-linecap="round" stroke-linejoin="round" d="M25.229 72.957L30.292 75.481L31.313 76C31.4922 76.0902 31.6902 76.1367 31.8908 76.1358C32.0915 76.1348 32.289 76.0863 32.4673 75.9943C32.6456 75.9024 32.7996 75.7695 32.9167 75.6066C33.0338 75.4436 33.1107 75.2553 33.141 75.057L33.923 69.95C34.1765 68.5569 33.8945 67.1194 33.1333 65.9254C32.3721 64.7315 31.188 63.8691 29.818 63.511"></path><path stroke="currentColor" stroke-linecap="round" stroke-linejoin="round" d="M13.1349 95L12.9919 82.652"></path><path stroke="currentColor" stroke-linecap="round" stroke-linejoin="round" d="M29.816 62.641V68.157L25.227 72.957L20.639 68.157V61.817"></path><path stroke="currentColor" stroke-linecap="round" stroke-linejoin="round" d="M25.229 72.957L20.123 75.502L23.636 79.076H26.821L30.334 75.502L25.229 72.957Z"></path><path stroke="currentColor" stroke-linecap="round" stroke-linejoin="round" d="M21.2 94.979L21.343 87.351C21.3432 84.4378 22.1354 81.5796 23.635 79.082V79.076H26.82V79.082C28.3187 81.5798 29.1106 84.438 29.111 87.351L29.254 94.979"></path><path stroke="currentColor" stroke-linecap="round" stroke-linejoin="round" d="M13.96 44.808L13.904 45.186C13.3022 45.0972 12.6899 45.2511 12.2016 45.6138C11.7132 45.9765 11.3889 46.5183 11.3 47.12L11.188 47.876C11.1003 48.4777 11.2544 49.0896 11.6167 49.5779C11.9789 50.0663 12.5198 50.3913 13.121 50.482C13.193 50.492 13.262 50.488 13.333 50.492C13.4201 53.5417 14.5781 56.4635 16.6038 58.7449C18.6296 61.0263 21.3939 62.5217 24.4119 62.9689C27.4299 63.4162 30.5091 62.7866 33.1094 61.1907C35.7097 59.5948 37.6652 57.1344 38.633 54.241C38.6987 54.2617 38.7655 54.279 38.833 54.293C39.4348 54.381 40.047 54.227 40.5356 53.8647C41.0242 53.5025 41.3493 52.9614 41.44 52.36L41.552 51.604C41.6392 51.0037 41.4858 50.3932 41.1251 49.9055C40.7643 49.4178 40.2255 49.0923 39.626 49"></path><path stroke="currentColor" stroke-linecap="round" stroke-linejoin="round" d="M33.4631 49.373C33.3631 48.9763 33.1478 48.6182 32.8445 48.3437C32.5412 48.0692 32.1633 47.8907 31.7587 47.8307C31.354 47.7707 30.9406 47.8318 30.5707 48.0065C30.2008 48.1811 29.8909 48.4614 29.6801 48.812"></path><path stroke="currentColor" stroke-linecap="round" stroke-linejoin="round" d="M23.393 47.881C23.2932 47.4843 23.0781 47.126 22.7749 46.8514C22.4716 46.5769 22.0938 46.3983 21.6892 46.3383C21.2845 46.2782 20.8712 46.3395 20.5013 46.5142C20.1314 46.6889 19.8216 46.9693 19.611 47.32"></path><path stroke="currentColor" stroke-linecap="round" stroke-linejoin="round" d="M21.7 54.854C22.5759 55.9763 23.85 56.7186 25.2583 56.9273C26.6666 57.136 28.1012 56.795 29.2649 55.975"></path><path stroke="currentColor" stroke-linecap="round" stroke-linejoin="round" d="M38.146 48.042C39.0683 48.6342 40.1047 49.026 41.188 49.192L41.973 43.892C43.057 36.278 41.895 33.056 34.421 31.949C34.421 31.949 34 29.568 27.948 28.671C18.87 27.33 14.1 33.4 13.054 39.611L12.269 44.911C16.18 45.491 16.853 40.951 16.853 40.951C16.853 40.951 25.706 43.809 32.431 40.168C33.2038 42.3353 34.3685 44.342 35.867 46.088"></path><path stroke="currentColor" stroke-linecap="round" stroke-linejoin="round" d="M21.87 51.025L17.77 50.417C16.968 50.2758 16.252 49.829 15.7728 49.1706C15.2937 48.5122 15.0886 47.6935 15.201 46.887L15.575 44.361C15.6246 44.0276 15.8046 43.7275 16.0753 43.5267C16.3461 43.3259 16.6855 43.2407 17.019 43.29L24.662 44.423C24.8744 44.4546 25.0778 44.5306 25.259 44.6461C25.4401 44.7615 25.5949 44.9138 25.7133 45.0931C25.8316 45.2723 25.911 45.4744 25.9461 45.6863C25.9812 45.8982 25.9712 46.1152 25.917 46.323L25.286 48.723C25.0865 49.4521 24.632 50.0854 24.0051 50.5079C23.3783 50.9303 22.6206 51.1138 21.87 51.025Z"></path><path stroke="currentColor" stroke-linecap="round" stroke-linejoin="round" d="M30.311 52.275L34.411 52.883C34.8088 52.9358 35.2132 52.909 35.6006 52.8043C35.988 52.6997 36.3508 52.5191 36.6679 52.2732C36.985 52.0272 37.2501 51.7208 37.4479 51.3716C37.6457 51.0224 37.7722 50.6374 37.82 50.239L38.194 47.714C38.2328 47.5534 38.237 47.3865 38.2064 47.2241C38.1758 47.0618 38.1111 46.9078 38.0166 46.7724C37.9221 46.6369 37.7999 46.5231 37.6581 46.4384C37.5163 46.3537 37.3581 46.3 37.194 46.281L29.551 45.148C29.3383 45.1168 29.1214 45.1308 28.9145 45.189C28.7075 45.2473 28.5152 45.3485 28.35 45.486C28.1848 45.6236 28.0504 45.7944 27.9557 45.9874C27.8609 46.1804 27.8079 46.3912 27.8 46.606L27.709 49.083C27.6887 49.8385 27.9402 50.5761 28.4177 51.1619C28.8952 51.7476 29.567 52.1426 30.311 52.275V52.275Z"></path><path stroke="currentColor" stroke-linecap="round" stroke-linejoin="round" d="M25.762 46.907L27.78 47.206"></path></svg>