<svg xmlns="http://www.w3.org/2000/svg" fill="none" viewBox="0 0 100 100"><path stroke="currentColor" stroke-linecap="round" stroke-linejoin="round" d="M57.136 86.433H42.87L43.762 79.3H56.245L57.136 86.433Z"></path><path stroke="currentColor" stroke-linecap="round" stroke-linejoin="round" d="M60.217 90H39.789C39.6045 90.0032 39.4221 89.9599 39.2586 89.8742C39.0952 89.7884 38.956 89.6629 38.8538 89.5092C38.7516 89.3555 38.6897 89.1786 38.6738 88.9947C38.658 88.8108 38.6886 88.6259 38.763 88.457C39.0534 87.8505 39.5096 87.3386 40.0787 86.9805C40.6477 86.6223 41.3066 86.4325 41.979 86.433H58.027C58.6995 86.4326 59.3585 86.6224 59.9277 86.9805C60.497 87.3387 60.9533 87.8505 61.244 88.457C61.3184 88.626 61.349 88.811 61.3331 88.995C61.3172 89.1789 61.2552 89.3559 61.1529 89.5097C61.0506 89.6634 60.9113 89.7889 60.7477 89.8746C60.5841 89.9602 60.4016 90.0034 60.217 90V90Z"></path><path stroke="currentColor" stroke-linecap="round" stroke-linejoin="round" d="M74.642 79.3C75.2702 79.3 75.8923 79.1762 76.4728 78.9358C77.0532 78.6954 77.5806 78.343 78.0248 77.8988C78.469 77.4546 78.8214 76.9272 79.0618 76.3467C79.3023 75.7663 79.426 75.1442 79.426 74.516V72.167H20.58V74.516C20.5803 75.7849 21.0845 77.0017 21.9818 77.8988C22.8792 78.796 24.0961 79.3 25.365 79.3H63.377"></path><path stroke="currentColor" stroke-linecap="round" stroke-linejoin="round" d="M60.365 34.7199H74.639C75.2671 34.7192 75.8893 34.8422 76.4698 35.0821C77.0503 35.322 77.5778 35.674 78.0221 36.118C78.4665 36.5619 78.8189 37.0892 79.0593 37.6695C79.2997 38.2498 79.4233 38.8718 79.423 39.4999V72.1659H20.574V39.4999C20.5751 38.2315 21.0794 37.0153 21.9764 36.1183C22.8733 35.2214 24.0895 34.717 25.358 34.7159H39.632"></path><path stroke="currentColor" stroke-linecap="round" stroke-linejoin="round" d="M39.715 42.912C39.4177 42.9139 39.1268 42.9987 38.8749 43.1567C38.6231 43.3148 38.4203 43.5399 38.2892 43.8067C38.1582 44.0736 38.1041 44.3717 38.133 44.6677C38.1619 44.9636 38.2727 45.2456 38.453 45.482L48.74 58.818C48.8888 59.0116 49.08 59.1683 49.299 59.2762C49.518 59.3841 49.7589 59.4402 50.003 59.4402C50.2471 59.4402 50.488 59.3841 50.707 59.2762C50.926 59.1683 51.1172 59.0116 51.266 58.818L61.554 45.482C61.7343 45.2455 61.8451 44.9634 61.874 44.6674C61.9029 44.3714 61.8487 44.0732 61.7175 43.8063C61.5864 43.5394 61.3834 43.3143 61.1314 43.1563C60.8794 42.9984 60.5884 42.9138 60.291 42.912H56.383V29.356C56.383 28.51 56.0469 27.6986 55.4487 27.1003C54.8504 26.5021 54.039 26.166 53.193 26.166H46.814C45.968 26.166 45.1566 26.5021 44.5583 27.1003C43.9601 27.6986 43.624 28.51 43.624 29.356V42.912H39.715Z"></path><path stroke="currentColor" stroke-linecap="round" stroke-linejoin="round" d="M45.219 19.569C45.2203 19.1464 45.3888 18.7415 45.6876 18.4426C45.9864 18.1438 46.3914 17.9753 46.814 17.974H53.193C53.6156 17.9753 54.0205 18.1438 54.3194 18.4426C54.6182 18.7415 54.7867 19.1464 54.788 19.569V21.169C54.7867 21.5916 54.6182 21.9965 54.3194 22.2954C54.0205 22.5942 53.6156 22.7627 53.193 22.764H46.814C46.3914 22.7627 45.9864 22.5942 45.6876 22.2954C45.3888 21.9965 45.2203 21.5916 45.219 21.169V19.569Z"></path><path stroke="currentColor" stroke-linecap="round" stroke-linejoin="round" d="M46.016 11.6C46.016 11.1765 46.1839 10.7703 46.4829 10.4704C46.7818 10.1705 47.1875 10.0013 47.611 10H52.4C52.6098 10 52.8176 10.0414 53.0114 10.1219C53.2052 10.2024 53.3812 10.3203 53.5292 10.469C53.6773 10.6176 53.7946 10.7941 53.8744 10.9882C53.9541 11.1822 53.9948 11.3902 53.994 11.6V13.19C53.994 13.6128 53.8261 14.0182 53.5271 14.3171C53.2282 14.6161 52.8227 14.784 52.4 14.784H47.611C47.1886 14.7827 46.7838 14.6144 46.485 14.3157C46.1862 14.0171 46.0176 13.6124 46.016 13.19V11.6Z"></path><path stroke="currentColor" stroke-linecap="round" stroke-linejoin="round" d="M50.003 76.734C50.5553 76.734 51.003 76.2863 51.003 75.734C51.003 75.1817 50.5553 74.734 50.003 74.734C49.4507 74.734 49.003 75.1817 49.003 75.734C49.003 76.2863 49.4507 76.734 50.003 76.734Z"></path><path stroke="currentColor" stroke-linecap="round" stroke-linejoin="round" d="M72.482 75.734C72.6915 75.7339 72.899 75.775 73.0925 75.8551C73.2861 75.9353 73.462 76.0527 73.6101 76.2009C73.7583 76.349 73.8757 76.5249 73.9559 76.7185C74.036 76.912 74.0771 77.1195 74.077 77.329V81.975C74.0702 82.9188 73.6922 83.8221 73.0247 84.4894C72.3572 85.1567 71.4538 85.5345 70.51 85.541H64.972C64.7625 85.5411 64.555 85.5 64.3615 85.4199C64.1679 85.3398 63.992 85.2223 63.8439 85.0741C63.6957 84.926 63.5783 84.7501 63.4981 84.5565C63.418 84.363 63.3769 84.1555 63.377 83.946V77.329C63.3769 77.1195 63.418 76.912 63.4981 76.7185C63.5783 76.5249 63.6957 76.349 63.8439 76.2009C63.992 76.0527 64.1679 75.9353 64.3615 75.8551C64.555 75.775 64.7625 75.7339 64.972 75.734H72.482Z"></path><path stroke="currentColor" stroke-linecap="round" stroke-linejoin="round" d="M74.077 81.975C74.0702 82.9188 73.6922 83.822 73.0247 84.4893C72.3572 85.1567 71.4538 85.5344 70.51 85.541H69.619V83.569C69.6206 83.1465 69.7892 82.7419 70.088 82.4432C70.3868 82.1446 70.7916 81.9763 71.214 81.975H74.077Z"></path></svg>