<svg xmlns="http://www.w3.org/2000/svg" fill="none" viewBox="0 0 100 100"><path stroke="currentColor" stroke-linecap="round" stroke-linejoin="round" d="M83.6 52.928C83.6035 56.6382 82.9953 60.3236 81.8 63.836"></path><path stroke="currentColor" stroke-linecap="round" stroke-linejoin="round" d="M29.092 26.213C33.7035 22.6269 39.1697 20.304 44.952 19.473"></path><path stroke="currentColor" stroke-linecap="round" stroke-linejoin="round" d="M16.617 59.386C16.2055 57.258 15.9989 55.0954 16 52.928C16 52.5187 16.0073 52.1113 16.022 51.706"></path><path stroke="currentColor" stroke-linecap="round" stroke-linejoin="round" d="M62.164 84.4C58.2253 85.9451 54.0309 86.7349 49.8 86.728C49.461 86.728 49.124 86.728 48.787 86.713"></path><path stroke="currentColor" stroke-linecap="round" stroke-linejoin="round" d="M66.347 64.247V58.136C66.3426 57.6068 66.4236 57.0804 66.587 56.577"></path><path stroke="currentColor" stroke-linecap="round" stroke-linejoin="round" d="M42.976 36.659H41.348C36.502 36.659 32.159 40.287 31.906 45.126C31.8408 46.34 32.0236 47.5545 32.4433 48.6955C32.863 49.8366 33.5107 50.8801 34.347 51.7625C35.1833 52.6449 36.1906 53.3477 37.3074 53.828C38.4243 54.3083 39.6273 54.556 40.843 54.556H46.1C46.7223 54.5555 47.3193 54.8021 47.7598 55.2416C48.2003 55.6812 48.4482 56.2777 48.449 56.9V58.8C48.4472 59.0628 48.4971 59.3234 48.5961 59.5669C48.695 59.8104 48.841 60.032 49.0256 60.219C49.2102 60.4061 49.4299 60.5549 49.6721 60.657C49.9143 60.7591 50.1742 60.8124 50.437 60.814C50.7035 60.8106 50.9681 60.8601 51.2153 60.9597C51.4626 61.0593 51.6876 61.207 51.8773 61.3943C52.0669 61.5816 52.2175 61.8047 52.3203 62.0506C52.4231 62.2965 52.476 62.5604 52.476 62.827V65.3C52.5076 65.6815 52.4035 66.0618 52.182 66.374C51.3869 67.3464 50.9573 68.5665 50.9679 69.8225C50.9785 71.0785 51.4286 72.2912 52.24 73.25C52.7876 73.8641 53.4623 74.3516 54.2173 74.6787C54.9723 75.0058 55.7895 75.1645 56.612 75.144H58.74C59.2374 75.1455 59.734 75.1033 60.224 75.018"></path><path stroke="currentColor" stroke-linecap="round" stroke-linejoin="round" d="M20.107 47.773C25.6889 47.773 30.214 43.248 30.214 37.666C30.214 32.0841 25.6889 27.559 20.107 27.559C14.5251 27.559 10 32.0841 10 37.666C10 43.248 14.5251 47.773 20.107 47.773Z"></path><path stroke="currentColor" stroke-linecap="round" stroke-linejoin="round" d="M20.02 39.912C22.4202 39.912 24.366 37.9662 24.366 35.566C24.366 33.1657 22.4202 31.22 20.02 31.22C17.6198 31.22 15.674 33.1657 15.674 35.566C15.674 37.9662 17.6198 39.912 20.02 39.912Z"></path><path stroke="currentColor" stroke-linecap="round" stroke-linejoin="round" d="M20.107 47.773C22.3772 47.7766 24.5819 47.0126 26.363 45.605C25.6271 44.632 24.6772 43.8414 23.5868 43.2943C22.4964 42.7472 21.2948 42.4583 20.0749 42.4499C18.855 42.4415 17.6496 42.7138 16.5518 43.2458C15.454 43.7779 14.4933 44.5553 13.744 45.518C15.5421 46.9797 17.7896 47.7762 20.107 47.773V47.773Z"></path><path stroke="currentColor" stroke-linecap="round" stroke-linejoin="round" d="M73.772 85.043C78.9729 85.043 83.189 80.8268 83.189 75.626C83.189 70.4251 78.9729 66.209 73.772 66.209C68.5711 66.209 64.355 70.4251 64.355 75.626C64.355 80.8268 68.5711 85.043 73.772 85.043Z"></path><path stroke="currentColor" stroke-linecap="round" stroke-linejoin="round" d="M73.69 77.719C75.9262 77.719 77.739 75.9062 77.739 73.67C77.739 71.4338 75.9262 69.621 73.69 69.621C71.4538 69.621 69.641 71.4338 69.641 73.67C69.641 75.9062 71.4538 77.719 73.69 77.719Z"></path><path stroke="currentColor" stroke-linecap="round" stroke-linejoin="round" d="M73.772 85.044C75.8869 85.047 77.9406 84.3351 79.6 83.024C78.9144 82.1174 78.0295 81.3807 77.0136 80.8709C75.9977 80.361 74.8781 80.0918 73.7415 80.084C72.6049 80.0761 71.4817 80.3299 70.4589 80.8257C69.436 81.3215 68.541 82.0459 67.843 82.943C69.5186 84.3048 71.6128 85.0469 73.772 85.044V85.044Z"></path><path stroke="currentColor" stroke-linecap="round" stroke-linejoin="round" d="M35.5 57.771C39.6051 58.6931 43.2022 61.15 45.5545 64.6385C47.9067 68.1269 48.836 72.3828 48.1519 76.5342C47.4679 80.6856 45.2223 84.4183 41.8752 86.9677C38.5281 89.517 34.3329 90.69 30.149 90.2463C25.965 89.8026 22.1091 87.7758 19.3711 84.5812C16.6331 81.3866 15.2204 77.2659 15.4222 73.0634C15.6241 68.8608 17.4253 64.8945 20.4568 61.977C23.4884 59.0595 27.5208 57.4116 31.728 57.371"></path><path stroke="currentColor" stroke-linecap="round" stroke-linejoin="round" d="M26.056 82.446C24.2901 83.5386 22.837 85.0695 21.838 86.89C24.8273 89.1935 28.5168 90.4007 32.2895 90.3097C36.0623 90.2187 39.6893 88.8349 42.564 86.39C41.5805 84.7865 40.2353 83.4354 38.636 82.445"></path><path stroke="currentColor" stroke-linecap="round" stroke-linejoin="round" d="M29.641 79.022V80.115C29.6411 80.3537 29.5645 80.5862 29.4224 80.7782C29.2804 80.9701 29.0804 81.1113 28.852 81.181C27.868 81.4806 26.9269 81.9061 26.052 82.447C26.5374 83.7116 27.4029 84.7946 28.5294 85.5468C29.6559 86.299 30.9879 86.6833 32.342 86.647C33.696 86.6831 35.0279 86.2985 36.1543 85.5464C37.2808 84.7942 38.1464 83.7114 38.632 82.447C37.757 81.9064 36.8159 81.4808 35.832 81.181C35.6035 81.1114 35.4035 80.9703 35.2614 80.7783C35.1193 80.5864 35.0427 80.3538 35.043 80.115V79.022"></path><path stroke="currentColor" stroke-linecap="round" stroke-linejoin="round" d="M32.346 86.651V90.315"></path><path stroke="currentColor" stroke-linecap="round" stroke-linejoin="round" d="M24.222 71.526C24.0494 71.7694 23.9571 72.0606 23.958 72.359C23.9605 72.7275 24.0999 73.0819 24.3493 73.3533C24.5986 73.6246 24.94 73.7935 25.307 73.827C25.6443 75.4442 26.5283 76.8958 27.8101 77.9379C29.092 78.9799 30.6935 79.5488 32.3455 79.5488C33.9975 79.5488 35.5991 78.9799 36.8809 77.9379C38.1628 76.8958 39.0467 75.4442 39.384 73.827C39.751 73.7935 40.0924 73.6246 40.3417 73.3533C40.5911 73.0819 40.7306 72.7275 40.733 72.359C40.7339 72.0606 40.6416 71.7694 40.469 71.526"></path><path stroke="currentColor" stroke-linecap="round" stroke-linejoin="round" d="M34.143 75.354C33.6242 75.7446 32.9924 75.9558 32.343 75.9558C31.6936 75.9558 31.0618 75.7446 30.543 75.354"></path><path stroke="currentColor" stroke-linecap="round" stroke-linejoin="round" d="M25.156 70.922C25.156 70.922 27.556 70.753 27.556 66.967C29.1084 67.4359 30.7289 67.6388 32.349 67.567C33.9691 67.6389 35.5896 67.4361 37.142 66.967C37.142 70.753 39.542 70.922 39.542 70.922C39.9185 70.9987 40.252 71.2148 40.476 71.527C41.0615 70.7269 41.365 69.7551 41.339 68.764C41.339 67.027 40.516 65.584 39.424 65.251C39.3775 65.2352 39.335 65.2095 39.2995 65.1756C39.2639 65.1417 39.2363 65.1004 39.2183 65.0547C39.2004 65.009 39.1927 64.9599 39.1958 64.9109C39.1988 64.8619 39.2126 64.8141 39.236 64.771C39.4352 64.3604 39.5397 63.9103 39.542 63.454C39.542 58.795 33.22 59.932 36.042 57.14C36.06 57.1226 36.0726 57.1002 36.078 57.0757C36.0835 57.0512 36.0816 57.0257 36.0727 57.0022C36.0637 56.9788 36.0481 56.9585 36.0277 56.9439C36.0073 56.9293 35.9831 56.9209 35.958 56.92C29.584 56.999 25.165 59.445 25.165 63.454C25.1672 63.9103 25.2718 64.3604 25.471 64.771C25.4944 64.8141 25.5081 64.8619 25.5112 64.9109C25.5142 64.9599 25.5065 65.009 25.4886 65.0547C25.4707 65.1004 25.443 65.1417 25.4075 65.1756C25.372 65.2095 25.3295 65.2352 25.283 65.251C24.191 65.584 23.368 67.027 23.368 68.764C23.3415 69.7552 23.6451 70.7271 24.231 71.527C24.4528 71.2167 24.7828 71.0008 25.156 70.922Z"></path><path stroke="currentColor" stroke-linecap="round" stroke-linejoin="round" d="M68.465 52.754C80.3584 52.754 90 43.1125 90 31.219C90 19.3256 80.3584 9.68402 68.465 9.68402C56.5715 9.68402 46.93 19.3256 46.93 31.219C46.93 43.1125 56.5715 52.754 68.465 52.754Z"></path><path stroke="currentColor" stroke-linecap="round" stroke-linejoin="round" d="M58 36.357V39.257C58.081 41.6639 57.5963 44.0563 56.585 46.242C56.5072 46.397 56.4795 46.5723 56.5056 46.7437C56.5318 46.9152 56.6105 47.0743 56.731 47.199"></path><path stroke="currentColor" stroke-linecap="round" stroke-linejoin="round" d="M79.051 33.076V25.65C79.0044 22.8893 77.875 20.2573 75.9061 18.3214C73.9373 16.3856 71.2867 15.3007 68.5255 15.3007C65.7643 15.3007 63.1137 16.3856 61.1449 18.3214C59.176 20.2573 58.0466 22.8893 58 25.65V33.077"></path><path stroke="currentColor" stroke-linecap="round" stroke-linejoin="round" d="M80.445 47.415C80.5597 47.3776 80.665 47.3158 80.7537 47.234C80.8423 47.1521 80.9123 47.0521 80.9588 46.9408C81.0053 46.8295 81.0273 46.7094 81.0232 46.5888C81.0191 46.4682 80.989 46.3499 80.935 46.242C79.7778 44.0897 79.1331 41.6993 79.051 39.257V36.357"></path><path stroke="currentColor" stroke-linecap="round" stroke-linejoin="round" d="M62.864 41.538C59.7339 42.9852 57.2711 45.5684 55.975 48.764C59.6385 51.3719 64.0263 52.768 68.5233 52.7565C73.0202 52.745 77.4008 51.3266 81.051 48.7C79.7469 45.5336 77.295 42.9767 74.186 41.541"></path><path stroke="currentColor" stroke-linecap="round" stroke-linejoin="round" d="M65.47 38.654V39.788C65.4697 40.0286 65.3917 40.2627 65.2475 40.4554C65.1033 40.648 64.9008 40.7889 64.67 40.857C64.0518 41.0407 63.4475 41.2686 62.862 41.539C63.6188 42.5204 64.5925 43.3131 65.707 43.855C66.0601 43.994 66.3465 44.2632 66.507 44.607L67.837 47.707C67.895 47.8422 67.9914 47.9573 68.1142 48.0383C68.2371 48.1192 68.3809 48.1623 68.528 48.1623C68.6751 48.1623 68.8189 48.1192 68.9418 48.0383C69.0646 47.9573 69.161 47.8422 69.219 47.707L70.549 44.602C70.7079 44.26 70.9911 43.9915 71.341 43.851C72.4583 43.3114 73.4337 42.5175 74.189 41.533C73.6038 41.2631 72.9999 41.0358 72.382 40.853C72.1511 40.7852 71.9483 40.6444 71.8041 40.4516C71.6599 40.2589 71.582 40.0247 71.582 39.784V38.653"></path><path stroke="currentColor" stroke-linecap="round" stroke-linejoin="round" d="M74.186 41.536C73.4305 42.5205 72.4552 43.3147 71.338 43.855C71.1677 43.9291 71.0107 44.0304 70.873 44.155L72.981 46.263C73.2243 46.5087 73.545 46.6629 73.8889 46.6993C74.2327 46.7358 74.5786 46.6523 74.868 46.463C75.9246 45.7366 76.8972 44.8951 77.768 43.954C76.7109 42.9617 75.5016 42.1453 74.186 41.536V41.536Z"></path><path stroke="currentColor" stroke-linecap="round" stroke-linejoin="round" d="M68.524 48.165V52.754"></path><path stroke="currentColor" stroke-linecap="round" stroke-linejoin="round" d="M65.708 43.855C64.5935 43.3131 63.62 42.52 62.864 41.538C61.55 42.1451 60.3417 42.9588 59.285 43.948C60.1929 44.8887 61.1986 45.7297 62.285 46.457C62.5744 46.6463 62.9203 46.7298 63.2641 46.6933C63.608 46.6569 63.9287 46.5028 64.172 46.257L66.182 44.157C66.0416 44.0311 65.8815 43.9291 65.708 43.855V43.855Z"></path><path stroke="currentColor" stroke-linecap="round" stroke-linejoin="round" d="M59.5 28.358C59.0649 28.4436 58.6753 28.6832 58.4027 29.033C58.1301 29.3827 57.9928 29.819 58.016 30.2618C58.0393 30.7046 58.2214 31.1242 58.5291 31.4435C58.8368 31.7628 59.2493 31.9604 59.691 32C60.1147 34.0293 61.2242 35.8508 62.8329 37.1583C64.4416 38.4658 66.4514 39.1796 68.5245 39.1796C70.5975 39.1796 72.6074 38.4658 74.2161 37.1583C75.8248 35.8508 76.9343 34.0293 77.358 32C77.8023 31.9633 78.2183 31.7667 78.5287 31.4467C78.8391 31.1266 79.0229 30.7049 79.046 30.2596C79.069 29.8144 78.9299 29.3758 78.6542 29.0254C78.3786 28.675 77.9851 28.4364 77.547 28.354"></path><path stroke="currentColor" stroke-linecap="round" stroke-linejoin="round" d="M66.269 33.99C66.9368 34.4356 67.7217 34.6733 68.5245 34.6733C69.3273 34.6733 70.1122 34.4356 70.78 33.99"></path><path stroke="currentColor" stroke-linecap="round" stroke-linejoin="round" d="M68.524 15.124C65.7327 15.1246 63.0559 16.2338 61.0823 18.2077C59.1087 20.1817 58 22.8587 58 25.65V28.658L59.68 28.297C60.126 28.1854 60.5219 27.9279 60.8049 27.5656C61.0879 27.2033 61.2417 26.7568 61.242 26.297V25.39C61.242 25.0293 61.3131 24.6722 61.4511 24.3389C61.5892 24.0057 61.7915 23.703 62.0466 23.448C62.3017 23.193 62.6046 22.9907 62.9378 22.8528C63.2711 22.7148 63.6283 22.6439 63.989 22.644C66.1 22.644 67.164 21.751 68.526 20.388C69.889 21.751 70.952 22.644 73.064 22.644C73.4246 22.6439 73.7818 22.7148 74.115 22.8528C74.4482 22.9907 74.751 23.193 75.006 23.448C75.261 23.703 75.4633 24.0058 75.6012 24.339C75.7392 24.6722 75.8101 25.0294 75.81 25.39V26.3C75.8103 26.7598 75.9641 27.2063 76.2471 27.5686C76.5301 27.9309 76.926 28.1884 77.372 28.3L79.053 28.661V25.65C79.0529 24.2675 78.7804 22.8986 78.2512 21.6214C77.722 20.3442 76.9464 19.1837 75.9687 18.2063C74.9909 17.2288 73.8303 16.4535 72.5529 15.9247C71.2755 15.3958 69.9065 15.1238 68.524 15.124V15.124Z"></path><path stroke="currentColor" stroke-linecap="round" stroke-linejoin="round" d="M58.852 37.724L56.973 34.717L58.852 31.709L60.732 34.717L58.852 37.724Z"></path><path stroke="currentColor" stroke-linecap="round" stroke-linejoin="round" d="M78.196 37.724L80.076 34.717L78.196 31.709L76.317 34.717L78.196 37.724Z"></path><path stroke="currentColor" stroke-linecap="round" stroke-linejoin="round" d="M72.59 28.658C72.35 28.418 72.0244 28.2832 71.685 28.2832C71.3456 28.2832 71.02 28.418 70.78 28.658"></path><path stroke="currentColor" stroke-linecap="round" stroke-linejoin="round" d="M66.269 28.658C66.029 28.418 65.7034 28.2832 65.364 28.2832C65.0246 28.2832 64.699 28.418 64.459 28.658"></path><path stroke="currentColor" d="M29.714 71.527C29.4378 71.527 29.214 71.3031 29.214 71.027C29.214 70.7508 29.4378 70.527 29.714 70.527"></path><path stroke="currentColor" d="M29.714 71.527C29.9901 71.527 30.214 71.3031 30.214 71.027C30.214 70.7508 29.9901 70.527 29.714 70.527"></path><path stroke="currentColor" d="M35.042 71.527C34.7658 71.527 34.542 71.3031 34.542 71.027C34.542 70.7508 34.7658 70.527 35.042 70.527"></path><path stroke="currentColor" d="M35.042 71.527C35.3181 71.527 35.542 71.3031 35.542 71.027C35.542 70.7508 35.3181 70.527 35.042 70.527"></path></svg>