<svg xmlns="http://www.w3.org/2000/svg" fill="none" viewBox="0 0 100 100"><path stroke="currentColor" stroke-linecap="round" stroke-linejoin="round" d="M35.6088 85.3847L30.6523 86.2587L25.9386 59.5261L30.8951 58.6521C31.1563 58.606 31.4251 58.6656 31.6424 58.8178C31.8596 58.9699 32.0075 59.2021 32.0536 59.4633L36.42 84.2263C36.466 84.4874 36.4064 84.7562 36.2543 84.9735C36.1022 85.1907 35.87 85.3387 35.6088 85.3847Z"></path><path stroke="currentColor" stroke-linecap="round" stroke-linejoin="round" d="M50.172 52.19L54.133 51.491"></path><path stroke="currentColor" stroke-linecap="round" stroke-linejoin="round" d="M72.682 72.726L70.702 73.075"></path><path stroke="currentColor" stroke-linecap="round" stroke-linejoin="round" d="M73.266 64.454L71.285 64.804"></path><path stroke="currentColor" stroke-linecap="round" stroke-linejoin="round" d="M73.85 56.183L71.869 56.532"></path><path stroke="currentColor" stroke-linecap="round" stroke-linejoin="round" d="M54.133 51.491C53.568 43.962 51.748 27.917 45.573 29.006C44.3912 29.2145 43.3406 29.8839 42.6524 30.867C41.9641 31.85 41.6946 33.0662 41.903 34.248L42.165 35.733C44.086 46.626 41.365 58.847 32.23 60.459L36.238 83.236L37.407 83.03C43.118 82.023 46.52 85.507 56.75 83.703L74.079 80.648C75.1295 80.4624 76.0633 79.867 76.6748 78.9929C77.2864 78.1188 77.5256 77.0375 77.34 75.987C77.1543 74.9365 76.559 74.0027 75.6849 73.3912C74.8107 72.7796 73.7295 72.5404 72.679 72.726L74.66 72.376C75.7105 72.1904 76.6442 71.595 77.2558 70.7209C77.8674 69.8468 78.1066 68.7655 77.921 67.715C77.7353 66.6645 77.14 65.7307 76.2659 65.1192C75.3918 64.5076 74.3105 64.2684 73.26 64.454L75.241 64.105C76.2915 63.9194 77.2252 63.324 77.8368 62.4499C78.4484 61.5758 78.6876 60.4945 78.502 59.444C78.3163 58.3935 77.721 57.4597 76.8469 56.8482C75.9728 56.2366 74.8915 55.9974 73.841 56.183L75.821 55.834C76.8715 55.6484 77.8052 55.053 78.4168 54.1789C79.0284 53.3048 79.2676 52.2235 79.082 51.173C78.8963 50.1225 78.301 49.1887 77.4269 48.5772C76.5527 47.9656 75.4715 47.7264 74.421 47.912L54.133 51.491Z"></path><path stroke="currentColor" stroke-linecap="round" stroke-linejoin="round" d="M10 60.294L24.516 57.735C24.6571 57.71 24.8017 57.713 24.9415 57.744C25.0814 57.775 25.2138 57.8332 25.3311 57.9154C25.4485 57.9976 25.5484 58.1022 25.6253 58.2231C25.7021 58.344 25.7544 58.4789 25.779 58.62L30.813 87.169C30.8633 87.4538 30.7984 87.747 30.6327 87.984C30.4669 88.221 30.2138 88.3825 29.929 88.433L24.856 89.327"></path><path stroke="currentColor" stroke-linecap="round" stroke-linejoin="round" d="M80.625 35.05C80.7931 34.3217 81.1624 33.6554 81.6909 33.1269C82.2194 32.5984 82.8857 32.2291 83.614 32.061L89.614 30.676C89.7226 30.6493 89.819 30.5869 89.888 30.4989C89.957 30.4109 89.9945 30.3023 89.9945 30.1905C89.9945 30.0787 89.957 29.9701 89.888 29.8821C89.819 29.7941 89.7226 29.7317 89.614 29.705L83.614 28.321C82.8856 28.1531 82.2192 27.7839 81.6906 27.2553C81.1621 26.7268 80.7929 26.0603 80.625 25.332L79.24 19.332C79.2133 19.2234 79.1509 19.127 79.0629 19.058C78.9749 18.989 78.8663 18.9515 78.7545 18.9515C78.6427 18.9515 78.5341 18.989 78.4461 19.058C78.3581 19.127 78.2957 19.2234 78.269 19.332L76.885 25.332C76.7172 26.0597 76.3485 26.7257 75.8207 27.2542C75.293 27.7826 74.6275 28.1523 73.9 28.321L67.9 29.705C67.7914 29.7317 67.6949 29.7941 67.626 29.8821C67.557 29.9701 67.5195 30.0787 67.5195 30.1905C67.5195 30.3023 67.557 30.4109 67.626 30.4989C67.6949 30.5869 67.7914 30.6493 67.9 30.676L73.9 32.061C74.6282 32.2291 75.2946 32.5984 75.8231 33.1269C76.3516 33.6554 76.7209 34.3217 76.889 35.05L78.273 41.05C78.2997 41.1586 78.3621 41.255 78.4501 41.324C78.5381 41.393 78.6467 41.4305 78.7585 41.4305C78.8703 41.4305 78.9789 41.393 79.0669 41.324C79.1549 41.255 79.2173 41.1586 79.244 41.05L80.625 35.05Z"></path><path stroke="currentColor" stroke-linecap="round" stroke-linejoin="round" d="M28.5559 41.284C28.6683 40.7981 28.9149 40.3536 29.2676 40.001C29.6204 39.6485 30.065 39.4021 30.5509 39.29L34.5509 38.366C34.6239 38.3487 34.6888 38.3073 34.7353 38.2485C34.7818 38.1897 34.8071 38.1169 34.8071 38.042C34.8071 37.967 34.7818 37.8943 34.7353 37.8355C34.6888 37.7767 34.6239 37.7353 34.5509 37.718L30.5509 36.794C30.065 36.6818 29.6204 36.4355 29.2676 36.0829C28.9149 35.7304 28.6683 35.2858 28.5559 34.8L27.6319 30.8C27.6155 30.7263 27.5744 30.6605 27.5155 30.6133C27.4566 30.5661 27.3834 30.5404 27.3079 30.5404C27.2325 30.5404 27.1593 30.5661 27.1004 30.6133C27.0415 30.6605 27.0004 30.7263 26.9839 30.8L26.0609 34.8C25.9484 35.2866 25.7011 35.7317 25.3474 36.0843C24.9937 36.4369 24.5479 36.6829 24.0609 36.794L20.0609 37.718C19.9873 37.7344 19.9215 37.7755 19.8743 37.8344C19.8271 37.8933 19.8014 37.9665 19.8014 38.042C19.8014 38.1174 19.8271 38.1906 19.8743 38.2495C19.9215 38.3084 19.9873 38.3495 20.0609 38.366L24.0609 39.289C24.5468 39.4013 24.9914 39.6479 25.3439 40.0007C25.6964 40.3534 25.9428 40.798 26.0549 41.284L26.9789 45.284C26.9954 45.3576 27.0365 45.4234 27.0954 45.4706C27.1543 45.5178 27.2275 45.5435 27.3029 45.5435C27.3784 45.5435 27.4516 45.5178 27.5105 45.4706C27.5694 45.4234 27.6105 45.3576 27.6269 45.284L28.5559 41.284Z"></path><path stroke="currentColor" stroke-linecap="round" stroke-linejoin="round" d="M56.9649 21.905C57.0825 21.397 57.3404 20.9322 57.7092 20.5635C58.078 20.1949 58.5429 19.9373 59.0509 19.82L63.2359 18.854C63.3125 18.8362 63.3809 18.793 63.4298 18.7315C63.4787 18.6699 63.5053 18.5936 63.5053 18.515C63.5053 18.4363 63.4787 18.36 63.4298 18.2985C63.3809 18.2369 63.3125 18.1937 63.2359 18.176L59.0509 17.211C58.5426 17.0938 58.0775 16.8361 57.7087 16.4672C57.3398 16.0984 57.0821 15.6333 56.9649 15.125L55.9999 10.942C55.9822 10.8654 55.939 10.7971 55.8774 10.7481C55.8159 10.6992 55.7396 10.6726 55.6609 10.6726C55.5823 10.6726 55.506 10.6992 55.4445 10.7481C55.3829 10.7971 55.3397 10.8654 55.3219 10.942L54.3569 15.125C54.24 15.6332 53.9824 16.0983 53.6138 16.4671C53.2451 16.836 52.7801 17.0937 52.2719 17.211L48.0889 18.176C48.0124 18.1937 47.944 18.2369 47.8951 18.2985C47.8462 18.36 47.8196 18.4363 47.8196 18.515C47.8196 18.5936 47.8462 18.6699 47.8951 18.7315C47.944 18.793 48.0124 18.8362 48.0889 18.854L52.2719 19.82C52.7799 19.9373 53.2446 20.195 53.6133 20.5637C53.9819 20.9323 54.2396 21.397 54.3569 21.905L55.3219 26.091C55.3397 26.1676 55.3829 26.2359 55.4445 26.2848C55.506 26.3337 55.5823 26.3603 55.6609 26.3603C55.7396 26.3603 55.8159 26.3337 55.8774 26.2848C55.939 26.2359 55.9822 26.1676 55.9999 26.091L56.9649 21.905Z"></path></svg>