<svg viewBox="0 0 100 100" xmlns="http://www.w3.org/2000/svg" id="Magnifier-Egk--Streamline-Ux">
    <desc>Magnifier EGK Streamline Illustration: https://streamlinehq.com</desc>
    <path d="m62.18 56.101 6.38 6.38" fill="none" stroke="currentColor" stroke-linecap="round" stroke-linejoin="round" stroke-width="1"></path>
    <path d="m63.137 67.903 -6.199 -6.199" fill="none" stroke="currentColor" stroke-linecap="round" stroke-linejoin="round" stroke-width="1"></path>
    <path d="m88.347 87.436 -0.259 0.258a5.589 5.589 0 0 1 -7.876 0l-17.12 -17.12a1.863 1.863 0 0 1 0 -2.625l5.509 -5.51a1.864 1.864 0 0 1 2.626 0l17.12 17.12a5.558 5.558 0 0 1 0 7.877Z" fill="none" stroke="currentColor" stroke-linecap="round" stroke-linejoin="round" stroke-width="1"></path>
    <path d="M14.2113486792 54.447609529a28.756 28.756 0 1 0 49.0559123841 -30.0191206428A28.756 28.756 0 1 0 14.2113486792 54.447609529Z" fill="none" stroke="currentColor" stroke-linecap="round" stroke-linejoin="round" stroke-width="1"></path>
    <path d="M55.005 23.171a23 23 0 1 1 -32.533 0 23.005 23.005 0 0 1 32.533 0Z" fill="none" stroke="currentColor" stroke-linecap="round" stroke-linejoin="round" stroke-width="1"></path>
    <path d="m16.206 44.087 3.739 0.036a3.135 3.135 0 0 0 2.789 -2.058l2.9 -6.484 3.617 9.09a3.1 3.1 0 0 0 3.137 2.23 3.393 3.393 0 0 0 2.751 -2.663l5.011 -16.8c0 0.016 0.006 0.031 0.009 0.047l4.273 25.053a3.706 3.706 0 0 0 2.773 3.315 2.607 2.607 0 0 0 0.411 0.033 3.336 3.336 0 0 0 3.008 -2.68l2.6 -8.705a1.522 1.522 0 0 1 0.166 -0.381h7.874" fill="none" stroke="currentColor" stroke-linecap="round" stroke-linejoin="round" stroke-width="1"></path>
    <path d="M61.7 40.905h-8.54a3.316 3.316 0 0 0 -3.02 2.678l-2.525 8.464 -0.008 -0.047 -4.272 -25.053c-0.312 -1.826 -1.374 -3.1 -2.773 -3.314 -1.515 -0.237 -2.875 0.831 -3.421 2.648L32.11 43.144l-3.6 -9.039a3.224 3.224 0 0 0 -2.748 -2.24 3.076 3.076 0 0 0 -2.91 2.054L19.8 40.75a1.38 1.38 0 0 1 -0.081 0.152l-3.939 -0.038" fill="none" stroke="currentColor" stroke-linecap="round" stroke-linejoin="round" stroke-width="1"></path>
</svg>