<svg viewBox="0 0 100 100" xmlns="http://www.w3.org/2000/svg" id="Package-Fly--Streamline-Ux">
    <desc>Package Fly Streamline Illustration: https://streamlinehq.com</desc>
    <path d="m66.355 36.424 17.38 -1.943a2.443 2.443 0 0 1 2.7 2.156l3.552 31.775a2.443 2.443 0 0 1 -2.156 2.7l-34.396 3.843a2.442 2.442 0 0 1 -2.7 -2.155L49 57.245" fill="none" stroke="currentColor" stroke-linecap="round" stroke-linejoin="round" stroke-width="1"></path>
    <path d="M56.629 43.714C47.765 47.627 52.914 60 61.571 57.731c7.1 -1.858 9.46 -8.786 4.775 -16.072 -6.141 -9.55 -17.755 -16.827 -29.5 -16.625 -8.311 0.143 -7.146 11.448 1.054 11.826 -5.636 1.828 -5.674 10.192 2.777 9.576 -3.5 1.236 -2.438 8.924 4.364 8.1s8.493 0.511 8.493 0.511" fill="none" stroke="currentColor" stroke-linecap="round" stroke-linejoin="round" stroke-width="1"></path>
    <path d="m19.704 71.434 20.325 0" fill="none" stroke="currentColor" stroke-linecap="round" stroke-linejoin="round" stroke-width="1"></path>
    <path d="m16.5 60.814 16.396 0" fill="none" stroke="currentColor" stroke-linecap="round" stroke-linejoin="round" stroke-width="1"></path>
    <path d="m21.169 50.561 8.698 0" fill="none" stroke="currentColor" stroke-linecap="round" stroke-linejoin="round" stroke-width="1"></path>
    <path d="m15.493 50.561 2.197 0" fill="none" stroke="currentColor" stroke-linecap="round" stroke-linejoin="round" stroke-width="1"></path>
    <path d="m10 60.814 3.021 0" fill="none" stroke="currentColor" stroke-linecap="round" stroke-linejoin="round" stroke-width="1"></path>
    <path d="m12.747 71.434 2.746 0" fill="none" stroke="currentColor" stroke-linecap="round" stroke-linejoin="round" stroke-width="1"></path>
    <path d="m64.64132 60.42697 18.804968 -4.240824 2.12275 9.4143L66.76407 69.84127Z" fill="none" stroke="currentColor" stroke-linecap="round" stroke-linejoin="round" stroke-width="1"></path>
    <path d="m68.151 61.32 0.548 4.876" fill="none" stroke="currentColor" stroke-linecap="round" stroke-linejoin="round" stroke-width="1"></path>
    <path d="m70.412 61.066 0.549 4.875" fill="none" stroke="currentColor" stroke-linecap="round" stroke-linejoin="round" stroke-width="1"></path>
    <path d="m74.935 60.557 0.549 4.875" fill="none" stroke="currentColor" stroke-linecap="round" stroke-linejoin="round" stroke-width="1"></path>
    <path d="m77.197 60.302 0.548 4.876" fill="none" stroke="currentColor" stroke-linecap="round" stroke-linejoin="round" stroke-width="1"></path>
    <path d="m79.458 60.048 0.549 4.875" fill="none" stroke="currentColor" stroke-linecap="round" stroke-linejoin="round" stroke-width="1"></path>
    <path d="m81.72 59.793 0.548 4.876" fill="none" stroke="currentColor" stroke-linecap="round" stroke-linejoin="round" stroke-width="1"></path>
</svg>