<svg xmlns="http://www.w3.org/2000/svg" fill="none" viewBox="0 0 100 100"><path stroke="currentColor" stroke-linecap="round" stroke-linejoin="round" d="M65.389 26.446C65.446 27.27 65.628 28.762 65.689 29.292C65.9521 31.6629 65.4559 34.0561 64.272 36.127C64.0514 36.5136 63.9033 36.9372 63.835 37.377"></path><path stroke="currentColor" stroke-linecap="round" stroke-linejoin="round" d="M84.094 23.6091V22.8581C84.108 22.8191 87.151 13.5751 79.054 10.6161C77.6471 10.0171 76.1001 9.82557 74.5896 10.0634C73.0791 10.3012 71.6658 10.9588 70.511 11.9611C70.4466 12.0219 70.3648 12.061 70.277 12.0731C69.2351 12.2424 68.2479 12.6552 67.3956 13.278C66.5432 13.9007 65.8499 14.7159 65.372 15.6571C64.8069 16.7729 64.5124 18.0062 64.5124 19.2571C64.5124 20.5079 64.8069 21.7412 65.372 22.8571V23.6121"></path><path stroke="currentColor" stroke-linecap="round" stroke-linejoin="round" d="M84.312 40.7789C84.9887 40.2354 85.4494 39.4685 85.6114 38.6158C85.7734 37.7632 85.6261 36.8807 85.196 36.1269C84.0119 34.0561 83.5161 31.6627 83.78 29.2919C83.839 28.7649 84.02 27.2759 84.08 26.4509"></path><path stroke="currentColor" stroke-linecap="round" stroke-linejoin="round" d="M66.1 22.8749V23.2909C65.6801 23.3695 65.303 23.5979 65.0387 23.9336C64.7744 24.2692 64.641 24.6894 64.6631 25.1161C64.6852 25.5427 64.8614 25.9468 65.159 26.2534C65.4565 26.56 65.8552 26.7481 66.281 26.7829C66.6864 28.7267 67.7488 30.4717 69.2895 31.7243C70.8303 32.9769 72.7554 33.6607 74.741 33.6607C76.7267 33.6607 78.6518 32.9769 80.1925 31.7243C81.7333 30.4717 82.7957 28.7267 83.201 26.7829C83.6268 26.7481 84.0255 26.56 84.3231 26.2534C84.6207 25.9468 84.7969 25.5427 84.819 25.1161C84.8411 24.6894 84.7076 24.2692 84.4433 23.9336C84.1791 23.5979 83.802 23.3695 83.382 23.2909V22.6709"></path><path stroke="currentColor" stroke-linecap="round" stroke-linejoin="round" d="M72.576 28.6851C73.2156 29.1115 73.9672 29.3391 74.736 29.3391C75.5048 29.3391 76.2563 29.1115 76.896 28.6851"></path><path stroke="currentColor" stroke-linecap="round" stroke-linejoin="round" d="M80.33 85.5429L82.657 67.5049H66.815L69.142 85.5429"></path><path stroke="currentColor" stroke-linecap="round" stroke-linejoin="round" d="M82.268 89.8291C82.5149 89.8313 82.7582 89.7699 82.9745 89.6506C83.1907 89.5314 83.3725 89.3585 83.5024 89.1485C83.6323 88.9385 83.7058 88.6985 83.7159 88.4518C83.726 88.2051 83.6723 87.96 83.56 87.7401C83.1868 87.0636 82.6389 86.4997 81.9735 86.1071C81.3081 85.7145 80.5496 85.5076 79.777 85.5081H79.057C77.911 85.5081 76.812 85.9633 76.0016 86.7736C75.1913 87.584 74.736 88.6831 74.736 89.8291H82.268Z"></path><path stroke="currentColor" stroke-linecap="round" stroke-linejoin="round" d="M74.736 89.8291C74.7361 89.2616 74.6245 88.6996 74.4074 88.1753C74.1903 87.651 73.872 87.1746 73.4707 86.7734C73.0695 86.3721 72.5931 86.0538 72.0687 85.8367C71.5444 85.6196 70.9825 85.5079 70.415 85.5081H69.695C68.9225 85.508 68.1641 85.715 67.4988 86.1075C66.8334 86.5001 66.2855 87.0638 65.912 87.7401C65.7999 87.9597 65.7462 88.2044 65.7561 88.4508C65.766 88.6972 65.8392 88.9368 65.9686 89.1467C66.098 89.3566 66.2793 89.5296 66.495 89.6491C66.7106 89.7687 66.9534 89.8306 67.2 89.8291H74.736Z"></path><path stroke="currentColor" stroke-linecap="round" stroke-linejoin="round" d="M74.736 67.5049V89.8289"></path><path stroke="currentColor" stroke-linecap="round" stroke-linejoin="round" d="M66.1 61.7439C66.1017 62.7486 66.3489 63.7376 66.82 64.6249V67.5049H82.657V64.6249C83.1281 63.7376 83.3753 62.7486 83.377 61.7439V57.8299C83.9446 57.8303 84.5068 57.7188 85.0313 57.5018C85.5559 57.2849 86.0325 56.9666 86.434 56.5653C86.8355 56.164 87.1539 55.6875 87.3711 55.1631C87.5884 54.6387 87.7001 54.0766 87.7 53.5089V49.4999C87.6999 47.1536 87.0621 44.8515 85.8546 42.8398C84.6472 40.8281 82.9155 39.1824 80.845 38.0789C80.3147 37.7951 79.8696 37.375 79.5557 36.8619C79.2417 36.3488 79.0703 35.7613 79.059 35.1599C79.0665 34.7702 78.9191 34.3934 78.6491 34.1122C78.3792 33.831 78.0087 33.6683 77.619 33.6599H71.856C71.4662 33.6683 71.0956 33.8309 70.8255 34.1121C70.5554 34.3933 70.4077 34.7701 70.415 35.1599C70.4037 35.7613 70.2322 36.3488 69.9183 36.8619C69.6043 37.375 69.1593 37.7951 68.629 38.0789C68.3096 38.2496 67.9983 38.4332 67.695 38.6299"></path><path stroke="currentColor" stroke-linecap="round" stroke-linejoin="round" d="M82.657 64.625H66.815"></path><path stroke="currentColor" stroke-linecap="round" stroke-linejoin="round" d="M83.377 57.83H76.464V52.377H80.195C80.7596 52.377 81.3012 52.1527 81.7004 51.7534C82.0997 51.3541 82.324 50.8126 82.324 50.248V48.782"></path><path stroke="currentColor" stroke-linecap="round" stroke-linejoin="round" d="M76.344 52.461L78.956 44.448C79.1234 43.9339 79.0798 43.3743 78.8347 42.8923C78.5896 42.4104 78.1631 42.0455 77.649 41.878L58.263 35.559C58.1357 35.5175 58.0015 35.5015 57.8679 35.5119C57.7344 35.5223 57.6043 35.5589 57.485 35.6196C57.3656 35.6804 57.2594 35.764 57.1724 35.8659C57.0855 35.9677 57.0194 36.0856 56.978 36.213L55.153 41.813C55.1276 41.8911 55.0836 41.9619 55.0247 42.0191C54.9658 42.0764 54.8938 42.1184 54.815 42.1416C54.7362 42.1647 54.6529 42.1683 54.5724 42.152C54.4919 42.1357 54.4166 42.1 54.353 42.048C53.6506 41.4946 52.7812 41.196 51.887 41.201C50.9148 41.1968 49.9732 41.5404 49.2322 42.1696C48.4911 42.7989 47.9994 43.6723 47.8458 44.6323C47.6923 45.5923 47.887 46.5755 48.3948 47.4045C48.9026 48.2335 49.6901 48.8536 50.615 49.153C51.0499 49.2942 51.5061 49.3581 51.963 49.342C52.0458 49.337 52.1285 49.3522 52.204 49.3863C52.2795 49.4204 52.3457 49.4724 52.3966 49.5377C52.4476 49.6031 52.4819 49.6799 52.4966 49.7614C52.5113 49.843 52.506 49.9269 52.481 50.006L50.342 56.57L52.6 57.3"></path><path stroke="currentColor" stroke-linecap="round" stroke-linejoin="round" d="M57.79 59L57.88 59.029C57.958 59.0542 58.0409 59.0601 58.1216 59.0462C58.2024 59.0323 58.2786 58.9989 58.3436 58.9491C58.4086 58.8992 58.4605 58.8343 58.4949 58.7599C58.5293 58.6855 58.5451 58.6039 58.541 58.522C58.5068 57.6252 58.7791 56.7435 59.313 56.022C59.884 55.2368 60.7166 54.6812 61.6608 54.4552C62.6051 54.2292 63.599 54.3477 64.4637 54.7894C65.3283 55.2311 66.0069 55.9669 66.3773 56.8644C66.7476 57.7619 66.7855 58.7621 66.484 59.685C66.3417 60.1194 66.1244 60.5256 65.842 60.885C65.7891 60.9489 65.7527 61.0247 65.7356 61.1059C65.7186 61.187 65.7216 61.2711 65.7444 61.3508C65.7671 61.4305 65.8089 61.5035 65.8662 61.5635C65.9234 61.6235 65.9944 61.6686 66.073 61.695L72.637 63.835L74.7 57.5"></path><path stroke="currentColor" stroke-linecap="round" stroke-linejoin="round" d="M55.118 60.1751L53.118 58.8241C52.8571 58.6529 52.6649 58.3953 52.5751 58.0965C52.4853 57.7976 52.5036 57.4767 52.627 57.1901L53.16 56.0001C53.2415 55.8276 53.3598 55.6751 53.5065 55.5532C53.6532 55.4313 53.8248 55.343 54.0092 55.2944C54.1937 55.2458 54.3865 55.2381 54.5743 55.2719C54.762 55.3057 54.9401 55.3802 55.096 55.4901L57.47 57.0901C57.6303 57.1933 57.766 57.3304 57.8678 57.4917C57.9695 57.6529 58.0347 57.8345 58.0588 58.0237C58.0829 58.2128 58.0653 58.4049 58.0073 58.5866C57.9493 58.7682 57.8522 58.9349 57.723 59.0751L56.816 60.0221C56.5962 60.2433 56.3054 60.38 55.9948 60.4079C55.6843 60.4359 55.3738 60.3535 55.118 60.1751V60.1751Z"></path><path stroke="currentColor" stroke-linecap="round" stroke-linejoin="round" d="M76.458 52.4609H74.016C73.3562 52.4741 72.7279 52.7454 72.266 53.2167C71.804 53.6879 71.5452 54.3215 71.5452 54.9814C71.5452 55.6414 71.804 56.275 72.266 56.7462C72.7279 57.2175 73.3562 57.4888 74.016 57.5019H76.458V52.4609Z"></path><path stroke="currentColor" stroke-linecap="round" stroke-linejoin="round" d="M52.3 50.5651L51.894 49.9571C51.8498 49.8927 51.7906 49.8401 51.7215 49.8037C51.6525 49.7674 51.5756 49.7484 51.4975 49.7484C51.4194 49.7484 51.3425 49.7674 51.2735 49.8037C51.2044 49.8401 51.1452 49.8927 51.101 49.9571C50.8463 50.3044 50.5329 50.6045 50.175 50.8441C49.4144 51.3541 48.4964 51.5753 47.5869 51.4677C46.6775 51.3602 45.8364 50.931 45.2157 50.2576C44.595 49.5842 44.2355 48.7111 44.2022 47.7959C44.1689 46.8807 44.4639 45.9838 45.034 45.2671C45.5514 44.6009 46.28 44.1305 47.1 43.9331C47.1753 43.9163 47.2454 43.8814 47.3042 43.8315C47.363 43.7816 47.4087 43.718 47.4375 43.6465C47.4662 43.5749 47.4771 43.4974 47.4692 43.4206C47.4613 43.3439 47.4348 43.2703 47.392 43.2061L44.314 38.5921C44.1726 38.3803 43.9528 38.2333 43.7031 38.1834C43.4533 38.1335 43.194 38.1848 42.982 38.3261L27.005 48.9841C26.7951 49.124 26.6147 49.3039 26.4744 49.5135C26.334 49.7231 26.2363 49.9584 26.1869 50.2058C26.1375 50.4532 26.1373 50.7079 26.1864 50.9554C26.2355 51.2029 26.3329 51.4382 26.473 51.6481L36.6 66.8241C36.6699 66.9291 36.7598 67.0194 36.8646 67.0897C36.9694 67.1599 37.0871 67.2088 37.2108 67.2335C37.3345 67.2582 37.4619 67.2583 37.5857 67.2337C37.7095 67.209 37.8271 67.1602 37.932 67.0901L38.154 66.9421"></path><path stroke="currentColor" stroke-linecap="round" stroke-linejoin="round" d="M42.884 63.9381C42.9773 63.9545 43.0637 63.9979 43.1325 64.0629C43.2013 64.128 43.2495 64.2119 43.271 64.3041C43.4681 65.1251 43.939 65.8545 44.606 66.3721C45.3232 66.9407 46.22 67.2342 47.1346 67.1998C48.0493 67.1654 48.9215 66.8052 49.5939 66.1843C50.2664 65.5634 50.6948 64.7226 50.8019 63.8136C50.909 62.9046 50.6877 61.9873 50.178 61.2271C49.9388 60.8689 49.6386 60.5555 49.291 60.3011C49.2266 60.2569 49.174 60.1977 49.1376 60.1286C49.1013 60.0596 49.0823 59.9827 49.0823 59.9046C49.0823 59.8265 49.1013 59.7497 49.1376 59.6806C49.174 59.6115 49.2266 59.5523 49.291 59.5081L52.591 57.3081"></path><path stroke="currentColor" stroke-linecap="round" stroke-linejoin="round" d="M42.246 65.7469L39.937 67.1239C39.6411 67.3054 39.2908 67.3768 38.9475 67.3255C38.6042 67.2743 38.29 67.1038 38.06 66.8439L37.111 65.7369C36.9759 65.5731 36.8784 65.3818 36.8252 65.1763C36.772 64.9708 36.7645 64.7562 36.8031 64.5475C36.8417 64.3388 36.9255 64.1411 37.0486 63.9682C37.1718 63.7953 37.3313 63.6515 37.516 63.5469L40.252 61.9159C40.4318 61.8032 40.6342 61.7313 40.8448 61.7052C41.0554 61.679 41.2692 61.6993 41.4711 61.7646C41.673 61.8299 41.8582 61.9386 42.0137 62.083C42.1692 62.2275 42.2911 62.4043 42.371 62.6009L42.893 63.9629C43.0127 64.2888 43.0134 64.6466 42.895 64.973C42.7767 65.2994 42.5468 65.5735 42.246 65.7469V65.7469Z"></path><path stroke="currentColor" stroke-linecap="round" stroke-linejoin="round" d="M17.189 89.9999C16.9424 90.0018 16.6994 89.9401 16.4836 89.8208C16.2677 89.7015 16.0863 89.5286 15.9567 89.3187C15.8272 89.1089 15.7539 88.8692 15.744 88.6227C15.734 88.3763 15.7878 88.1315 15.9 87.9119C16.2733 87.2361 16.821 86.6728 17.486 86.2806C18.151 85.8884 18.909 85.6816 19.681 85.6819H20.4C21.172 85.6816 21.93 85.8884 22.595 86.2806C23.26 86.6728 23.8077 87.2361 24.181 87.9119C24.2934 88.1319 24.3472 88.3772 24.337 88.624C24.3269 88.8709 24.2531 89.1109 24.123 89.3209C23.9928 89.5309 23.8107 89.7037 23.5942 89.8227C23.3776 89.9416 23.134 90.0027 22.887 89.9999H17.189Z"></path><path stroke="currentColor" stroke-linecap="round" stroke-linejoin="round" d="M35.256 64.814H17.339L17.519 82.084C17.519 82.4657 17.6706 82.8318 17.9404 83.1018C18.2102 83.3719 18.5763 83.5237 18.958 83.524H24L24.389 72.089C24.4067 71.4881 24.6578 70.9177 25.0891 70.499C25.5204 70.0802 26.0978 69.8459 26.699 69.8459C27.3001 69.8459 27.8776 70.0802 28.3089 70.499C28.7402 70.9177 28.9913 71.4881 29.009 72.089L29.397 83.524H34.434C34.8159 83.524 35.1822 83.3722 35.4522 83.1022C35.7223 82.8321 35.874 82.4659 35.874 82.084L36.041 65.984"></path><path stroke="currentColor" stroke-linecap="round" stroke-linejoin="round" d="M37.7 41.8491C35.7993 39.6066 33.259 37.9981 30.4192 37.2388C27.5793 36.4794 24.5753 36.6055 21.809 37.6001C23.982 41.5101 24.009 42.1651 29.19 41.6191"></path><path stroke="currentColor" stroke-linecap="round" stroke-linejoin="round" d="M36.2 89.9999C36.4468 90.0022 36.69 89.9407 36.9061 89.8216C37.1222 89.7024 37.304 89.5295 37.4338 89.3196C37.5636 89.1097 37.637 88.8698 37.647 88.6233C37.6571 88.3767 37.6033 88.1316 37.491 87.9119C37.1178 87.2363 36.5702 86.673 35.9054 86.2808C35.2406 85.8886 34.4829 85.6818 33.711 85.6819H32.991C32.2191 85.6818 31.4614 85.8886 30.7966 86.2808C30.1318 86.673 29.5842 87.2363 29.211 87.9119C29.0988 88.1315 29.045 88.3763 29.055 88.6227C29.0649 88.8692 29.1382 89.1089 29.2677 89.3187C29.3973 89.5286 29.5787 89.7015 29.7946 89.8208C30.0104 89.9401 30.2534 90.0018 30.5 89.9999H36.2Z"></path><path stroke="currentColor" stroke-linecap="round" stroke-linejoin="round" d="M24.535 56.1999H21.093C20.0973 56.1997 19.1424 55.8039 18.4384 55.0998C17.7345 54.3956 17.339 53.4407 17.339 52.4449V48.2629"></path><path stroke="currentColor" stroke-linecap="round" stroke-linejoin="round" d="M21.809 37.6001C19.024 38.6058 16.6167 40.4456 14.9152 42.8689C13.2136 45.2922 12.3004 48.1811 12.3 51.1421V54.4271C12.3 55.4132 12.4942 56.3896 12.8716 57.3007C13.2489 58.2117 13.802 59.0395 14.4993 59.7368C15.1966 60.434 16.0244 60.9871 16.9354 61.3645C17.8465 61.7419 18.8229 61.9361 19.809 61.9361H25.8V56.2001H24.535V41.3771"></path><path stroke="currentColor" stroke-linecap="round" stroke-linejoin="round" d="M20.512 42.3891C20.5654 42.5848 20.6596 42.7669 20.7883 42.9237C20.9171 43.0804 21.0775 43.2082 21.259 43.2986C21.4406 43.3891 21.6392 43.4401 21.8418 43.4485C22.0445 43.4569 22.2466 43.4223 22.435 43.3471L24.49 42.5251C24.4597 42.405 24.414 42.2894 24.354 42.1811L21.809 37.6001C21.0088 37.8892 20.2358 38.2486 19.499 38.6741L20.512 42.3891Z"></path><path stroke="currentColor" stroke-linecap="round" stroke-linejoin="round" d="M35.216 23.269V23.51C35.6371 23.587 36.0157 23.8147 36.2812 24.1504C36.5466 24.4862 36.6808 24.9071 36.6587 25.3346C36.6365 25.762 36.4595 26.1668 36.1607 26.4733C35.8619 26.7798 35.4618 26.967 35.035 27C34.6298 28.9424 33.5681 30.686 32.0285 31.9376C30.4888 33.1892 28.5652 33.8724 26.581 33.8724C24.5968 33.8724 22.6732 33.1892 21.1335 31.9376C19.5939 30.686 18.5322 28.9424 18.127 27C17.701 26.9661 17.3018 26.7786 17.0038 26.4722C16.7058 26.1659 16.5293 25.7617 16.5072 25.3349C16.485 24.9081 16.6188 24.4878 16.8835 24.1523C17.1482 23.8167 17.5258 23.5888 17.946 23.511V23.27"></path><path stroke="currentColor" stroke-linecap="round" stroke-linejoin="round" d="M24.424 29.554C25.0631 29.9804 25.8142 30.208 26.5825 30.208C27.3508 30.208 28.1019 29.9804 28.741 29.554"></path><path stroke="currentColor" stroke-linecap="round" stroke-linejoin="round" d="M33.4 14.5091C33.3442 14.4497 33.3063 14.3758 33.2908 14.2958C33.2752 14.2158 33.2826 14.1331 33.312 14.0571C33.5501 13.4447 33.7003 12.8016 33.758 12.1471C33.7638 12.0804 33.7539 12.0133 33.7293 11.951C33.7047 11.8887 33.6659 11.8331 33.616 11.7883C33.5662 11.7436 33.5066 11.7111 33.4421 11.6934C33.3775 11.6756 33.3097 11.6732 33.244 11.6861C31.798 11.9731 30.678 11.8561 27.77 11.6471C26.4514 11.4701 25.1102 11.5781 23.837 11.9638C22.5637 12.3494 21.388 13.0038 20.3892 13.8826C19.3904 14.7615 18.5919 15.8444 18.0474 17.0583C17.5029 18.2722 17.2252 19.5887 17.233 20.9191V21.9631C17.2329 22.2876 17.335 22.6039 17.5247 22.8672C17.7144 23.1305 17.9822 23.3275 18.29 23.4301C18.4278 23.4762 18.5739 23.4924 18.7185 23.4777C18.8631 23.463 19.0029 23.4176 19.1286 23.3447C19.2543 23.2718 19.3631 23.1729 19.4476 23.0547C19.5322 22.9365 19.5906 22.8016 19.619 22.6591C19.7598 21.6942 20.0991 20.769 20.6155 19.9418C21.1318 19.1146 21.814 18.4034 22.619 17.8531C22.6961 17.8002 22.7883 17.7738 22.8817 17.7778C22.9751 17.7817 23.0647 17.8159 23.137 17.8751C23.9219 18.4717 24.8864 18.7838 25.872 18.7601C26.3668 18.7605 26.8587 18.684 27.33 18.5331C27.413 18.5067 27.502 18.506 27.5854 18.5312C27.6687 18.5564 27.7425 18.6062 27.797 18.6741C27.9887 18.9148 28.2301 19.1112 28.5047 19.25C28.7793 19.3889 29.0806 19.4668 29.3881 19.4786C29.6955 19.4904 30.0019 19.4357 30.2863 19.3182C30.5707 19.2008 30.8264 19.0234 31.036 18.7981C31.0763 18.7556 31.1248 18.7217 31.1786 18.6985C31.2324 18.6754 31.2904 18.6634 31.349 18.6634C31.4076 18.6634 31.4656 18.6754 31.5194 18.6985C31.5732 18.7217 31.6217 18.7556 31.662 18.7981C32.6806 19.858 33.3446 21.2083 33.562 22.6621C33.5904 22.8046 33.6488 22.9395 33.7334 23.0577C33.8179 23.1759 33.9267 23.2748 34.0524 23.3477C34.1781 23.4206 34.3179 23.466 34.4625 23.4807C34.6071 23.4954 34.7532 23.4792 34.891 23.4331C35.1989 23.3305 35.4666 23.1335 35.6563 22.8702C35.846 22.6069 35.9481 22.2906 35.948 21.9661V20.9191C35.9496 18.5352 35.0378 16.2413 33.4 14.5091V14.5091Z"></path><path stroke="currentColor" stroke-linecap="round" stroke-linejoin="round" d="M25.143 23.0779H28.022"></path><path stroke="currentColor" stroke-linecap="round" stroke-linejoin="round" d="M24.075 25.9559H21.175C20.8916 25.9559 20.6199 25.8434 20.4194 25.6432C20.219 25.4429 20.1063 25.1713 20.106 24.8879V22.6789C20.106 22.6368 20.1143 22.595 20.1304 22.5561C20.1466 22.5171 20.1702 22.4817 20.2 22.4519C20.2298 22.4221 20.2652 22.3985 20.3041 22.3823C20.3431 22.3662 20.3848 22.3579 20.427 22.3579H24.827C24.9119 22.3582 24.9933 22.3921 25.0533 22.4523C25.1133 22.5125 25.147 22.5939 25.147 22.6789V24.8879C25.147 25.0285 25.1192 25.1677 25.0653 25.2975C25.0114 25.4274 24.9324 25.5453 24.8328 25.6445C24.7332 25.7437 24.615 25.8223 24.4849 25.8758C24.3549 25.9292 24.2156 25.9564 24.075 25.9559V25.9559Z"></path><path stroke="currentColor" stroke-linecap="round" stroke-linejoin="round" d="M31.99 25.9559H29.09C28.8068 25.9559 28.5351 25.8434 28.3348 25.6431C28.1345 25.4428 28.022 25.1712 28.022 24.8879V22.6789C28.022 22.5939 28.0557 22.5125 28.1157 22.4523C28.1757 22.3921 28.257 22.3582 28.342 22.3579H32.742C32.7842 22.3579 32.8259 22.3662 32.8648 22.3823C32.9038 22.3985 32.9392 22.4221 32.969 22.4519C32.9988 22.4817 33.0224 22.5171 33.0386 22.5561C33.0547 22.595 33.063 22.6368 33.063 22.6789V24.8879C33.063 25.0286 33.0352 25.1679 32.9812 25.2978C32.9272 25.4277 32.8481 25.5456 32.7484 25.6449C32.6487 25.7441 32.5304 25.8227 32.4002 25.8761C32.2701 25.9294 32.1307 25.9566 31.99 25.9559V25.9559Z"></path><path stroke="currentColor" stroke-linecap="round" stroke-linejoin="round" d="M29.4 60.9929L30.481 64.1059C30.5268 64.2385 30.5984 64.3607 30.6915 64.4656C30.7847 64.5705 30.8976 64.656 31.0238 64.7172C31.1501 64.7785 31.2871 64.8142 31.4272 64.8224C31.5672 64.8305 31.7075 64.811 31.84 64.7649L34.589 63.8109"></path><path stroke="currentColor" stroke-linecap="round" stroke-linejoin="round" d="M27.6 61.755C28.2681 61.755 28.9088 61.4896 29.3812 61.0172C29.8536 60.5448 30.119 59.9041 30.119 59.236C30.119 58.568 29.8536 57.9272 29.3812 57.4548C28.9088 56.9824 28.2681 56.717 27.6 56.717H25.8V61.755H27.6Z"></path><path stroke="currentColor" stroke-linecap="round" stroke-linejoin="round" d="M23.815 83.5239V87.3629"></path><path stroke="currentColor" stroke-linecap="round" stroke-linejoin="round" d="M18.059 85.996V83.208"></path><path stroke="currentColor" stroke-linecap="round" stroke-linejoin="round" d="M29.572 83.5239V87.3629"></path><path stroke="currentColor" stroke-linecap="round" stroke-linejoin="round" d="M35.329 85.996V83.208"></path><path stroke="currentColor" stroke-linecap="round" stroke-linejoin="round" d="M21.657 61.936H17.339"></path><path stroke="currentColor" stroke-linecap="round" stroke-linejoin="round" d="M32.72 42.3891C32.6666 42.5847 32.5724 42.7669 32.4437 42.9236C32.3149 43.0804 32.1545 43.2082 31.973 43.2986C31.7914 43.3891 31.5928 43.4401 31.3902 43.4485C31.1875 43.4568 30.9854 43.4223 30.797 43.3471L28.741 42.5251C28.7721 42.4051 28.8181 42.2895 28.878 42.1811L31.422 37.6011C32.2224 37.8898 32.9954 38.2492 33.732 38.6751L32.72 42.3891Z"></path><path stroke="currentColor" stroke-linecap="round" stroke-linejoin="round" d="M28.741 41.665V47.826"></path><path stroke="currentColor" stroke-linecap="round" stroke-linejoin="round" d="M28.741 55.0481V57.0001"></path><path stroke="currentColor" stroke-linecap="round" stroke-linejoin="round" d="M17.339 61.52V64.814"></path><path stroke="currentColor" stroke-linecap="round" stroke-linejoin="round" d="M84.094 22.8581C83.039 22.6176 82.0519 22.142 81.2064 21.4667C80.3608 20.7914 79.6788 19.9339 79.211 18.9581C79.188 18.907 79.1541 18.8615 79.1116 18.8249C79.0692 18.7883 79.0192 18.7614 78.9653 18.7462C78.9114 18.7309 78.8547 18.7277 78.7994 18.7366C78.7441 18.7456 78.6914 18.7666 78.645 18.7981C77.3814 19.601 75.9191 20.0363 74.4221 20.055C72.925 20.0737 71.4523 19.6752 70.169 18.9041C70.1136 18.8687 70.0507 18.8467 69.9852 18.84C69.9198 18.8332 69.8537 18.8418 69.7922 18.8651C69.7308 18.8885 69.6756 18.9258 69.6311 18.9743C69.5866 19.0227 69.554 19.0808 69.536 19.1441C68.227 23.2041 65.817 22.9441 65.372 22.8621"></path><path stroke="currentColor" d="M71.25 24.25C70.9739 24.25 70.75 24.0261 70.75 23.75C70.75 23.4739 70.9739 23.25 71.25 23.25"></path><path stroke="currentColor" d="M71.25 24.25C71.5261 24.25 71.75 24.0261 71.75 23.75C71.75 23.4739 71.5261 23.25 71.25 23.25"></path><path stroke="currentColor" d="M77.7424 24.25C77.4663 24.25 77.2424 24.0261 77.2424 23.75C77.2424 23.4739 77.4663 23.25 77.7424 23.25"></path><path stroke="currentColor" d="M77.7424 24.25C78.0186 24.25 78.2424 24.0261 78.2424 23.75C78.2424 23.4739 78.0186 23.25 77.7424 23.25"></path></svg>