<svg xmlns="http://www.w3.org/2000/svg" fill="none" viewBox="0 0 100 100"><path stroke="currentColor" stroke-linecap="round" stroke-linejoin="round" d="M42.816 45.052H12.4C11.7635 45.052 11.153 44.7991 10.7029 44.349C10.2529 43.899 10 43.2885 10 42.652V18.471C10 17.8345 10.2529 17.224 10.7029 16.7739C11.153 16.3238 11.7635 16.071 12.4 16.071H87.6C88.2365 16.071 88.847 16.3238 89.2971 16.7739C89.7471 17.224 90 17.8345 90 18.471V42.65C90 43.2865 89.7471 43.897 89.2971 44.347C88.847 44.7971 88.2365 45.05 87.6 45.05H60.008"></path><path stroke="currentColor" stroke-linecap="round" stroke-linejoin="round" d="M75.36 21.3L77.487 25.609C77.5711 25.7801 77.6956 25.9281 77.8499 26.0401C78.0041 26.1521 78.1833 26.2249 78.372 26.252L83.129 26.944C83.3451 26.9762 83.5479 27.0679 83.7148 27.209C83.8816 27.35 84.0058 27.5348 84.0734 27.7425C84.141 27.9503 84.1494 28.1728 84.0976 28.385C84.0457 28.5972 83.9357 28.7908 83.78 28.944L80.338 32.299C80.2006 32.4325 80.0979 32.5977 80.039 32.78C79.9801 32.9623 79.9667 33.1563 80 33.345L80.812 38.083C80.8489 38.2992 80.8246 38.5214 80.7418 38.7245C80.6591 38.9276 80.5212 39.1035 80.3438 39.2324C80.1663 39.3612 79.9564 39.4379 79.7377 39.4538C79.5189 39.4696 79.3001 39.424 79.106 39.322L74.852 37.086C74.6833 36.9974 74.4956 36.9511 74.305 36.9511C74.1144 36.9511 73.9267 36.9974 73.758 37.086L69.504 39.322C69.3099 39.4238 69.0912 39.4693 68.8727 39.4534C68.6541 39.4375 68.4443 39.3607 68.2671 39.2319C68.0898 39.103 67.9522 38.9271 67.8696 38.7241C67.7871 38.5211 67.763 38.299 67.8 38.083L68.613 33.345C68.6452 33.1572 68.6312 32.9645 68.5723 32.7833C68.5135 32.6021 68.4114 32.438 68.275 32.305L64.832 28.95C64.6762 28.7968 64.5662 28.6032 64.5144 28.391C64.4626 28.1788 64.4709 27.9563 64.5385 27.7485C64.6062 27.5408 64.7304 27.356 64.8972 27.215C65.064 27.0739 65.2669 26.9822 65.483 26.95L70.24 26.258C70.4287 26.2309 70.6079 26.1581 70.7621 26.0461C70.9163 25.9341 71.0409 25.7861 71.125 25.615L73.252 21.3C73.3489 21.1032 73.4991 20.9375 73.6853 20.8216C73.8716 20.7058 74.0866 20.6443 74.306 20.6443C74.5254 20.6443 74.7404 20.7058 74.9266 20.8216C75.1129 20.9375 75.263 21.1032 75.36 21.3V21.3Z"></path><path stroke="currentColor" stroke-linecap="round" stroke-linejoin="round" d="M27.1 21.464L29.228 25.773C29.3119 25.944 29.4363 26.092 29.5904 26.204C29.7444 26.3161 29.9235 26.3888 30.112 26.416L34.869 27.107C35.0851 27.1392 35.288 27.2309 35.4548 27.372C35.6216 27.513 35.7458 27.6978 35.8134 27.9056C35.8811 28.1133 35.8894 28.3358 35.8376 28.548C35.7858 28.7603 35.6758 28.9538 35.52 29.107L32.078 32.462C31.9416 32.595 31.8397 32.7592 31.7809 32.9404C31.7222 33.1216 31.7085 33.3143 31.741 33.502L32.553 38.239C32.5903 38.4553 32.5663 38.6777 32.4837 38.881C32.401 39.0843 32.2631 39.2605 32.0856 39.3894C31.908 39.5184 31.6979 39.595 31.479 39.6107C31.26 39.6264 31.0411 39.5804 30.847 39.478L26.6 37.247C26.4313 37.1584 26.2436 37.1121 26.053 37.1121C25.8624 37.1121 25.6747 37.1584 25.506 37.247L21.252 39.483C21.0579 39.5851 20.8391 39.6309 20.6204 39.6151C20.4016 39.5993 20.1917 39.5226 20.0143 39.3936C19.8369 39.2647 19.6991 39.0887 19.6165 38.8856C19.5339 38.6824 19.5099 38.4602 19.547 38.244L20.359 33.507C20.3915 33.3193 20.3778 33.1266 20.3191 32.9454C20.2604 32.7642 20.1584 32.6 20.022 32.467L16.579 29.112C16.4236 28.9586 16.314 28.765 16.2624 28.5528C16.2108 28.3406 16.2194 28.1182 16.287 27.9106C16.3547 27.7029 16.4789 27.5183 16.6456 27.3772C16.8123 27.2362 17.015 27.1444 17.231 27.112L21.988 26.421C22.1765 26.3937 22.3555 26.3208 22.5095 26.2088C22.6635 26.0968 22.7879 25.9489 22.872 25.778L25 21.464C25.0978 21.2694 25.2478 21.1057 25.4332 20.9913C25.6186 20.877 25.8322 20.8164 26.05 20.8164C26.2679 20.8164 26.4814 20.877 26.6668 20.9913C26.8523 21.1057 27.0022 21.2694 27.1 21.464V21.464Z"></path><path stroke="currentColor" stroke-linecap="round" stroke-linejoin="round" d="M43.671 38.244L44.483 33.507C44.5155 33.3193 44.5018 33.1266 44.4431 32.9454C44.3844 32.7642 44.2824 32.6 44.146 32.467L40.7 29.112C40.5442 28.9588 40.4343 28.7653 40.3824 28.553C40.3306 28.3408 40.339 28.1183 40.4066 27.9105C40.4742 27.7028 40.5984 27.518 40.7652 27.377C40.9321 27.2359 41.1349 27.1442 41.351 27.112L46.108 26.421C46.2984 26.3944 46.4794 26.3213 46.6349 26.2083C46.7904 26.0954 46.9158 25.9459 47 25.773L49.128 21.464C49.225 21.2672 49.3751 21.1015 49.5614 20.9856C49.7476 20.8698 49.9626 20.8083 50.182 20.8083C50.4014 20.8083 50.6164 20.8698 50.8027 20.9856C50.9889 21.1015 51.1391 21.2672 51.236 21.464L53.363 25.773C53.4472 25.944 53.5718 26.092 53.726 26.204C53.8802 26.316 54.0594 26.3888 54.248 26.416L59 27.107C59.2159 27.1395 59.4185 27.2314 59.5851 27.3725C59.7517 27.5136 59.8757 27.6983 59.9433 27.9059C60.0109 28.1135 60.0193 28.3358 59.9677 28.548C59.9161 28.7601 59.8064 28.9537 59.651 29.107L57.397 31.307"></path><path stroke="currentColor" stroke-linecap="round" stroke-linejoin="round" d="M51.558 83.931C51.558 74.707 41.789 77.36 41.789 62.79C41.789 57.29 43.589 55.119 47.556 55.119V34.51C47.556 33.6613 47.8931 32.8474 48.4933 32.2473C49.0934 31.6471 49.9073 31.31 50.756 31.31C51.6047 31.31 52.4186 31.6471 53.0187 32.2473C53.6189 32.8474 53.956 33.6613 53.956 34.51V50.317C53.956 49.4683 54.2931 48.6544 54.8933 48.0543C55.4934 47.4541 56.3073 47.117 57.156 47.117C58.0047 47.117 58.8186 47.4541 59.4187 48.0543C60.0189 48.6544 60.356 49.4683 60.356 50.317V51.917C60.356 51.0683 60.6931 50.2544 61.2933 49.6543C61.8934 49.0541 62.7073 48.717 63.556 48.717C64.4047 48.717 65.2186 49.0541 65.8187 49.6543C66.4189 50.2544 66.756 51.0683 66.756 51.917V53.517C66.756 52.6683 67.0931 51.8544 67.6933 51.2543C68.2934 50.6541 69.1073 50.317 69.956 50.317C70.8047 50.317 71.6186 50.6541 72.2187 51.2543C72.8189 51.8544 73.156 52.6683 73.156 53.517V65.123C73.156 73.369 69.956 74.815 69.956 79.529V83.929"></path><path stroke="currentColor" stroke-linecap="round" stroke-linejoin="round" d="M60.3621 55.685V52.217"></path><path stroke="currentColor" stroke-linecap="round" stroke-linejoin="round" d="M53.959 55.418V50.616"></path><path stroke="currentColor" stroke-linecap="round" stroke-linejoin="round" d="M66.765 55.685V53.818"></path><path stroke="currentColor" stroke-linecap="round" stroke-linejoin="round" d="M47.556 62.621V55.418"></path></svg>